<?xml version="1.0" standalone="no"?>
 <!DOCTYPE svg PUBLIC "-//W3C//DTD SVG 1.1//EN" 
 "http://www.w3.org/Graphics/SVG/1.1/DTD/svg11.dtd"> 
<svg
  xmlns:svg="http://www.w3.org/2000/svg"
  xmlns="http://www.w3.org/2000/svg"
  xmlns:xlink="http://www.w3.org/1999/xlink"
  version="1.1"
  width="297.0022mm" height="210.0072mm" viewBox="0.0000 0.0000 297.0022 210.0072">
<title>SVG Image created as board-outline.svg date 2024/07/15 17:57:26 </title>
  <desc>Image generated by PCBNEW </desc>
<g style="fill:#000000; fill-opacity:1.0000;stroke:#000000; stroke-opacity:1.0000;
stroke-linecap:round; stroke-linejoin:round;"
 transform="translate(0 0) scale(1 1)">
</g>
<g style="fill:none; 
stroke:#000000; stroke-width:0.0500; stroke-opacity:1; 
stroke-linecap:round; stroke-linejoin:round;">
<path d="M122.2511 89.8304
L111.8510 89.8304
" />
<path d="M112.2511 107.1786
L112.2511 111.3785
" />
<path d="M111.5385 120.6672 A0.5011 0.5011 0.0 0 0 111.8510 120.2037" />
<path d="M111.8510 89.8304
L111.8510 106.7785
" />
<path d="M174.4344 75.1654
L166.5111 75.1654
" />
<path d="M185.1951 100.9069 A0.5060 0.5060 0.0 0 0 185.6510 100.6170" />
</g>
<g style="fill:#000000; fill-opacity:1.0000; stroke:none;">
<circle cx="174.4344" cy="75.1654" r="0.0250" /> 
</g>
<g style="fill:none; 
stroke:#000000; stroke-width:0.0500; stroke-opacity:1; 
stroke-linecap:round; stroke-linejoin:round;">
<path d="M112.2511 107.1786 A0.4001 0.4001 0.0 0 0 111.8510 106.7785" />
<path d="M111.8510 111.7785 A0.4001 0.4001 0.0 0 0 112.2511 111.3785" />
<path d="M127.4891 137.8037
L185.1509 137.8036
" />
<path d="M166.0112 74.6656 A0.4999 0.4999 0.0 0 0 166.5111 75.1654" />
<path d="M111.8510 111.7785
L111.8510 120.2037
" />
<path d="M122.7509 83.6805
L122.7509 89.3305
" />
<path d="M185.6510 100.6170
L185.6511 80.0730
" />
<path d="M122.2511 89.8304 A0.4998 0.4998 0.0 0 0 122.7509 89.3305" />
<path d="M116.3512 137.8036
L124.3390 137.8036
" />
<path d="M166.0110 72.7034 A0.5010 0.5010 0.0 0 0 165.5111 72.2035" />
<path d="M182.4409 76.8655
L178.1303 76.8655
" />
<path d="M183.6480 101.4450
L184.4978 100.9353
" />
<path d="M185.6509 109.3997 A0.5023 0.5023 0.0 0 0 185.1864 109.1067" />
<path d="M165.5111 72.2035
L123.4167 72.2035
" />
<path d="M177.6609 76.7484 A1.0000 1.0000 0.0 0 0 178.1303 76.8655" />
<path d="M111.5386 120.6670 A0.3008 0.3008 0.0 0 0 111.3509 120.9451" />
<path d="M127.4891 137.8037 A1.8676 1.8676 0.0 0 0 124.3390 137.8036" />
<path d="M111.8512 123.8036 A0.5002 0.5002 0.0 0 0 111.5384 123.3398" />
<path d="M182.7944 77.0119 A0.5022 0.5022 0.0 0 0 182.4409 76.8655" />
<path d="M183.5509 108.3965
L183.5509 101.6167
" />
<path d="M184.4978 100.9353
L185.1951 100.9069
" />
<path d="M185.1509 137.8036 A0.5010 0.5010 0.0 0 0 185.6510 137.3035" />
<path d="M111.8512 123.8036
L111.8510 133.3035
" />
<path d="M111.3510 123.0620 A0.3006 0.3006 0.0 0 0 111.5386 123.3401" />
<path d="M184.6007 109.1067
L183.6525 108.5708
" />
<path d="M111.8510 76.7037
L111.8510 83.1804
" />
<path d="M185.6510 137.3035
L185.6509 109.3997
" />
<path d="M177.6609 76.7484
L174.9040 75.2825
" />
<path d="M183.5509 108.3965 A0.2000 0.2000 0.0 0 0 183.6525 108.5708" />
<path d="M119.9821 72.2035 A1.9869 1.9869 0.0 0 0 123.4167 72.2035" />
<path d="M183.6480 101.4450 A0.2002 0.2002 0.0 0 0 183.5509 101.6167" />
<path d="M166.0112 74.6656
L166.0110 72.7034
" />
<path d="M116.3512 72.2035 A4.5001 4.5001 0.0 0 0 111.8510 76.7037" />
<path d="M111.8511 133.3035 A4.5000 4.5000 0.0 0 0 116.3512 137.8036" />
<path d="M185.6511 80.0730 A0.5006 0.5006 0.0 0 0 185.5044 79.7189" />
<path d="M111.8510 83.1804
L122.2511 83.1804
" />
<path d="M185.1864 109.1067
L184.6007 109.1067
" />
<path d="M174.9040 75.2826 A1.0004 1.0004 0.0 0 0 174.4344 75.1654" />
<path d="M119.9821 72.2035
L116.3512 72.2035
" />
<path d="M111.3509 120.9451
L111.3510 123.0620
" />
<path d="M185.5044 79.7189
L182.7944 77.0119
" />
<path d="M122.7509 83.6805 A0.5008 0.5008 0.0 0 0 122.2511 83.1804" />
</g> 
</svg>
