<?xml version="1.0" standalone="no"?>
<!DOCTYPE svg PUBLIC "-//W3C//DTD SVG 1.1//EN" "http://www.w3.org/Graphics/SVG/1.1/DTD/svg11.dtd">
<svg width="27mm" height="126mm" viewBox="-11 -63 27 126" xmlns="http://www.w3.org/2000/svg" version="1.1">
<title>OpenSCAD Model</title>
<path d="
M 14.2,62.4945 L 14.3045,62.4945 L 14.509,62.4511 L 14.7,62.366 L 14.8691,62.2431 L 15.009,62.0878
 L 15.1135,61.9067 L 15.1781,61.7079 L 15.2,61.5 L 15.2,-61.5 L 15.1781,-61.7079 L 15.1135,-61.9067
 L 15.009,-62.0878 L 14.8691,-62.2431 L 14.7,-62.366 L 14.509,-62.4511 L 14.3045,-62.4945 L 14.2,-62.4945
 L 14.2,-62.5 L -9.2,-62.5 L -9.2,-62.4945 L -9.30453,-62.4945 L -9.50902,-62.4511 L -9.7,-62.366
 L -9.86913,-62.2431 L -10.009,-62.0878 L -10.1135,-61.9067 L -10.1781,-61.7079 L -10.2,-61.5 L -10.2,61.5
 L -10.1781,61.7079 L -10.1135,61.9067 L -10.009,62.0878 L -9.86913,62.2431 L -9.7,62.366 L -9.50902,62.4511
 L -9.30453,62.4945 L -9.2,62.4945 L -9.2,62.5 L 14.2,62.5 z
M -5.18815,-43.2099 L -5.55623,-43.2881 L -5.9,-43.4412 L -6.20444,-43.6623 L -6.45623,-43.942 L -6.64438,-44.2679
 L -6.76067,-44.6258 L -6.8,-45 L -6.76067,-45.3742 L -6.64438,-45.7321 L -6.45623,-46.058 L -6.20444,-46.3377
 L -5.9,-46.5588 L -5.55623,-46.7119 L -5.18815,-46.7901 L -4.81185,-46.7901 L -4.44377,-46.7119 L -4.1,-46.5588
 L -3.79556,-46.3377 L -3.54377,-46.058 L -3.35562,-45.7321 L -3.23933,-45.3742 L -3.2,-45 L -3.23933,-44.6258
 L -3.35562,-44.2679 L -3.54377,-43.942 L -3.79556,-43.6623 L -4.1,-43.4412 L -4.44377,-43.2881 L -4.81185,-43.2099
 z
M 7.31185,-23.6099 L 6.94377,-23.6881 L 6.6,-23.8412 L 6.29556,-24.0623 L 6.04377,-24.342 L 5.85562,-24.6679
 L 5.73933,-25.0258 L 5.7,-25.4 L 5.73933,-25.7742 L 5.85562,-26.1321 L 6.04377,-26.458 L 6.29556,-26.7377
 L 6.6,-26.9588 L 6.94377,-27.1119 L 7.31185,-27.1901 L 7.68815,-27.1901 L 8.05623,-27.1119 L 8.4,-26.9588
 L 8.70444,-26.7377 L 8.95623,-26.458 L 9.14438,-26.1321 L 9.26067,-25.7742 L 9.3,-25.4 L 9.26067,-25.0258
 L 9.14438,-24.6679 L 8.95623,-24.342 L 8.70444,-24.0623 L 8.4,-23.8412 L 8.05623,-23.6881 L 7.68815,-23.6099
 z
M 7.31185,1.79014 L 6.94377,1.7119 L 6.6,1.55885 L 6.29556,1.33766 L 6.04377,1.05801 L 5.85562,0.732126
 L 5.73933,0.374241 L 5.7,-0 L 5.73933,-0.374241 L 5.85562,-0.732126 L 6.04377,-1.05801 L 6.29556,-1.33766
 L 6.6,-1.55885 L 6.94377,-1.7119 L 7.31185,-1.79014 L 7.68815,-1.79014 L 8.05623,-1.7119 L 8.4,-1.55885
 L 8.70444,-1.33766 L 8.95623,-1.05801 L 9.14438,-0.732126 L 9.26067,-0.374241 L 9.3,-0 L 9.26067,0.374241
 L 9.14438,0.732126 L 8.95623,1.05801 L 8.70444,1.33766 L 8.4,1.55885 L 8.05623,1.7119 L 7.68815,1.79014
 z
M 7.31185,27.1901 L 6.94377,27.1119 L 6.6,26.9588 L 6.29556,26.7377 L 6.04377,26.458 L 5.85562,26.1321
 L 5.73933,25.7742 L 5.7,25.4 L 5.73933,25.0258 L 5.85562,24.6679 L 6.04377,24.342 L 6.29556,24.0623
 L 6.6,23.8412 L 6.94377,23.6881 L 7.31185,23.6099 L 7.68815,23.6099 L 8.05623,23.6881 L 8.4,23.8412
 L 8.70444,24.0623 L 8.95623,24.342 L 9.14438,24.6679 L 9.26067,25.0258 L 9.3,25.4 L 9.26067,25.7742
 L 9.14438,26.1321 L 8.95623,26.458 L 8.70444,26.7377 L 8.4,26.9588 L 8.05623,27.1119 L 7.68815,27.1901
 z
M -5.18815,46.7901 L -5.55623,46.7119 L -5.9,46.5588 L -6.20444,46.3377 L -6.45623,46.058 L -6.64438,45.7321
 L -6.76067,45.3742 L -6.8,45 L -6.76067,44.6258 L -6.64438,44.2679 L -6.45623,43.942 L -6.20444,43.6623
 L -5.9,43.4412 L -5.55623,43.2881 L -5.18815,43.2099 L -4.81185,43.2099 L -4.44377,43.2881 L -4.1,43.4412
 L -3.79556,43.6623 L -3.54377,43.942 L -3.35562,44.2679 L -3.23933,44.6258 L -3.2,45 L -3.23933,45.3742
 L -3.35562,45.7321 L -3.54377,46.058 L -3.79556,46.3377 L -4.1,46.5588 L -4.44377,46.7119 L -4.81185,46.7901
 z
" stroke="black" fill="lightgray" stroke-width="0.5"/>
</svg>
