<?xml version="1.0" standalone="no"?>
<!DOCTYPE svg PUBLIC "-//W3C//DTD SVG 1.1//EN" "http://www.w3.org/Graphics/SVG/1.1/DTD/svg11.dtd">
<svg width="48mm" height="78mm" viewBox="-24 -39 48 78" xmlns="http://www.w3.org/2000/svg" version="1.1">
<title>OpenSCAD Model</title>
<path d="
M 20.7695,-33.2632 L 21.0365,-33.3028 L 21.2983,-33.3684 L 21.5524,-33.4593 L 21.7963,-33.5747 L 22.0278,-33.7135
 L 22.2446,-33.8742 L 22.4445,-34.0555 L 22.6258,-34.2554 L 22.7865,-34.4722 L 22.9253,-34.7037 L 23.0407,-34.9476
 L 23.1316,-35.2017 L 23.1972,-35.4635 L 23.2368,-35.7305 L 23.25,-36 L 23.2368,-36.2695 L 23.1972,-36.5365
 L 23.1316,-36.7983 L 23.0407,-37.0524 L 22.9253,-37.2963 L 22.7865,-37.5278 L 22.6258,-37.7446 L 22.4445,-37.9445
 L 22.2446,-38.1258 L 22.0278,-38.2865 L 21.7963,-38.4253 L 21.5524,-38.5407 L 21.2983,-38.6316 L 21.0365,-38.6972
 L 20.7695,-38.7368 L 20.5,-38.75 L 20.2305,-38.7368 L 19.9635,-38.6972 L 19.7017,-38.6316 L 19.4476,-38.5407
 L 19.2037,-38.4253 L 18.9722,-38.2865 L 18.7554,-38.1258 L 18.5555,-37.9445 L 18.3742,-37.7446 L 18.2135,-37.5278
 L 18.0747,-37.2963 L 17.9593,-37.0524 L 17.8684,-36.7983 L 17.8028,-36.5365 L 17.7632,-36.2695 L 17.75,-36
 L 17.7632,-35.7305 L 17.8028,-35.4635 L 17.8684,-35.2017 L 17.9593,-34.9476 L 18.0747,-34.7037 L 18.2135,-34.4722
 L 18.3742,-34.2554 L 18.5555,-34.0555 L 18.7554,-33.8742 L 18.9722,-33.7135 L 19.2037,-33.5747 L 19.4476,-33.4593
 L 19.7017,-33.3684 L 19.9635,-33.3028 L 20.2305,-33.2632 L 20.5,-33.25 z
M -20.2305,-33.2632 L -19.9635,-33.3028 L -19.7017,-33.3684 L -19.4476,-33.4593 L -19.2037,-33.5747 L -18.9722,-33.7135
 L -18.7554,-33.8742 L -18.5555,-34.0555 L -18.3742,-34.2554 L -18.2135,-34.4722 L -18.0747,-34.7037 L -17.9593,-34.9476
 L -17.8684,-35.2017 L -17.8028,-35.4635 L -17.7632,-35.7305 L -17.75,-36 L -17.7632,-36.2695 L -17.8028,-36.5365
 L -17.8684,-36.7983 L -17.9593,-37.0524 L -18.0747,-37.2963 L -18.2135,-37.5278 L -18.3742,-37.7446 L -18.5555,-37.9445
 L -18.7554,-38.1258 L -18.9722,-38.2865 L -19.2037,-38.4253 L -19.4476,-38.5407 L -19.7017,-38.6316 L -19.9635,-38.6972
 L -20.2305,-38.7368 L -20.5,-38.75 L -20.7695,-38.7368 L -21.0365,-38.6972 L -21.2983,-38.6316 L -21.5524,-38.5407
 L -21.7963,-38.4253 L -22.0278,-38.2865 L -22.2446,-38.1258 L -22.4445,-37.9445 L -22.6258,-37.7446 L -22.7865,-37.5278
 L -22.9253,-37.2963 L -23.0407,-37.0524 L -23.1316,-36.7983 L -23.1972,-36.5365 L -23.2368,-36.2695 L -23.25,-36
 L -23.2368,-35.7305 L -23.1972,-35.4635 L -23.1316,-35.2017 L -23.0407,-34.9476 L -22.9253,-34.7037 L -22.7865,-34.4722
 L -22.6258,-34.2554 L -22.4445,-34.0555 L -22.2446,-33.8742 L -22.0278,-33.7135 L -21.7963,-33.5747 L -21.5524,-33.4593
 L -21.2983,-33.3684 L -21.0365,-33.3028 L -20.7695,-33.2632 L -20.5,-33.25 z
M -4.20198,-33.6048 L -4.10491,-33.6192 L -4.00972,-33.6431 L -3.91732,-33.6761 L -3.8286,-33.7181 L -3.74443,-33.7685
 L -3.66561,-33.827 L -3.59289,-33.8929 L -3.52699,-33.9656 L -3.46853,-34.0444 L -3.41808,-34.1286 L -3.37612,-34.2173
 L -3.34306,-34.3097 L -3.31921,-34.4049 L -3.30482,-34.502 L -3.3,-34.6 L -3.30482,-34.698 L -3.31921,-34.7951
 L -3.34306,-34.8903 L -3.37612,-34.9827 L -3.41808,-35.0714 L -3.46853,-35.1556 L -3.52699,-35.2344 L -3.59289,-35.3071
 L -3.66561,-35.373 L -3.74443,-35.4315 L -3.8286,-35.4819 L -3.91732,-35.5239 L -4.00972,-35.5569 L -4.10491,-35.5808
 L -4.20198,-35.5952 L -4.3,-35.6 L -4.39802,-35.5952 L -4.49509,-35.5808 L -4.59028,-35.5569 L -4.68268,-35.5239
 L -4.7714,-35.4819 L -4.85557,-35.4315 L -4.93439,-35.373 L -5.00711,-35.3071 L -5.07301,-35.2344 L -5.13147,-35.1556
 L -5.18192,-35.0714 L -5.22388,-34.9827 L -5.25694,-34.8903 L -5.28079,-34.7951 L -5.29518,-34.698 L -5.3,-34.6
 L -5.29518,-34.502 L -5.28079,-34.4049 L -5.25694,-34.3097 L -5.22388,-34.2173 L -5.18192,-34.1286 L -5.13147,-34.0444
 L -5.07301,-33.9656 L -5.00711,-33.8929 L -4.93439,-33.827 L -4.85557,-33.7685 L -4.7714,-33.7181 L -4.68268,-33.6761
 L -4.59028,-33.6431 L -4.49509,-33.6192 L -4.39802,-33.6048 L -4.3,-33.6 z
M 4.39802,-31.0048 L 4.49509,-31.0192 L 4.59028,-31.0431 L 4.68268,-31.0761 L 4.7714,-31.1181 L 4.85557,-31.1685
 L 4.93439,-31.227 L 5.00711,-31.2929 L 5.07301,-31.3656 L 5.13147,-31.4444 L 5.18192,-31.5286 L 5.22388,-31.6173
 L 5.25694,-31.7097 L 5.28079,-31.8049 L 5.29518,-31.902 L 5.3,-32 L 5.29518,-32.098 L 5.28079,-32.1951
 L 5.25694,-32.2903 L 5.22388,-32.3827 L 5.18192,-32.4714 L 5.13147,-32.5556 L 5.07301,-32.6344 L 5.00711,-32.7071
 L 4.93439,-32.773 L 4.85557,-32.8315 L 4.7714,-32.8819 L 4.68268,-32.9239 L 4.59028,-32.9569 L 4.49509,-32.9808
 L 4.39802,-32.9952 L 4.3,-33 L 4.20198,-32.9952 L 4.10491,-32.9808 L 4.00972,-32.9569 L 3.91732,-32.9239
 L 3.8286,-32.8819 L 3.74443,-32.8315 L 3.66561,-32.773 L 3.59289,-32.7071 L 3.52699,-32.6344 L 3.46853,-32.5556
 L 3.41808,-32.4714 L 3.37612,-32.3827 L 3.34306,-32.2903 L 3.31921,-32.1951 L 3.30482,-32.098 L 3.3,-32
 L 3.30482,-31.902 L 3.31921,-31.8049 L 3.34306,-31.7097 L 3.37612,-31.6173 L 3.41808,-31.5286 L 3.46853,-31.4444
 L 3.52699,-31.3656 L 3.59289,-31.2929 L 3.66561,-31.227 L 3.74443,-31.1685 L 3.8286,-31.1181 L 3.91732,-31.0761
 L 4.00972,-31.0431 L 4.10491,-31.0192 L 4.20198,-31.0048 L 4.3,-31 z
M 20.418,-24.4348 L 20.5151,-24.4492 L 20.6103,-24.4731 L 20.7027,-24.5061 L 20.7914,-24.5481 L 20.8756,-24.5985
 L 20.9544,-24.657 L 21.0271,-24.7229 L 21.093,-24.7956 L 21.1515,-24.8744 L 21.2019,-24.9586 L 21.2439,-25.0473
 L 21.2769,-25.1397 L 21.3008,-25.2349 L 21.3152,-25.332 L 21.32,-25.43 L 21.3152,-25.528 L 21.3008,-25.6251
 L 21.2769,-25.7203 L 21.2439,-25.8127 L 21.2019,-25.9014 L 21.1515,-25.9856 L 21.093,-26.0644 L 21.0271,-26.1371
 L 20.9544,-26.203 L 20.8756,-26.2615 L 20.7914,-26.3119 L 20.7027,-26.3539 L 20.6103,-26.3869 L 20.5151,-26.4108
 L 20.418,-26.4252 L 20.32,-26.43 L 20.222,-26.4252 L 20.1249,-26.4108 L 20.0297,-26.3869 L 19.9373,-26.3539
 L 19.8486,-26.3119 L 19.7644,-26.2615 L 19.6856,-26.203 L 19.6129,-26.1371 L 19.547,-26.0644 L 19.4885,-25.9856
 L 19.4381,-25.9014 L 19.3961,-25.8127 L 19.3631,-25.7203 L 19.3392,-25.6251 L 19.3248,-25.528 L 19.32,-25.43
 L 19.3248,-25.332 L 19.3392,-25.2349 L 19.3631,-25.1397 L 19.3961,-25.0473 L 19.4381,-24.9586 L 19.4885,-24.8744
 L 19.547,-24.7956 L 19.6129,-24.7229 L 19.6856,-24.657 L 19.7644,-24.5985 L 19.8486,-24.5481 L 19.9373,-24.5061
 L 20.0297,-24.4731 L 20.1249,-24.4492 L 20.222,-24.4348 L 20.32,-24.43 z
M 17.878,-24.4348 L 17.9751,-24.4492 L 18.0703,-24.4731 L 18.1627,-24.5061 L 18.2514,-24.5481 L 18.3356,-24.5985
 L 18.4144,-24.657 L 18.4871,-24.7229 L 18.553,-24.7956 L 18.6115,-24.8744 L 18.6619,-24.9586 L 18.7039,-25.0473
 L 18.7369,-25.1397 L 18.7608,-25.2349 L 18.7752,-25.332 L 18.78,-25.43 L 18.7752,-25.528 L 18.7608,-25.6251
 L 18.7369,-25.7203 L 18.7039,-25.8127 L 18.6619,-25.9014 L 18.6115,-25.9856 L 18.553,-26.0644 L 18.4871,-26.1371
 L 18.4144,-26.203 L 18.3356,-26.2615 L 18.2514,-26.3119 L 18.1627,-26.3539 L 18.0703,-26.3869 L 17.9751,-26.4108
 L 17.878,-26.4252 L 17.78,-26.43 L 17.682,-26.4252 L 17.5849,-26.4108 L 17.4897,-26.3869 L 17.3973,-26.3539
 L 17.3086,-26.3119 L 17.2244,-26.2615 L 17.1456,-26.203 L 17.0729,-26.1371 L 17.007,-26.0644 L 16.9485,-25.9856
 L 16.8981,-25.9014 L 16.8561,-25.8127 L 16.8231,-25.7203 L 16.7992,-25.6251 L 16.7848,-25.528 L 16.78,-25.43
 L 16.7848,-25.332 L 16.7992,-25.2349 L 16.8231,-25.1397 L 16.8561,-25.0473 L 16.8981,-24.9586 L 16.9485,-24.8744
 L 17.007,-24.7956 L 17.0729,-24.7229 L 17.1456,-24.657 L 17.2244,-24.5985 L 17.3086,-24.5481 L 17.3973,-24.5061
 L 17.4897,-24.4731 L 17.5849,-24.4492 L 17.682,-24.4348 L 17.78,-24.43 z
M 17.878,-21.8948 L 17.9751,-21.9092 L 18.0703,-21.9331 L 18.1627,-21.9661 L 18.2514,-22.0081 L 18.3356,-22.0585
 L 18.4144,-22.117 L 18.4871,-22.1829 L 18.553,-22.2556 L 18.6115,-22.3344 L 18.6619,-22.4186 L 18.7039,-22.5073
 L 18.7369,-22.5997 L 18.7608,-22.6949 L 18.7752,-22.792 L 18.78,-22.89 L 18.7752,-22.988 L 18.7608,-23.0851
 L 18.7369,-23.1803 L 18.7039,-23.2727 L 18.6619,-23.3614 L 18.6115,-23.4456 L 18.553,-23.5244 L 18.4871,-23.5971
 L 18.4144,-23.663 L 18.3356,-23.7215 L 18.2514,-23.7719 L 18.1627,-23.8139 L 18.0703,-23.8469 L 17.9751,-23.8708
 L 17.878,-23.8852 L 17.78,-23.89 L 17.682,-23.8852 L 17.5849,-23.8708 L 17.4897,-23.8469 L 17.3973,-23.8139
 L 17.3086,-23.7719 L 17.2244,-23.7215 L 17.1456,-23.663 L 17.0729,-23.5971 L 17.007,-23.5244 L 16.9485,-23.4456
 L 16.8981,-23.3614 L 16.8561,-23.2727 L 16.8231,-23.1803 L 16.7992,-23.0851 L 16.7848,-22.988 L 16.78,-22.89
 L 16.7848,-22.792 L 16.7992,-22.6949 L 16.8231,-22.5997 L 16.8561,-22.5073 L 16.8981,-22.4186 L 16.9485,-22.3344
 L 17.007,-22.2556 L 17.0729,-22.1829 L 17.1456,-22.117 L 17.2244,-22.0585 L 17.3086,-22.0081 L 17.3973,-21.9661
 L 17.4897,-21.9331 L 17.5849,-21.9092 L 17.682,-21.8948 L 17.78,-21.89 z
M -17.682,-21.8948 L -17.5849,-21.9092 L -17.4897,-21.9331 L -17.3973,-21.9661 L -17.3086,-22.0081 L -17.2244,-22.0585
 L -17.1456,-22.117 L -17.0729,-22.1829 L -17.007,-22.2556 L -16.9485,-22.3344 L -16.8981,-22.4186 L -16.8561,-22.5073
 L -16.8231,-22.5997 L -16.7992,-22.6949 L -16.7848,-22.792 L -16.78,-22.89 L -16.7848,-22.988 L -16.7992,-23.0851
 L -16.8231,-23.1803 L -16.8561,-23.2727 L -16.8981,-23.3614 L -16.9485,-23.4456 L -17.007,-23.5244 L -17.0729,-23.5971
 L -17.1456,-23.663 L -17.2244,-23.7215 L -17.3086,-23.7719 L -17.3973,-23.8139 L -17.4897,-23.8469 L -17.5849,-23.8708
 L -17.682,-23.8852 L -17.78,-23.89 L -17.878,-23.8852 L -17.9751,-23.8708 L -18.0703,-23.8469 L -18.1627,-23.8139
 L -18.2514,-23.7719 L -18.3356,-23.7215 L -18.4144,-23.663 L -18.4871,-23.5971 L -18.553,-23.5244 L -18.6115,-23.4456
 L -18.6619,-23.3614 L -18.7039,-23.2727 L -18.7369,-23.1803 L -18.7608,-23.0851 L -18.7752,-22.988 L -18.78,-22.89
 L -18.7752,-22.792 L -18.7608,-22.6949 L -18.7369,-22.5997 L -18.7039,-22.5073 L -18.6619,-22.4186 L -18.6115,-22.3344
 L -18.553,-22.2556 L -18.4871,-22.1829 L -18.4144,-22.117 L -18.3356,-22.0585 L -18.2514,-22.0081 L -18.1627,-21.9661
 L -18.0703,-21.9331 L -17.9751,-21.9092 L -17.878,-21.8948 L -17.78,-21.89 z
M -17.682,-19.3548 L -17.5849,-19.3692 L -17.4897,-19.3931 L -17.3973,-19.4261 L -17.3086,-19.4681 L -17.2244,-19.5185
 L -17.1456,-19.577 L -17.0729,-19.6429 L -17.007,-19.7156 L -16.9485,-19.7944 L -16.8981,-19.8786 L -16.8561,-19.9673
 L -16.8231,-20.0597 L -16.7992,-20.1549 L -16.7848,-20.252 L -16.78,-20.35 L -16.7848,-20.448 L -16.7992,-20.5451
 L -16.8231,-20.6403 L -16.8561,-20.7327 L -16.8981,-20.8214 L -16.9485,-20.9056 L -17.007,-20.9844 L -17.0729,-21.0571
 L -17.1456,-21.123 L -17.2244,-21.1815 L -17.3086,-21.2319 L -17.3973,-21.2739 L -17.4897,-21.3069 L -17.5849,-21.3308
 L -17.682,-21.3452 L -17.78,-21.35 L -17.878,-21.3452 L -17.9751,-21.3308 L -18.0703,-21.3069 L -18.1627,-21.2739
 L -18.2514,-21.2319 L -18.3356,-21.1815 L -18.4144,-21.123 L -18.4871,-21.0571 L -18.553,-20.9844 L -18.6115,-20.9056
 L -18.6619,-20.8214 L -18.7039,-20.7327 L -18.7369,-20.6403 L -18.7608,-20.5451 L -18.7752,-20.448 L -18.78,-20.35
 L -18.7752,-20.252 L -18.7608,-20.1549 L -18.7369,-20.0597 L -18.7039,-19.9673 L -18.6619,-19.8786 L -18.6115,-19.7944
 L -18.553,-19.7156 L -18.4871,-19.6429 L -18.4144,-19.577 L -18.3356,-19.5185 L -18.2514,-19.4681 L -18.1627,-19.4261
 L -18.0703,-19.3931 L -17.9751,-19.3692 L -17.878,-19.3548 L -17.78,-19.35 z
M -20.222,-19.3548 L -20.1249,-19.3692 L -20.0297,-19.3931 L -19.9373,-19.4261 L -19.8486,-19.4681 L -19.7644,-19.5185
 L -19.6856,-19.577 L -19.6129,-19.6429 L -19.547,-19.7156 L -19.4885,-19.7944 L -19.4381,-19.8786 L -19.3961,-19.9673
 L -19.3631,-20.0597 L -19.3392,-20.1549 L -19.3248,-20.252 L -19.32,-20.35 L -19.3248,-20.448 L -19.3392,-20.5451
 L -19.3631,-20.6403 L -19.3961,-20.7327 L -19.4381,-20.8214 L -19.4885,-20.9056 L -19.547,-20.9844 L -19.6129,-21.0571
 L -19.6856,-21.123 L -19.7644,-21.1815 L -19.8486,-21.2319 L -19.9373,-21.2739 L -20.0297,-21.3069 L -20.1249,-21.3308
 L -20.222,-21.3452 L -20.32,-21.35 L -20.418,-21.3452 L -20.5151,-21.3308 L -20.6103,-21.3069 L -20.7027,-21.2739
 L -20.7914,-21.2319 L -20.8756,-21.1815 L -20.9544,-21.123 L -21.0271,-21.0571 L -21.093,-20.9844 L -21.1515,-20.9056
 L -21.2019,-20.8214 L -21.2439,-20.7327 L -21.2769,-20.6403 L -21.3008,-20.5451 L -21.3152,-20.448 L -21.32,-20.35
 L -21.3152,-20.252 L -21.3008,-20.1549 L -21.2769,-20.0597 L -21.2439,-19.9673 L -21.2019,-19.8786 L -21.1515,-19.7944
 L -21.093,-19.7156 L -21.0271,-19.6429 L -20.9544,-19.577 L -20.8756,-19.5185 L -20.7914,-19.4681 L -20.7027,-19.4261
 L -20.6103,-19.3931 L -20.5151,-19.3692 L -20.418,-19.3548 L -20.32,-19.35 z
M 17.878,-19.3548 L 17.9751,-19.3692 L 18.0703,-19.3931 L 18.1627,-19.4261 L 18.2514,-19.4681 L 18.3356,-19.5185
 L 18.4144,-19.577 L 18.4871,-19.6429 L 18.553,-19.7156 L 18.6115,-19.7944 L 18.6619,-19.8786 L 18.7039,-19.9673
 L 18.7369,-20.0597 L 18.7608,-20.1549 L 18.7752,-20.252 L 18.78,-20.35 L 18.7752,-20.448 L 18.7608,-20.5451
 L 18.7369,-20.6403 L 18.7039,-20.7327 L 18.6619,-20.8214 L 18.6115,-20.9056 L 18.553,-20.9844 L 18.4871,-21.0571
 L 18.4144,-21.123 L 18.3356,-21.1815 L 18.2514,-21.2319 L 18.1627,-21.2739 L 18.0703,-21.3069 L 17.9751,-21.3308
 L 17.878,-21.3452 L 17.78,-21.35 L 17.682,-21.3452 L 17.5849,-21.3308 L 17.4897,-21.3069 L 17.3973,-21.2739
 L 17.3086,-21.2319 L 17.2244,-21.1815 L 17.1456,-21.123 L 17.0729,-21.0571 L 17.007,-20.9844 L 16.9485,-20.9056
 L 16.8981,-20.8214 L 16.8561,-20.7327 L 16.8231,-20.6403 L 16.7992,-20.5451 L 16.7848,-20.448 L 16.78,-20.35
 L 16.7848,-20.252 L 16.7992,-20.1549 L 16.8231,-20.0597 L 16.8561,-19.9673 L 16.8981,-19.8786 L 16.9485,-19.7944
 L 17.007,-19.7156 L 17.0729,-19.6429 L 17.1456,-19.577 L 17.2244,-19.5185 L 17.3086,-19.4681 L 17.3973,-19.4261
 L 17.4897,-19.3931 L 17.5849,-19.3692 L 17.682,-19.3548 L 17.78,-19.35 z
M -17.682,-16.8148 L -17.5849,-16.8292 L -17.4897,-16.8531 L -17.3973,-16.8861 L -17.3086,-16.9281 L -17.2244,-16.9785
 L -17.1456,-17.037 L -17.0729,-17.1029 L -17.007,-17.1756 L -16.9485,-17.2544 L -16.8981,-17.3386 L -16.8561,-17.4273
 L -16.8231,-17.5197 L -16.7992,-17.6149 L -16.7848,-17.712 L -16.78,-17.81 L -16.7848,-17.908 L -16.7992,-18.0051
 L -16.8231,-18.1003 L -16.8561,-18.1927 L -16.8981,-18.2814 L -16.9485,-18.3656 L -17.007,-18.4444 L -17.0729,-18.5171
 L -17.1456,-18.583 L -17.2244,-18.6415 L -17.3086,-18.6919 L -17.3973,-18.7339 L -17.4897,-18.7669 L -17.5849,-18.7908
 L -17.682,-18.8052 L -17.78,-18.81 L -17.878,-18.8052 L -17.9751,-18.7908 L -18.0703,-18.7669 L -18.1627,-18.7339
 L -18.2514,-18.6919 L -18.3356,-18.6415 L -18.4144,-18.583 L -18.4871,-18.5171 L -18.553,-18.4444 L -18.6115,-18.3656
 L -18.6619,-18.2814 L -18.7039,-18.1927 L -18.7369,-18.1003 L -18.7608,-18.0051 L -18.7752,-17.908 L -18.78,-17.81
 L -18.7752,-17.712 L -18.7608,-17.6149 L -18.7369,-17.5197 L -18.7039,-17.4273 L -18.6619,-17.3386 L -18.6115,-17.2544
 L -18.553,-17.1756 L -18.4871,-17.1029 L -18.4144,-17.037 L -18.3356,-16.9785 L -18.2514,-16.9281 L -18.1627,-16.8861
 L -18.0703,-16.8531 L -17.9751,-16.8292 L -17.878,-16.8148 L -17.78,-16.81 z
M 20.418,-16.8148 L 20.5151,-16.8292 L 20.6103,-16.8531 L 20.7027,-16.8861 L 20.7914,-16.9281 L 20.8756,-16.9785
 L 20.9544,-17.037 L 21.0271,-17.1029 L 21.093,-17.1756 L 21.1515,-17.2544 L 21.2019,-17.3386 L 21.2439,-17.4273
 L 21.2769,-17.5197 L 21.3008,-17.6149 L 21.3152,-17.712 L 21.32,-17.81 L 21.3152,-17.908 L 21.3008,-18.0051
 L 21.2769,-18.1003 L 21.2439,-18.1927 L 21.2019,-18.2814 L 21.1515,-18.3656 L 21.093,-18.4444 L 21.0271,-18.5171
 L 20.9544,-18.583 L 20.8756,-18.6415 L 20.7914,-18.6919 L 20.7027,-18.7339 L 20.6103,-18.7669 L 20.5151,-18.7908
 L 20.418,-18.8052 L 20.32,-18.81 L 20.222,-18.8052 L 20.1249,-18.7908 L 20.0297,-18.7669 L 19.9373,-18.7339
 L 19.8486,-18.6919 L 19.7644,-18.6415 L 19.6856,-18.583 L 19.6129,-18.5171 L 19.547,-18.4444 L 19.4885,-18.3656
 L 19.4381,-18.2814 L 19.3961,-18.1927 L 19.3631,-18.1003 L 19.3392,-18.0051 L 19.3248,-17.908 L 19.32,-17.81
 L 19.3248,-17.712 L 19.3392,-17.6149 L 19.3631,-17.5197 L 19.3961,-17.4273 L 19.4381,-17.3386 L 19.4885,-17.2544
 L 19.547,-17.1756 L 19.6129,-17.1029 L 19.6856,-17.037 L 19.7644,-16.9785 L 19.8486,-16.9281 L 19.9373,-16.8861
 L 20.0297,-16.8531 L 20.1249,-16.8292 L 20.222,-16.8148 L 20.32,-16.81 z
M 17.878,-16.8148 L 17.9751,-16.8292 L 18.0703,-16.8531 L 18.1627,-16.8861 L 18.2514,-16.9281 L 18.3356,-16.9785
 L 18.4144,-17.037 L 18.4871,-17.1029 L 18.553,-17.1756 L 18.6115,-17.2544 L 18.6619,-17.3386 L 18.7039,-17.4273
 L 18.7369,-17.5197 L 18.7608,-17.6149 L 18.7752,-17.712 L 18.78,-17.81 L 18.7752,-17.908 L 18.7608,-18.0051
 L 18.7369,-18.1003 L 18.7039,-18.1927 L 18.6619,-18.2814 L 18.6115,-18.3656 L 18.553,-18.4444 L 18.4871,-18.5171
 L 18.4144,-18.583 L 18.3356,-18.6415 L 18.2514,-18.6919 L 18.1627,-18.7339 L 18.0703,-18.7669 L 17.9751,-18.7908
 L 17.878,-18.8052 L 17.78,-18.81 L 17.682,-18.8052 L 17.5849,-18.7908 L 17.4897,-18.7669 L 17.3973,-18.7339
 L 17.3086,-18.6919 L 17.2244,-18.6415 L 17.1456,-18.583 L 17.0729,-18.5171 L 17.007,-18.4444 L 16.9485,-18.3656
 L 16.8981,-18.2814 L 16.8561,-18.1927 L 16.8231,-18.1003 L 16.7992,-18.0051 L 16.7848,-17.908 L 16.78,-17.81
 L 16.7848,-17.712 L 16.7992,-17.6149 L 16.8231,-17.5197 L 16.8561,-17.4273 L 16.8981,-17.3386 L 16.9485,-17.2544
 L 17.007,-17.1756 L 17.0729,-17.1029 L 17.1456,-17.037 L 17.2244,-16.9785 L 17.3086,-16.9281 L 17.3973,-16.8861
 L 17.4897,-16.8531 L 17.5849,-16.8292 L 17.682,-16.8148 L 17.78,-16.81 z
M -17.682,-14.2748 L -17.5849,-14.2892 L -17.4897,-14.3131 L -17.3973,-14.3461 L -17.3086,-14.3881 L -17.2244,-14.4385
 L -17.1456,-14.497 L -17.0729,-14.5629 L -17.007,-14.6356 L -16.9485,-14.7144 L -16.8981,-14.7986 L -16.8561,-14.8873
 L -16.8231,-14.9797 L -16.7992,-15.0749 L -16.7848,-15.172 L -16.78,-15.27 L -16.7848,-15.368 L -16.7992,-15.4651
 L -16.8231,-15.5603 L -16.8561,-15.6527 L -16.8981,-15.7414 L -16.9485,-15.8256 L -17.007,-15.9044 L -17.0729,-15.9771
 L -17.1456,-16.043 L -17.2244,-16.1015 L -17.3086,-16.1519 L -17.3973,-16.1939 L -17.4897,-16.2269 L -17.5849,-16.2508
 L -17.682,-16.2652 L -17.78,-16.27 L -17.878,-16.2652 L -17.9751,-16.2508 L -18.0703,-16.2269 L -18.1627,-16.1939
 L -18.2514,-16.1519 L -18.3356,-16.1015 L -18.4144,-16.043 L -18.4871,-15.9771 L -18.553,-15.9044 L -18.6115,-15.8256
 L -18.6619,-15.7414 L -18.7039,-15.6527 L -18.7369,-15.5603 L -18.7608,-15.4651 L -18.7752,-15.368 L -18.78,-15.27
 L -18.7752,-15.172 L -18.7608,-15.0749 L -18.7369,-14.9797 L -18.7039,-14.8873 L -18.6619,-14.7986 L -18.6115,-14.7144
 L -18.553,-14.6356 L -18.4871,-14.5629 L -18.4144,-14.497 L -18.3356,-14.4385 L -18.2514,-14.3881 L -18.1627,-14.3461
 L -18.0703,-14.3131 L -17.9751,-14.2892 L -17.878,-14.2748 L -17.78,-14.27 z
M 0.0980171,-14.2748 L 0.19509,-14.2892 L 0.290285,-14.3131 L 0.382683,-14.3461 L 0.471397,-14.3881 L 0.55557,-14.4385
 L 0.634393,-14.497 L 0.707107,-14.5629 L 0.77301,-14.6356 L 0.83147,-14.7144 L 0.881921,-14.7986 L 0.92388,-14.8873
 L 0.95694,-14.9797 L 0.980785,-15.0749 L 0.995185,-15.172 L 1,-15.27 L 0.995185,-15.368 L 0.980785,-15.4651
 L 0.95694,-15.5603 L 0.92388,-15.6527 L 0.881921,-15.7414 L 0.83147,-15.8256 L 0.77301,-15.9044 L 0.707107,-15.9771
 L 0.634393,-16.043 L 0.55557,-16.1015 L 0.471397,-16.1519 L 0.382683,-16.1939 L 0.290285,-16.2269 L 0.19509,-16.2508
 L 0.0980171,-16.2652 L 8.88178e-16,-16.27 L -0.0980171,-16.2652 L -0.19509,-16.2508 L -0.290285,-16.2269 L -0.382683,-16.1939
 L -0.471397,-16.1519 L -0.55557,-16.1015 L -0.634393,-16.043 L -0.707107,-15.9771 L -0.77301,-15.9044 L -0.83147,-15.8256
 L -0.881921,-15.7414 L -0.92388,-15.6527 L -0.95694,-15.5603 L -0.980785,-15.4651 L -0.995185,-15.368 L -1,-15.27
 L -0.995185,-15.172 L -0.980785,-15.0749 L -0.95694,-14.9797 L -0.92388,-14.8873 L -0.881921,-14.7986 L -0.83147,-14.7144
 L -0.77301,-14.6356 L -0.707107,-14.5629 L -0.634393,-14.497 L -0.55557,-14.4385 L -0.471397,-14.3881 L -0.382683,-14.3461
 L -0.290285,-14.3131 L -0.19509,-14.2892 L -0.0980171,-14.2748 L 8.88178e-16,-14.27 z
M -2.44198,-14.2748 L -2.34491,-14.2892 L -2.24972,-14.3131 L -2.15732,-14.3461 L -2.0686,-14.3881 L -1.98443,-14.4385
 L -1.90561,-14.497 L -1.83289,-14.5629 L -1.76699,-14.6356 L -1.70853,-14.7144 L -1.65808,-14.7986 L -1.61612,-14.8873
 L -1.58306,-14.9797 L -1.55921,-15.0749 L -1.54482,-15.172 L -1.54,-15.27 L -1.54482,-15.368 L -1.55921,-15.4651
 L -1.58306,-15.5603 L -1.61612,-15.6527 L -1.65808,-15.7414 L -1.70853,-15.8256 L -1.76699,-15.9044 L -1.83289,-15.9771
 L -1.90561,-16.043 L -1.98443,-16.1015 L -2.0686,-16.1519 L -2.15732,-16.1939 L -2.24972,-16.2269 L -2.34491,-16.2508
 L -2.44198,-16.2652 L -2.54,-16.27 L -2.63802,-16.2652 L -2.73509,-16.2508 L -2.83028,-16.2269 L -2.92268,-16.1939
 L -3.0114,-16.1519 L -3.09557,-16.1015 L -3.17439,-16.043 L -3.24711,-15.9771 L -3.31301,-15.9044 L -3.37147,-15.8256
 L -3.42192,-15.7414 L -3.46388,-15.6527 L -3.49694,-15.5603 L -3.52079,-15.4651 L -3.53518,-15.368 L -3.54,-15.27
 L -3.53518,-15.172 L -3.52079,-15.0749 L -3.49694,-14.9797 L -3.46388,-14.8873 L -3.42192,-14.7986 L -3.37147,-14.7144
 L -3.31301,-14.6356 L -3.24711,-14.5629 L -3.17439,-14.497 L -3.09557,-14.4385 L -3.0114,-14.3881 L -2.92268,-14.3461
 L -2.83028,-14.3131 L -2.73509,-14.2892 L -2.63802,-14.2748 L -2.54,-14.27 z
M 20.418,-14.2748 L 20.5151,-14.2892 L 20.6103,-14.3131 L 20.7027,-14.3461 L 20.7914,-14.3881 L 20.8756,-14.4385
 L 20.9544,-14.497 L 21.0271,-14.5629 L 21.093,-14.6356 L 21.1515,-14.7144 L 21.2019,-14.7986 L 21.2439,-14.8873
 L 21.2769,-14.9797 L 21.3008,-15.0749 L 21.3152,-15.172 L 21.32,-15.27 L 21.3152,-15.368 L 21.3008,-15.4651
 L 21.2769,-15.5603 L 21.2439,-15.6527 L 21.2019,-15.7414 L 21.1515,-15.8256 L 21.093,-15.9044 L 21.0271,-15.9771
 L 20.9544,-16.043 L 20.8756,-16.1015 L 20.7914,-16.1519 L 20.7027,-16.1939 L 20.6103,-16.2269 L 20.5151,-16.2508
 L 20.418,-16.2652 L 20.32,-16.27 L 20.222,-16.2652 L 20.1249,-16.2508 L 20.0297,-16.2269 L 19.9373,-16.1939
 L 19.8486,-16.1519 L 19.7644,-16.1015 L 19.6856,-16.043 L 19.6129,-15.9771 L 19.547,-15.9044 L 19.4885,-15.8256
 L 19.4381,-15.7414 L 19.3961,-15.6527 L 19.3631,-15.5603 L 19.3392,-15.4651 L 19.3248,-15.368 L 19.32,-15.27
 L 19.3248,-15.172 L 19.3392,-15.0749 L 19.3631,-14.9797 L 19.3961,-14.8873 L 19.4381,-14.7986 L 19.4885,-14.7144
 L 19.547,-14.6356 L 19.6129,-14.5629 L 19.6856,-14.497 L 19.7644,-14.4385 L 19.8486,-14.3881 L 19.9373,-14.3461
 L 20.0297,-14.3131 L 20.1249,-14.2892 L 20.222,-14.2748 L 20.32,-14.27 z
M 17.878,-14.2748 L 17.9751,-14.2892 L 18.0703,-14.3131 L 18.1627,-14.3461 L 18.2514,-14.3881 L 18.3356,-14.4385
 L 18.4144,-14.497 L 18.4871,-14.5629 L 18.553,-14.6356 L 18.6115,-14.7144 L 18.6619,-14.7986 L 18.7039,-14.8873
 L 18.7369,-14.9797 L 18.7608,-15.0749 L 18.7752,-15.172 L 18.78,-15.27 L 18.7752,-15.368 L 18.7608,-15.4651
 L 18.7369,-15.5603 L 18.7039,-15.6527 L 18.6619,-15.7414 L 18.6115,-15.8256 L 18.553,-15.9044 L 18.4871,-15.9771
 L 18.4144,-16.043 L 18.3356,-16.1015 L 18.2514,-16.1519 L 18.1627,-16.1939 L 18.0703,-16.2269 L 17.9751,-16.2508
 L 17.878,-16.2652 L 17.78,-16.27 L 17.682,-16.2652 L 17.5849,-16.2508 L 17.4897,-16.2269 L 17.3973,-16.1939
 L 17.3086,-16.1519 L 17.2244,-16.1015 L 17.1456,-16.043 L 17.0729,-15.9771 L 17.007,-15.9044 L 16.9485,-15.8256
 L 16.8981,-15.7414 L 16.8561,-15.6527 L 16.8231,-15.5603 L 16.7992,-15.4651 L 16.7848,-15.368 L 16.78,-15.27
 L 16.7848,-15.172 L 16.7992,-15.0749 L 16.8231,-14.9797 L 16.8561,-14.8873 L 16.8981,-14.7986 L 16.9485,-14.7144
 L 17.007,-14.6356 L 17.0729,-14.5629 L 17.1456,-14.497 L 17.2244,-14.4385 L 17.3086,-14.3881 L 17.3973,-14.3461
 L 17.4897,-14.3131 L 17.5849,-14.2892 L 17.682,-14.2748 L 17.78,-14.27 z
M 2.63802,-14.2748 L 2.73509,-14.2892 L 2.83028,-14.3131 L 2.92268,-14.3461 L 3.0114,-14.3881 L 3.09557,-14.4385
 L 3.17439,-14.497 L 3.24711,-14.5629 L 3.31301,-14.6356 L 3.37147,-14.7144 L 3.42192,-14.7986 L 3.46388,-14.8873
 L 3.49694,-14.9797 L 3.52079,-15.0749 L 3.53518,-15.172 L 3.54,-15.27 L 3.53518,-15.368 L 3.52079,-15.4651
 L 3.49694,-15.5603 L 3.46388,-15.6527 L 3.42192,-15.7414 L 3.37147,-15.8256 L 3.31301,-15.9044 L 3.24711,-15.9771
 L 3.17439,-16.043 L 3.09557,-16.1015 L 3.0114,-16.1519 L 2.92268,-16.1939 L 2.83028,-16.2269 L 2.73509,-16.2508
 L 2.63802,-16.2652 L 2.54,-16.27 L 2.44198,-16.2652 L 2.34491,-16.2508 L 2.24972,-16.2269 L 2.15732,-16.1939
 L 2.0686,-16.1519 L 1.98443,-16.1015 L 1.90561,-16.043 L 1.83289,-15.9771 L 1.76699,-15.9044 L 1.70853,-15.8256
 L 1.65808,-15.7414 L 1.61612,-15.6527 L 1.58306,-15.5603 L 1.55921,-15.4651 L 1.54482,-15.368 L 1.54,-15.27
 L 1.54482,-15.172 L 1.55921,-15.0749 L 1.58306,-14.9797 L 1.61612,-14.8873 L 1.65808,-14.7986 L 1.70853,-14.7144
 L 1.76699,-14.6356 L 1.83289,-14.5629 L 1.90561,-14.497 L 1.98443,-14.4385 L 2.0686,-14.3881 L 2.15732,-14.3461
 L 2.24972,-14.3131 L 2.34491,-14.2892 L 2.44198,-14.2748 L 2.54,-14.27 z
M -20.222,-14.2748 L -20.1249,-14.2892 L -20.0297,-14.3131 L -19.9373,-14.3461 L -19.8486,-14.3881 L -19.7644,-14.4385
 L -19.6856,-14.497 L -19.6129,-14.5629 L -19.547,-14.6356 L -19.4885,-14.7144 L -19.4381,-14.7986 L -19.3961,-14.8873
 L -19.3631,-14.9797 L -19.3392,-15.0749 L -19.3248,-15.172 L -19.32,-15.27 L -19.3248,-15.368 L -19.3392,-15.4651
 L -19.3631,-15.5603 L -19.3961,-15.6527 L -19.4381,-15.7414 L -19.4885,-15.8256 L -19.547,-15.9044 L -19.6129,-15.9771
 L -19.6856,-16.043 L -19.7644,-16.1015 L -19.8486,-16.1519 L -19.9373,-16.1939 L -20.0297,-16.2269 L -20.1249,-16.2508
 L -20.222,-16.2652 L -20.32,-16.27 L -20.418,-16.2652 L -20.5151,-16.2508 L -20.6103,-16.2269 L -20.7027,-16.1939
 L -20.7914,-16.1519 L -20.8756,-16.1015 L -20.9544,-16.043 L -21.0271,-15.9771 L -21.093,-15.9044 L -21.1515,-15.8256
 L -21.2019,-15.7414 L -21.2439,-15.6527 L -21.2769,-15.5603 L -21.3008,-15.4651 L -21.3152,-15.368 L -21.32,-15.27
 L -21.3152,-15.172 L -21.3008,-15.0749 L -21.2769,-14.9797 L -21.2439,-14.8873 L -21.2019,-14.7986 L -21.1515,-14.7144
 L -21.093,-14.6356 L -21.0271,-14.5629 L -20.9544,-14.497 L -20.8756,-14.4385 L -20.7914,-14.3881 L -20.7027,-14.3461
 L -20.6103,-14.3131 L -20.5151,-14.2892 L -20.418,-14.2748 L -20.32,-14.27 z
M -17.682,-11.7348 L -17.5849,-11.7492 L -17.4897,-11.7731 L -17.3973,-11.8061 L -17.3086,-11.8481 L -17.2244,-11.8985
 L -17.1456,-11.957 L -17.0729,-12.0229 L -17.007,-12.0956 L -16.9485,-12.1744 L -16.8981,-12.2586 L -16.8561,-12.3473
 L -16.8231,-12.4397 L -16.7992,-12.5349 L -16.7848,-12.632 L -16.78,-12.73 L -16.7848,-12.828 L -16.7992,-12.9251
 L -16.8231,-13.0203 L -16.8561,-13.1127 L -16.8981,-13.2014 L -16.9485,-13.2856 L -17.007,-13.3644 L -17.0729,-13.4371
 L -17.1456,-13.503 L -17.2244,-13.5615 L -17.3086,-13.6119 L -17.3973,-13.6539 L -17.4897,-13.6869 L -17.5849,-13.7108
 L -17.682,-13.7252 L -17.78,-13.73 L -17.878,-13.7252 L -17.9751,-13.7108 L -18.0703,-13.6869 L -18.1627,-13.6539
 L -18.2514,-13.6119 L -18.3356,-13.5615 L -18.4144,-13.503 L -18.4871,-13.4371 L -18.553,-13.3644 L -18.6115,-13.2856
 L -18.6619,-13.2014 L -18.7039,-13.1127 L -18.7369,-13.0203 L -18.7608,-12.9251 L -18.7752,-12.828 L -18.78,-12.73
 L -18.7752,-12.632 L -18.7608,-12.5349 L -18.7369,-12.4397 L -18.7039,-12.3473 L -18.6619,-12.2586 L -18.6115,-12.1744
 L -18.553,-12.0956 L -18.4871,-12.0229 L -18.4144,-11.957 L -18.3356,-11.8985 L -18.2514,-11.8481 L -18.1627,-11.8061
 L -18.0703,-11.7731 L -17.9751,-11.7492 L -17.878,-11.7348 L -17.78,-11.73 z
M 17.878,-11.7348 L 17.9751,-11.7492 L 18.0703,-11.7731 L 18.1627,-11.8061 L 18.2514,-11.8481 L 18.3356,-11.8985
 L 18.4144,-11.957 L 18.4871,-12.0229 L 18.553,-12.0956 L 18.6115,-12.1744 L 18.6619,-12.2586 L 18.7039,-12.3473
 L 18.7369,-12.4397 L 18.7608,-12.5349 L 18.7752,-12.632 L 18.78,-12.73 L 18.7752,-12.828 L 18.7608,-12.9251
 L 18.7369,-13.0203 L 18.7039,-13.1127 L 18.6619,-13.2014 L 18.6115,-13.2856 L 18.553,-13.3644 L 18.4871,-13.4371
 L 18.4144,-13.503 L 18.3356,-13.5615 L 18.2514,-13.6119 L 18.1627,-13.6539 L 18.0703,-13.6869 L 17.9751,-13.7108
 L 17.878,-13.7252 L 17.78,-13.73 L 17.682,-13.7252 L 17.5849,-13.7108 L 17.4897,-13.6869 L 17.3973,-13.6539
 L 17.3086,-13.6119 L 17.2244,-13.5615 L 17.1456,-13.503 L 17.0729,-13.4371 L 17.007,-13.3644 L 16.9485,-13.2856
 L 16.8981,-13.2014 L 16.8561,-13.1127 L 16.8231,-13.0203 L 16.7992,-12.9251 L 16.7848,-12.828 L 16.78,-12.73
 L 16.7848,-12.632 L 16.7992,-12.5349 L 16.8231,-12.4397 L 16.8561,-12.3473 L 16.8981,-12.2586 L 16.9485,-12.1744
 L 17.007,-12.0956 L 17.0729,-12.0229 L 17.1456,-11.957 L 17.2244,-11.8985 L 17.3086,-11.8481 L 17.3973,-11.8061
 L 17.4897,-11.7731 L 17.5849,-11.7492 L 17.682,-11.7348 L 17.78,-11.73 z
M -17.682,-9.19482 L -17.5849,-9.20921 L -17.4897,-9.23306 L -17.3973,-9.26612 L -17.3086,-9.30808 L -17.2244,-9.35853
 L -17.1456,-9.41699 L -17.0729,-9.48289 L -17.007,-9.55561 L -16.9485,-9.63443 L -16.8981,-9.7186 L -16.8561,-9.80732
 L -16.8231,-9.89972 L -16.7992,-9.99491 L -16.7848,-10.092 L -16.78,-10.19 L -16.7848,-10.288 L -16.7992,-10.3851
 L -16.8231,-10.4803 L -16.8561,-10.5727 L -16.8981,-10.6614 L -16.9485,-10.7456 L -17.007,-10.8244 L -17.0729,-10.8971
 L -17.1456,-10.963 L -17.2244,-11.0215 L -17.3086,-11.0719 L -17.3973,-11.1139 L -17.4897,-11.1469 L -17.5849,-11.1708
 L -17.682,-11.1852 L -17.78,-11.19 L -17.878,-11.1852 L -17.9751,-11.1708 L -18.0703,-11.1469 L -18.1627,-11.1139
 L -18.2514,-11.0719 L -18.3356,-11.0215 L -18.4144,-10.963 L -18.4871,-10.8971 L -18.553,-10.8244 L -18.6115,-10.7456
 L -18.6619,-10.6614 L -18.7039,-10.5727 L -18.7369,-10.4803 L -18.7608,-10.3851 L -18.7752,-10.288 L -18.78,-10.19
 L -18.7752,-10.092 L -18.7608,-9.99491 L -18.7369,-9.89972 L -18.7039,-9.80732 L -18.6619,-9.7186 L -18.6115,-9.63443
 L -18.553,-9.55561 L -18.4871,-9.48289 L -18.4144,-9.41699 L -18.3356,-9.35853 L -18.2514,-9.30808 L -18.1627,-9.26612
 L -18.0703,-9.23306 L -17.9751,-9.20921 L -17.878,-9.19482 L -17.78,-9.19 z
M 17.878,-9.19482 L 17.9751,-9.20921 L 18.0703,-9.23306 L 18.1627,-9.26612 L 18.2514,-9.30808 L 18.3356,-9.35853
 L 18.4144,-9.41699 L 18.4871,-9.48289 L 18.553,-9.55561 L 18.6115,-9.63443 L 18.6619,-9.7186 L 18.7039,-9.80732
 L 18.7369,-9.89972 L 18.7608,-9.99491 L 18.7752,-10.092 L 18.78,-10.19 L 18.7752,-10.288 L 18.7608,-10.3851
 L 18.7369,-10.4803 L 18.7039,-10.5727 L 18.6619,-10.6614 L 18.6115,-10.7456 L 18.553,-10.8244 L 18.4871,-10.8971
 L 18.4144,-10.963 L 18.3356,-11.0215 L 18.2514,-11.0719 L 18.1627,-11.1139 L 18.0703,-11.1469 L 17.9751,-11.1708
 L 17.878,-11.1852 L 17.78,-11.19 L 17.682,-11.1852 L 17.5849,-11.1708 L 17.4897,-11.1469 L 17.3973,-11.1139
 L 17.3086,-11.0719 L 17.2244,-11.0215 L 17.1456,-10.963 L 17.0729,-10.8971 L 17.007,-10.8244 L 16.9485,-10.7456
 L 16.8981,-10.6614 L 16.8561,-10.5727 L 16.8231,-10.4803 L 16.7992,-10.3851 L 16.7848,-10.288 L 16.78,-10.19
 L 16.7848,-10.092 L 16.7992,-9.99491 L 16.8231,-9.89972 L 16.8561,-9.80732 L 16.8981,-9.7186 L 16.9485,-9.63443
 L 17.007,-9.55561 L 17.0729,-9.48289 L 17.1456,-9.41699 L 17.2244,-9.35853 L 17.3086,-9.30808 L 17.3973,-9.26612
 L 17.4897,-9.23306 L 17.5849,-9.20921 L 17.682,-9.19482 L 17.78,-9.19 z
M 17.878,-6.65482 L 17.9751,-6.66921 L 18.0703,-6.69306 L 18.1627,-6.72612 L 18.2514,-6.76808 L 18.3356,-6.81853
 L 18.4144,-6.87699 L 18.4871,-6.94289 L 18.553,-7.01561 L 18.6115,-7.09443 L 18.6619,-7.1786 L 18.7039,-7.26732
 L 18.7369,-7.35972 L 18.7608,-7.45491 L 18.7752,-7.55198 L 18.78,-7.65 L 18.7752,-7.74802 L 18.7608,-7.84509
 L 18.7369,-7.94028 L 18.7039,-8.03268 L 18.6619,-8.1214 L 18.6115,-8.20557 L 18.553,-8.28439 L 18.4871,-8.35711
 L 18.4144,-8.42301 L 18.3356,-8.48147 L 18.2514,-8.53192 L 18.1627,-8.57388 L 18.0703,-8.60694 L 17.9751,-8.63079
 L 17.878,-8.64518 L 17.78,-8.65 L 17.682,-8.64518 L 17.5849,-8.63079 L 17.4897,-8.60694 L 17.3973,-8.57388
 L 17.3086,-8.53192 L 17.2244,-8.48147 L 17.1456,-8.42301 L 17.0729,-8.35711 L 17.007,-8.28439 L 16.9485,-8.20557
 L 16.8981,-8.1214 L 16.8561,-8.03268 L 16.8231,-7.94028 L 16.7992,-7.84509 L 16.7848,-7.74802 L 16.78,-7.65
 L 16.7848,-7.55198 L 16.7992,-7.45491 L 16.8231,-7.35972 L 16.8561,-7.26732 L 16.8981,-7.1786 L 16.9485,-7.09443
 L 17.007,-7.01561 L 17.0729,-6.94289 L 17.1456,-6.87699 L 17.2244,-6.81853 L 17.3086,-6.76808 L 17.3973,-6.72612
 L 17.4897,-6.69306 L 17.5849,-6.66921 L 17.682,-6.65482 L 17.78,-6.65 z
M -17.682,-6.65482 L -17.5849,-6.66921 L -17.4897,-6.69306 L -17.3973,-6.72612 L -17.3086,-6.76808 L -17.2244,-6.81853
 L -17.1456,-6.87699 L -17.0729,-6.94289 L -17.007,-7.01561 L -16.9485,-7.09443 L -16.8981,-7.1786 L -16.8561,-7.26732
 L -16.8231,-7.35972 L -16.7992,-7.45491 L -16.7848,-7.55198 L -16.78,-7.65 L -16.7848,-7.74802 L -16.7992,-7.84509
 L -16.8231,-7.94028 L -16.8561,-8.03268 L -16.8981,-8.1214 L -16.9485,-8.20557 L -17.007,-8.28439 L -17.0729,-8.35711
 L -17.1456,-8.42301 L -17.2244,-8.48147 L -17.3086,-8.53192 L -17.3973,-8.57388 L -17.4897,-8.60694 L -17.5849,-8.63079
 L -17.682,-8.64518 L -17.78,-8.65 L -17.878,-8.64518 L -17.9751,-8.63079 L -18.0703,-8.60694 L -18.1627,-8.57388
 L -18.2514,-8.53192 L -18.3356,-8.48147 L -18.4144,-8.42301 L -18.4871,-8.35711 L -18.553,-8.28439 L -18.6115,-8.20557
 L -18.6619,-8.1214 L -18.7039,-8.03268 L -18.7369,-7.94028 L -18.7608,-7.84509 L -18.7752,-7.74802 L -18.78,-7.65
 L -18.7752,-7.55198 L -18.7608,-7.45491 L -18.7369,-7.35972 L -18.7039,-7.26732 L -18.6619,-7.1786 L -18.6115,-7.09443
 L -18.553,-7.01561 L -18.4871,-6.94289 L -18.4144,-6.87699 L -18.3356,-6.81853 L -18.2514,-6.76808 L -18.1627,-6.72612
 L -18.0703,-6.69306 L -17.9751,-6.66921 L -17.878,-6.65482 L -17.78,-6.65 z
M -20.222,-6.65482 L -20.1249,-6.66921 L -20.0297,-6.69306 L -19.9373,-6.72612 L -19.8486,-6.76808 L -19.7644,-6.81853
 L -19.6856,-6.87699 L -19.6129,-6.94289 L -19.547,-7.01561 L -19.4885,-7.09443 L -19.4381,-7.1786 L -19.3961,-7.26732
 L -19.3631,-7.35972 L -19.3392,-7.45491 L -19.3248,-7.55198 L -19.32,-7.65 L -19.3248,-7.74802 L -19.3392,-7.84509
 L -19.3631,-7.94028 L -19.3961,-8.03268 L -19.4381,-8.1214 L -19.4885,-8.20557 L -19.547,-8.28439 L -19.6129,-8.35711
 L -19.6856,-8.42301 L -19.7644,-8.48147 L -19.8486,-8.53192 L -19.9373,-8.57388 L -20.0297,-8.60694 L -20.1249,-8.63079
 L -20.222,-8.64518 L -20.32,-8.65 L -20.418,-8.64518 L -20.5151,-8.63079 L -20.6103,-8.60694 L -20.7027,-8.57388
 L -20.7914,-8.53192 L -20.8756,-8.48147 L -20.9544,-8.42301 L -21.0271,-8.35711 L -21.093,-8.28439 L -21.1515,-8.20557
 L -21.2019,-8.1214 L -21.2439,-8.03268 L -21.2769,-7.94028 L -21.3008,-7.84509 L -21.3152,-7.74802 L -21.32,-7.65
 L -21.3152,-7.55198 L -21.3008,-7.45491 L -21.2769,-7.35972 L -21.2439,-7.26732 L -21.2019,-7.1786 L -21.1515,-7.09443
 L -21.093,-7.01561 L -21.0271,-6.94289 L -20.9544,-6.87699 L -20.8756,-6.81853 L -20.7914,-6.76808 L -20.7027,-6.72612
 L -20.6103,-6.69306 L -20.5151,-6.66921 L -20.418,-6.65482 L -20.32,-6.65 z
M -17.682,-4.11482 L -17.5849,-4.12921 L -17.4897,-4.15306 L -17.3973,-4.18612 L -17.3086,-4.22808 L -17.2244,-4.27853
 L -17.1456,-4.33699 L -17.0729,-4.40289 L -17.007,-4.47561 L -16.9485,-4.55443 L -16.8981,-4.6386 L -16.8561,-4.72732
 L -16.8231,-4.81972 L -16.7992,-4.91491 L -16.7848,-5.01198 L -16.78,-5.11 L -16.7848,-5.20802 L -16.7992,-5.30509
 L -16.8231,-5.40028 L -16.8561,-5.49268 L -16.8981,-5.5814 L -16.9485,-5.66557 L -17.007,-5.74439 L -17.0729,-5.81711
 L -17.1456,-5.88301 L -17.2244,-5.94147 L -17.3086,-5.99192 L -17.3973,-6.03388 L -17.4897,-6.06694 L -17.5849,-6.09079
 L -17.682,-6.10518 L -17.78,-6.11 L -17.878,-6.10518 L -17.9751,-6.09079 L -18.0703,-6.06694 L -18.1627,-6.03388
 L -18.2514,-5.99192 L -18.3356,-5.94147 L -18.4144,-5.88301 L -18.4871,-5.81711 L -18.553,-5.74439 L -18.6115,-5.66557
 L -18.6619,-5.5814 L -18.7039,-5.49268 L -18.7369,-5.40028 L -18.7608,-5.30509 L -18.7752,-5.20802 L -18.78,-5.11
 L -18.7752,-5.01198 L -18.7608,-4.91491 L -18.7369,-4.81972 L -18.7039,-4.72732 L -18.6619,-4.6386 L -18.6115,-4.55443
 L -18.553,-4.47561 L -18.4871,-4.40289 L -18.4144,-4.33699 L -18.3356,-4.27853 L -18.2514,-4.22808 L -18.1627,-4.18612
 L -18.0703,-4.15306 L -17.9751,-4.12921 L -17.878,-4.11482 L -17.78,-4.11 z
M 20.418,-4.11482 L 20.5151,-4.12921 L 20.6103,-4.15306 L 20.7027,-4.18612 L 20.7914,-4.22808 L 20.8756,-4.27853
 L 20.9544,-4.33699 L 21.0271,-4.40289 L 21.093,-4.47561 L 21.1515,-4.55443 L 21.2019,-4.6386 L 21.2439,-4.72732
 L 21.2769,-4.81972 L 21.3008,-4.91491 L 21.3152,-5.01198 L 21.32,-5.11 L 21.3152,-5.20802 L 21.3008,-5.30509
 L 21.2769,-5.40028 L 21.2439,-5.49268 L 21.2019,-5.5814 L 21.1515,-5.66557 L 21.093,-5.74439 L 21.0271,-5.81711
 L 20.9544,-5.88301 L 20.8756,-5.94147 L 20.7914,-5.99192 L 20.7027,-6.03388 L 20.6103,-6.06694 L 20.5151,-6.09079
 L 20.418,-6.10518 L 20.32,-6.11 L 20.222,-6.10518 L 20.1249,-6.09079 L 20.0297,-6.06694 L 19.9373,-6.03388
 L 19.8486,-5.99192 L 19.7644,-5.94147 L 19.6856,-5.88301 L 19.6129,-5.81711 L 19.547,-5.74439 L 19.4885,-5.66557
 L 19.4381,-5.5814 L 19.3961,-5.49268 L 19.3631,-5.40028 L 19.3392,-5.30509 L 19.3248,-5.20802 L 19.32,-5.11
 L 19.3248,-5.01198 L 19.3392,-4.91491 L 19.3631,-4.81972 L 19.3961,-4.72732 L 19.4381,-4.6386 L 19.4885,-4.55443
 L 19.547,-4.47561 L 19.6129,-4.40289 L 19.6856,-4.33699 L 19.7644,-4.27853 L 19.8486,-4.22808 L 19.9373,-4.18612
 L 20.0297,-4.15306 L 20.1249,-4.12921 L 20.222,-4.11482 L 20.32,-4.11 z
M 17.878,-4.11482 L 17.9751,-4.12921 L 18.0703,-4.15306 L 18.1627,-4.18612 L 18.2514,-4.22808 L 18.3356,-4.27853
 L 18.4144,-4.33699 L 18.4871,-4.40289 L 18.553,-4.47561 L 18.6115,-4.55443 L 18.6619,-4.6386 L 18.7039,-4.72732
 L 18.7369,-4.81972 L 18.7608,-4.91491 L 18.7752,-5.01198 L 18.78,-5.11 L 18.7752,-5.20802 L 18.7608,-5.30509
 L 18.7369,-5.40028 L 18.7039,-5.49268 L 18.6619,-5.5814 L 18.6115,-5.66557 L 18.553,-5.74439 L 18.4871,-5.81711
 L 18.4144,-5.88301 L 18.3356,-5.94147 L 18.2514,-5.99192 L 18.1627,-6.03388 L 18.0703,-6.06694 L 17.9751,-6.09079
 L 17.878,-6.10518 L 17.78,-6.11 L 17.682,-6.10518 L 17.5849,-6.09079 L 17.4897,-6.06694 L 17.3973,-6.03388
 L 17.3086,-5.99192 L 17.2244,-5.94147 L 17.1456,-5.88301 L 17.0729,-5.81711 L 17.007,-5.74439 L 16.9485,-5.66557
 L 16.8981,-5.5814 L 16.8561,-5.49268 L 16.8231,-5.40028 L 16.7992,-5.30509 L 16.7848,-5.20802 L 16.78,-5.11
 L 16.7848,-5.01198 L 16.7992,-4.91491 L 16.8231,-4.81972 L 16.8561,-4.72732 L 16.8981,-4.6386 L 16.9485,-4.55443
 L 17.007,-4.47561 L 17.0729,-4.40289 L 17.1456,-4.33699 L 17.2244,-4.27853 L 17.3086,-4.22808 L 17.3973,-4.18612
 L 17.4897,-4.15306 L 17.5849,-4.12921 L 17.682,-4.11482 L 17.78,-4.11 z
M -20.222,-1.57482 L -20.1249,-1.58921 L -20.0297,-1.61306 L -19.9373,-1.64612 L -19.8486,-1.68808 L -19.7644,-1.73853
 L -19.6856,-1.79699 L -19.6129,-1.86289 L -19.547,-1.93561 L -19.4885,-2.01443 L -19.4381,-2.0986 L -19.3961,-2.18732
 L -19.3631,-2.27972 L -19.3392,-2.37491 L -19.3248,-2.47198 L -19.32,-2.57 L -19.3248,-2.66802 L -19.3392,-2.76509
 L -19.3631,-2.86028 L -19.3961,-2.95268 L -19.4381,-3.0414 L -19.4885,-3.12557 L -19.547,-3.20439 L -19.6129,-3.27711
 L -19.6856,-3.34301 L -19.7644,-3.40147 L -19.8486,-3.45192 L -19.9373,-3.49388 L -20.0297,-3.52694 L -20.1249,-3.55079
 L -20.222,-3.56518 L -20.32,-3.57 L -20.418,-3.56518 L -20.5151,-3.55079 L -20.6103,-3.52694 L -20.7027,-3.49388
 L -20.7914,-3.45192 L -20.8756,-3.40147 L -20.9544,-3.34301 L -21.0271,-3.27711 L -21.093,-3.20439 L -21.1515,-3.12557
 L -21.2019,-3.0414 L -21.2439,-2.95268 L -21.2769,-2.86028 L -21.3008,-2.76509 L -21.3152,-2.66802 L -21.32,-2.57
 L -21.3152,-2.47198 L -21.3008,-2.37491 L -21.2769,-2.27972 L -21.2439,-2.18732 L -21.2019,-2.0986 L -21.1515,-2.01443
 L -21.093,-1.93561 L -21.0271,-1.86289 L -20.9544,-1.79699 L -20.8756,-1.73853 L -20.7914,-1.68808 L -20.7027,-1.64612
 L -20.6103,-1.61306 L -20.5151,-1.58921 L -20.418,-1.57482 L -20.32,-1.57 z
M -17.682,-1.57482 L -17.5849,-1.58921 L -17.4897,-1.61306 L -17.3973,-1.64612 L -17.3086,-1.68808 L -17.2244,-1.73853
 L -17.1456,-1.79699 L -17.0729,-1.86289 L -17.007,-1.93561 L -16.9485,-2.01443 L -16.8981,-2.0986 L -16.8561,-2.18732
 L -16.8231,-2.27972 L -16.7992,-2.37491 L -16.7848,-2.47198 L -16.78,-2.57 L -16.7848,-2.66802 L -16.7992,-2.76509
 L -16.8231,-2.86028 L -16.8561,-2.95268 L -16.8981,-3.0414 L -16.9485,-3.12557 L -17.007,-3.20439 L -17.0729,-3.27711
 L -17.1456,-3.34301 L -17.2244,-3.40147 L -17.3086,-3.45192 L -17.3973,-3.49388 L -17.4897,-3.52694 L -17.5849,-3.55079
 L -17.682,-3.56518 L -17.78,-3.57 L -17.878,-3.56518 L -17.9751,-3.55079 L -18.0703,-3.52694 L -18.1627,-3.49388
 L -18.2514,-3.45192 L -18.3356,-3.40147 L -18.4144,-3.34301 L -18.4871,-3.27711 L -18.553,-3.20439 L -18.6115,-3.12557
 L -18.6619,-3.0414 L -18.7039,-2.95268 L -18.7369,-2.86028 L -18.7608,-2.76509 L -18.7752,-2.66802 L -18.78,-2.57
 L -18.7752,-2.47198 L -18.7608,-2.37491 L -18.7369,-2.27972 L -18.7039,-2.18732 L -18.6619,-2.0986 L -18.6115,-2.01443
 L -18.553,-1.93561 L -18.4871,-1.86289 L -18.4144,-1.79699 L -18.3356,-1.73853 L -18.2514,-1.68808 L -18.1627,-1.64612
 L -18.0703,-1.61306 L -17.9751,-1.58921 L -17.878,-1.57482 L -17.78,-1.57 z
M 15.598,2.69518 L 15.6951,2.68079 L 15.7903,2.65694 L 15.8827,2.62388 L 15.9714,2.58192 L 16.0556,2.53147
 L 16.1344,2.47301 L 16.2071,2.40711 L 16.273,2.33439 L 16.3315,2.25557 L 16.3819,2.1714 L 16.4239,2.08268
 L 16.4569,1.99028 L 16.4808,1.89509 L 16.4952,1.79802 L 16.5,1.7 L 16.4952,1.60198 L 16.4808,1.50491
 L 16.4569,1.40972 L 16.4239,1.31732 L 16.3819,1.2286 L 16.3315,1.14443 L 16.273,1.06561 L 16.2071,0.992893
 L 16.1344,0.92699 L 16.0556,0.86853 L 15.9714,0.818079 L 15.8827,0.77612 L 15.7903,0.74306 L 15.6951,0.719215
 L 15.598,0.704815 L 15.5,0.7 L 15.402,0.704815 L 15.3049,0.719215 L 15.2097,0.74306 L 15.1173,0.77612
 L 15.0286,0.818079 L 14.9444,0.86853 L 14.8656,0.92699 L 14.7929,0.992893 L 14.727,1.06561 L 14.6685,1.14443
 L 14.6181,1.2286 L 14.5761,1.31732 L 14.5431,1.40972 L 14.5192,1.50491 L 14.5048,1.60198 L 14.5,1.7
 L 14.5048,1.79802 L 14.5192,1.89509 L 14.5431,1.99028 L 14.5761,2.08268 L 14.6181,2.1714 L 14.6685,2.25557
 L 14.727,2.33439 L 14.7929,2.40711 L 14.8656,2.47301 L 14.9444,2.53147 L 15.0286,2.58192 L 15.1173,2.62388
 L 15.2097,2.65694 L 15.3049,2.68079 L 15.402,2.69518 L 15.5,2.7 z
M 18.098,2.69518 L 18.1951,2.68079 L 18.2903,2.65694 L 18.3827,2.62388 L 18.4714,2.58192 L 18.5556,2.53147
 L 18.6344,2.47301 L 18.7071,2.40711 L 18.773,2.33439 L 18.8315,2.25557 L 18.8819,2.1714 L 18.9239,2.08268
 L 18.9569,1.99028 L 18.9808,1.89509 L 18.9952,1.79802 L 19,1.7 L 18.9952,1.60198 L 18.9808,1.50491
 L 18.9569,1.40972 L 18.9239,1.31732 L 18.8819,1.2286 L 18.8315,1.14443 L 18.773,1.06561 L 18.7071,0.992893
 L 18.6344,0.92699 L 18.5556,0.86853 L 18.4714,0.818079 L 18.3827,0.77612 L 18.2903,0.74306 L 18.1951,0.719215
 L 18.098,0.704815 L 18,0.7 L 17.902,0.704815 L 17.8049,0.719215 L 17.7097,0.74306 L 17.6173,0.77612
 L 17.5286,0.818079 L 17.4444,0.86853 L 17.3656,0.92699 L 17.2929,0.992893 L 17.227,1.06561 L 17.1685,1.14443
 L 17.1181,1.2286 L 17.0761,1.31732 L 17.0431,1.40972 L 17.0192,1.50491 L 17.0048,1.60198 L 17,1.7
 L 17.0048,1.79802 L 17.0192,1.89509 L 17.0431,1.99028 L 17.0761,2.08268 L 17.1181,2.1714 L 17.1685,2.25557
 L 17.227,2.33439 L 17.2929,2.40711 L 17.3656,2.47301 L 17.4444,2.53147 L 17.5286,2.58192 L 17.6173,2.62388
 L 17.7097,2.65694 L 17.8049,2.68079 L 17.902,2.69518 L 18,2.7 z
M 20.598,2.69518 L 20.6951,2.68079 L 20.7903,2.65694 L 20.8827,2.62388 L 20.9714,2.58192 L 21.0556,2.53147
 L 21.1344,2.47301 L 21.2071,2.40711 L 21.273,2.33439 L 21.3315,2.25557 L 21.3819,2.1714 L 21.4239,2.08268
 L 21.4569,1.99028 L 21.4808,1.89509 L 21.4952,1.79802 L 21.5,1.7 L 21.4952,1.60198 L 21.4808,1.50491
 L 21.4569,1.40972 L 21.4239,1.31732 L 21.3819,1.2286 L 21.3315,1.14443 L 21.273,1.06561 L 21.2071,0.992893
 L 21.1344,0.92699 L 21.0556,0.86853 L 20.9714,0.818079 L 20.8827,0.77612 L 20.7903,0.74306 L 20.6951,0.719215
 L 20.598,0.704815 L 20.5,0.7 L 20.402,0.704815 L 20.3049,0.719215 L 20.2097,0.74306 L 20.1173,0.77612
 L 20.0286,0.818079 L 19.9444,0.86853 L 19.8656,0.92699 L 19.7929,0.992893 L 19.727,1.06561 L 19.6685,1.14443
 L 19.6181,1.2286 L 19.5761,1.31732 L 19.5431,1.40972 L 19.5192,1.50491 L 19.5048,1.60198 L 19.5,1.7
 L 19.5048,1.79802 L 19.5192,1.89509 L 19.5431,1.99028 L 19.5761,2.08268 L 19.6181,2.1714 L 19.6685,2.25557
 L 19.727,2.33439 L 19.7929,2.40711 L 19.8656,2.47301 L 19.9444,2.53147 L 20.0286,2.58192 L 20.1173,2.62388
 L 20.2097,2.65694 L 20.3049,2.68079 L 20.402,2.69518 L 20.5,2.7 z
M 12.998,6.89518 L 13.0951,6.88079 L 13.1903,6.85694 L 13.2827,6.82388 L 13.3714,6.78192 L 13.4556,6.73147
 L 13.5344,6.67301 L 13.6071,6.60711 L 13.673,6.53439 L 13.7315,6.45557 L 13.7819,6.3714 L 13.8239,6.28268
 L 13.8569,6.19028 L 13.8808,6.09509 L 13.8952,5.99802 L 13.9,5.9 L 13.8952,5.80198 L 13.8808,5.70491
 L 13.8569,5.60972 L 13.8239,5.51732 L 13.7819,5.4286 L 13.7315,5.34443 L 13.673,5.26561 L 13.6071,5.19289
 L 13.5344,5.12699 L 13.4556,5.06853 L 13.3714,5.01808 L 13.2827,4.97612 L 13.1903,4.94306 L 13.0951,4.91921
 L 12.998,4.90482 L 12.9,4.9 L 12.802,4.90482 L 12.7049,4.91921 L 12.6097,4.94306 L 12.5173,4.97612
 L 12.4286,5.01808 L 12.3444,5.06853 L 12.2656,5.12699 L 12.1929,5.19289 L 12.127,5.26561 L 12.0685,5.34443
 L 12.0181,5.4286 L 11.9761,5.51732 L 11.9431,5.60972 L 11.9192,5.70491 L 11.9048,5.80198 L 11.9,5.9
 L 11.9048,5.99802 L 11.9192,6.09509 L 11.9431,6.19028 L 11.9761,6.28268 L 12.0181,6.3714 L 12.0685,6.45557
 L 12.127,6.53439 L 12.1929,6.60711 L 12.2656,6.67301 L 12.3444,6.73147 L 12.4286,6.78192 L 12.5173,6.82388
 L 12.6097,6.85694 L 12.7049,6.88079 L 12.802,6.89518 L 12.9,6.9 z
M 12.998,9.43518 L 13.0951,9.42079 L 13.1903,9.39694 L 13.2827,9.36388 L 13.3714,9.32192 L 13.4556,9.27147
 L 13.5344,9.21301 L 13.6071,9.14711 L 13.673,9.07439 L 13.7315,8.99557 L 13.7819,8.9114 L 13.8239,8.82268
 L 13.8569,8.73028 L 13.8808,8.63509 L 13.8952,8.53802 L 13.9,8.44 L 13.8952,8.34198 L 13.8808,8.24491
 L 13.8569,8.14972 L 13.8239,8.05732 L 13.7819,7.9686 L 13.7315,7.88443 L 13.673,7.80561 L 13.6071,7.73289
 L 13.5344,7.66699 L 13.4556,7.60853 L 13.3714,7.55808 L 13.2827,7.51612 L 13.1903,7.48306 L 13.0951,7.45921
 L 12.998,7.44482 L 12.9,7.44 L 12.802,7.44482 L 12.7049,7.45921 L 12.6097,7.48306 L 12.5173,7.51612
 L 12.4286,7.55808 L 12.3444,7.60853 L 12.2656,7.66699 L 12.1929,7.73289 L 12.127,7.80561 L 12.0685,7.88443
 L 12.0181,7.9686 L 11.9761,8.05732 L 11.9431,8.14972 L 11.9192,8.24491 L 11.9048,8.34198 L 11.9,8.44
 L 11.9048,8.53802 L 11.9192,8.63509 L 11.9431,8.73028 L 11.9761,8.82268 L 12.0181,8.9114 L 12.0685,8.99557
 L 12.127,9.07439 L 12.1929,9.14711 L 12.2656,9.21301 L 12.3444,9.27147 L 12.4286,9.32192 L 12.5173,9.36388
 L 12.6097,9.39694 L 12.7049,9.42079 L 12.802,9.43518 L 12.9,9.44 z
M 15.598,9.49518 L 15.6951,9.48079 L 15.7903,9.45694 L 15.8827,9.42388 L 15.9714,9.38192 L 16.0556,9.33147
 L 16.1344,9.27301 L 16.2071,9.20711 L 16.273,9.13439 L 16.3315,9.05557 L 16.3819,8.9714 L 16.4239,8.88268
 L 16.4569,8.79028 L 16.4808,8.69509 L 16.4952,8.59802 L 16.5,8.5 L 16.4952,8.40198 L 16.4808,8.30491
 L 16.4569,8.20972 L 16.4239,8.11732 L 16.3819,8.0286 L 16.3315,7.94443 L 16.273,7.86561 L 16.2071,7.79289
 L 16.1344,7.72699 L 16.0556,7.66853 L 15.9714,7.61808 L 15.8827,7.57612 L 15.7903,7.54306 L 15.6951,7.51921
 L 15.598,7.50482 L 15.5,7.5 L 15.402,7.50482 L 15.3049,7.51921 L 15.2097,7.54306 L 15.1173,7.57612
 L 15.0286,7.61808 L 14.9444,7.66853 L 14.8656,7.72699 L 14.7929,7.79289 L 14.727,7.86561 L 14.6685,7.94443
 L 14.6181,8.0286 L 14.5761,8.11732 L 14.5431,8.20972 L 14.5192,8.30491 L 14.5048,8.40198 L 14.5,8.5
 L 14.5048,8.59802 L 14.5192,8.69509 L 14.5431,8.79028 L 14.5761,8.88268 L 14.6181,8.9714 L 14.6685,9.05557
 L 14.727,9.13439 L 14.7929,9.20711 L 14.8656,9.27301 L 14.9444,9.33147 L 15.0286,9.38192 L 15.1173,9.42388
 L 15.2097,9.45694 L 15.3049,9.48079 L 15.402,9.49518 L 15.5,9.5 z
M 20.598,9.49518 L 20.6951,9.48079 L 20.7903,9.45694 L 20.8827,9.42388 L 20.9714,9.38192 L 21.0556,9.33147
 L 21.1344,9.27301 L 21.2071,9.20711 L 21.273,9.13439 L 21.3315,9.05557 L 21.3819,8.9714 L 21.4239,8.88268
 L 21.4569,8.79028 L 21.4808,8.69509 L 21.4952,8.59802 L 21.5,8.5 L 21.4952,8.40198 L 21.4808,8.30491
 L 21.4569,8.20972 L 21.4239,8.11732 L 21.3819,8.0286 L 21.3315,7.94443 L 21.273,7.86561 L 21.2071,7.79289
 L 21.1344,7.72699 L 21.0556,7.66853 L 20.9714,7.61808 L 20.8827,7.57612 L 20.7903,7.54306 L 20.6951,7.51921
 L 20.598,7.50482 L 20.5,7.5 L 20.402,7.50482 L 20.3049,7.51921 L 20.2097,7.54306 L 20.1173,7.57612
 L 20.0286,7.61808 L 19.9444,7.66853 L 19.8656,7.72699 L 19.7929,7.79289 L 19.727,7.86561 L 19.6685,7.94443
 L 19.6181,8.0286 L 19.5761,8.11732 L 19.5431,8.20972 L 19.5192,8.30491 L 19.5048,8.40198 L 19.5,8.5
 L 19.5048,8.59802 L 19.5192,8.69509 L 19.5431,8.79028 L 19.5761,8.88268 L 19.6181,8.9714 L 19.6685,9.05557
 L 19.727,9.13439 L 19.7929,9.20711 L 19.8656,9.27301 L 19.9444,9.33147 L 20.0286,9.38192 L 20.1173,9.42388
 L 20.2097,9.45694 L 20.3049,9.48079 L 20.402,9.49518 L 20.5,9.5 z
M 21.978,14.8452 L 22.0751,14.8308 L 22.1703,14.8069 L 22.2627,14.7739 L 22.3514,14.7319 L 22.4356,14.6815
 L 22.5144,14.623 L 22.5871,14.5571 L 22.653,14.4844 L 22.7115,14.4056 L 22.7619,14.3214 L 22.8039,14.2327
 L 22.8369,14.1403 L 22.8608,14.0451 L 22.8752,13.948 L 22.88,13.85 L 22.8752,13.752 L 22.8608,13.6549
 L 22.8369,13.5597 L 22.8039,13.4673 L 22.7619,13.3786 L 22.7115,13.2944 L 22.653,13.2156 L 22.5871,13.1429
 L 22.5144,13.077 L 22.4356,13.0185 L 22.3514,12.9681 L 22.2627,12.9261 L 22.1703,12.8931 L 22.0751,12.8692
 L 21.978,12.8548 L 21.88,12.85 L 21.782,12.8548 L 21.6849,12.8692 L 21.5897,12.8931 L 21.4973,12.9261
 L 21.4086,12.9681 L 21.3244,13.0185 L 21.2456,13.077 L 21.1729,13.1429 L 21.107,13.2156 L 21.0485,13.2944
 L 20.9981,13.3786 L 20.9561,13.4673 L 20.9231,13.5597 L 20.8992,13.6549 L 20.8848,13.752 L 20.88,13.85
 L 20.8848,13.948 L 20.8992,14.0451 L 20.9231,14.1403 L 20.9561,14.2327 L 20.9981,14.3214 L 21.0485,14.4056
 L 21.107,14.4844 L 21.1729,14.5571 L 21.2456,14.623 L 21.3244,14.6815 L 21.4086,14.7319 L 21.4973,14.7739
 L 21.5897,14.8069 L 21.6849,14.8308 L 21.782,14.8452 L 21.88,14.85 z
M 21.978,17.8452 L 22.0751,17.8308 L 22.1703,17.8069 L 22.2627,17.7739 L 22.3514,17.7319 L 22.4356,17.6815
 L 22.5144,17.623 L 22.5871,17.5571 L 22.653,17.4844 L 22.7115,17.4056 L 22.7619,17.3214 L 22.8039,17.2327
 L 22.8369,17.1403 L 22.8608,17.0451 L 22.8752,16.948 L 22.88,16.85 L 22.8752,16.752 L 22.8608,16.6549
 L 22.8369,16.5597 L 22.8039,16.4673 L 22.7619,16.3786 L 22.7115,16.2944 L 22.653,16.2156 L 22.5871,16.1429
 L 22.5144,16.077 L 22.4356,16.0185 L 22.3514,15.9681 L 22.2627,15.9261 L 22.1703,15.8931 L 22.0751,15.8692
 L 21.978,15.8548 L 21.88,15.85 L 21.782,15.8548 L 21.6849,15.8692 L 21.5897,15.8931 L 21.4973,15.9261
 L 21.4086,15.9681 L 21.3244,16.0185 L 21.2456,16.077 L 21.1729,16.1429 L 21.107,16.2156 L 21.0485,16.2944
 L 20.9981,16.3786 L 20.9561,16.4673 L 20.9231,16.5597 L 20.8992,16.6549 L 20.8848,16.752 L 20.88,16.85
 L 20.8848,16.948 L 20.8992,17.0451 L 20.9231,17.1403 L 20.9561,17.2327 L 20.9981,17.3214 L 21.0485,17.4056
 L 21.107,17.4844 L 21.1729,17.5571 L 21.2456,17.623 L 21.3244,17.6815 L 21.4086,17.7319 L 21.4973,17.7739
 L 21.5897,17.8069 L 21.6849,17.8308 L 21.782,17.8452 L 21.88,17.85 z
M 15.798,20.3452 L 15.8951,20.3308 L 15.9903,20.3069 L 16.0827,20.2739 L 16.1714,20.2319 L 16.2556,20.1815
 L 16.3344,20.123 L 16.4071,20.0571 L 16.473,19.9844 L 16.5315,19.9056 L 16.5819,19.8214 L 16.6239,19.7327
 L 16.6569,19.6403 L 16.6808,19.5451 L 16.6952,19.448 L 16.7,19.35 L 16.6952,19.252 L 16.6808,19.1549
 L 16.6569,19.0597 L 16.6239,18.9673 L 16.5819,18.8786 L 16.5315,18.7944 L 16.473,18.7156 L 16.4071,18.6429
 L 16.3344,18.577 L 16.2556,18.5185 L 16.1714,18.4681 L 16.0827,18.4261 L 15.9903,18.3931 L 15.8951,18.3692
 L 15.798,18.3548 L 15.7,18.35 L 15.602,18.3548 L 15.5049,18.3692 L 15.4097,18.3931 L 15.3173,18.4261
 L 15.2286,18.4681 L 15.1444,18.5185 L 15.0656,18.577 L 14.9929,18.6429 L 14.927,18.7156 L 14.8685,18.7944
 L 14.8181,18.8786 L 14.7761,18.9673 L 14.7431,19.0597 L 14.7192,19.1549 L 14.7048,19.252 L 14.7,19.35
 L 14.7048,19.448 L 14.7192,19.5451 L 14.7431,19.6403 L 14.7761,19.7327 L 14.8181,19.8214 L 14.8685,19.9056
 L 14.927,19.9844 L 14.9929,20.0571 L 15.0656,20.123 L 15.1444,20.1815 L 15.2286,20.2319 L 15.3173,20.2739
 L 15.4097,20.3069 L 15.5049,20.3308 L 15.602,20.3452 L 15.7,20.35 z
M 1.39802,33.0952 L 1.49509,33.0808 L 1.59028,33.0569 L 1.68268,33.0239 L 1.7714,32.9819 L 1.85557,32.9315
 L 1.93439,32.873 L 2.00711,32.8071 L 2.07301,32.7344 L 2.13147,32.6556 L 2.18192,32.5714 L 2.22388,32.4827
 L 2.25694,32.3903 L 2.28079,32.2951 L 2.29518,32.198 L 2.3,32.1 L 2.29518,32.002 L 2.28079,31.9049
 L 2.25694,31.8097 L 2.22388,31.7173 L 2.18192,31.6286 L 2.13147,31.5444 L 2.07301,31.4656 L 2.00711,31.3929
 L 1.93439,31.327 L 1.85557,31.2685 L 1.7714,31.2181 L 1.68268,31.1761 L 1.59028,31.1431 L 1.49509,31.1192
 L 1.39802,31.1048 L 1.3,31.1 L 1.20198,31.1048 L 1.10491,31.1192 L 1.00972,31.1431 L 0.917317,31.1761
 L 0.828603,31.2181 L 0.74443,31.2685 L 0.665607,31.327 L 0.592893,31.3929 L 0.52699,31.4656 L 0.46853,31.5444
 L 0.418079,31.6286 L 0.37612,31.7173 L 0.34306,31.8097 L 0.319215,31.9049 L 0.304815,32.002 L 0.3,32.1
 L 0.304815,32.198 L 0.319215,32.2951 L 0.34306,32.3903 L 0.37612,32.4827 L 0.418079,32.5714 L 0.46853,32.6556
 L 0.52699,32.7344 L 0.592893,32.8071 L 0.665607,32.873 L 0.74443,32.9315 L 0.828603,32.9819 L 0.917317,33.0239
 L 1.00972,33.0569 L 1.10491,33.0808 L 1.20198,33.0952 L 1.3,33.1 z
M -0.701983,33.0952 L -0.60491,33.0808 L -0.509715,33.0569 L -0.417317,33.0239 L -0.328603,32.9819 L -0.24443,32.9315
 L -0.165607,32.873 L -0.0928932,32.8071 L -0.0269895,32.7344 L 0.0314696,32.6556 L 0.0819213,32.5714 L 0.12388,32.4827
 L 0.15694,32.3903 L 0.180785,32.2951 L 0.195185,32.198 L 0.2,32.1 L 0.195185,32.002 L 0.180785,31.9049
 L 0.15694,31.8097 L 0.12388,31.7173 L 0.0819213,31.6286 L 0.0314696,31.5444 L -0.0269895,31.4656 L -0.0928932,31.3929
 L -0.165607,31.327 L -0.24443,31.2685 L -0.328603,31.2181 L -0.417317,31.1761 L -0.509715,31.1431 L -0.60491,31.1192
 L -0.701983,31.1048 L -0.8,31.1 L -0.898017,31.1048 L -0.99509,31.1192 L -1.09028,31.1431 L -1.18268,31.1761
 L -1.2714,31.2181 L -1.35557,31.2685 L -1.43439,31.327 L -1.50711,31.3929 L -1.57301,31.4656 L -1.63147,31.5444
 L -1.68192,31.6286 L -1.72388,31.7173 L -1.75694,31.8097 L -1.78079,31.9049 L -1.79518,32.002 L -1.8,32.1
 L -1.79518,32.198 L -1.78079,32.2951 L -1.75694,32.3903 L -1.72388,32.4827 L -1.68192,32.5714 L -1.63147,32.6556
 L -1.57301,32.7344 L -1.50711,32.8071 L -1.43439,32.873 L -1.35557,32.9315 L -1.2714,32.9819 L -1.18268,33.0239
 L -1.09028,33.0569 L -0.99509,33.0808 L -0.898017,33.0952 L -0.8,33.1 z
M -4.22198,35.2152 L -4.12491,35.2008 L -4.02972,35.1769 L -3.93732,35.1439 L -3.8486,35.1019 L -3.76443,35.0515
 L -3.68561,34.993 L -3.61289,34.9271 L -3.54699,34.8544 L -3.48853,34.7756 L -3.43808,34.6914 L -3.39612,34.6027
 L -3.36306,34.5103 L -3.33921,34.4151 L -3.32482,34.318 L -3.32,34.22 L -3.32482,34.122 L -3.33921,34.0249
 L -3.36306,33.9297 L -3.39612,33.8373 L -3.43808,33.7486 L -3.48853,33.6644 L -3.54699,33.5856 L -3.61289,33.5129
 L -3.68561,33.447 L -3.76443,33.3885 L -3.8486,33.3381 L -3.93732,33.2961 L -4.02972,33.2631 L -4.12491,33.2392
 L -4.22198,33.2248 L -4.32,33.22 L -4.41802,33.2248 L -4.51509,33.2392 L -4.61028,33.2631 L -4.70268,33.2961
 L -4.7914,33.3381 L -4.87557,33.3885 L -4.95439,33.447 L -5.02711,33.5129 L -5.09301,33.5856 L -5.15147,33.6644
 L -5.20192,33.7486 L -5.24388,33.8373 L -5.27694,33.9297 L -5.30079,34.0249 L -5.31518,34.122 L -5.32,34.22
 L -5.31518,34.318 L -5.30079,34.4151 L -5.27694,34.5103 L -5.24388,34.6027 L -5.20192,34.6914 L -5.15147,34.7756
 L -5.09301,34.8544 L -5.02711,34.9271 L -4.95439,34.993 L -4.87557,35.0515 L -4.7914,35.1019 L -4.70268,35.1439
 L -4.61028,35.1769 L -4.51509,35.2008 L -4.41802,35.2152 L -4.32,35.22 z
M 4.41802,35.2152 L 4.51509,35.2008 L 4.61028,35.1769 L 4.70268,35.1439 L 4.7914,35.1019 L 4.87557,35.0515
 L 4.95439,34.993 L 5.02711,34.9271 L 5.09301,34.8544 L 5.15147,34.7756 L 5.20192,34.6914 L 5.24388,34.6027
 L 5.27694,34.5103 L 5.30079,34.4151 L 5.31518,34.318 L 5.32,34.22 L 5.31518,34.122 L 5.30079,34.0249
 L 5.27694,33.9297 L 5.24388,33.8373 L 5.20192,33.7486 L 5.15147,33.6644 L 5.09301,33.5856 L 5.02711,33.5129
 L 4.95439,33.447 L 4.87557,33.3885 L 4.7914,33.3381 L 4.70268,33.2961 L 4.61028,33.2631 L 4.51509,33.2392
 L 4.41802,33.2248 L 4.32,33.22 L 4.22198,33.2248 L 4.12491,33.2392 L 4.02972,33.2631 L 3.93732,33.2961
 L 3.8486,33.3381 L 3.76443,33.3885 L 3.68561,33.447 L 3.61289,33.5129 L 3.54699,33.5856 L 3.48853,33.6644
 L 3.43808,33.7486 L 3.39612,33.8373 L 3.36306,33.9297 L 3.33921,34.0249 L 3.32482,34.122 L 3.32,34.22
 L 3.32482,34.318 L 3.33921,34.4151 L 3.36306,34.5103 L 3.39612,34.6027 L 3.43808,34.6914 L 3.48853,34.7756
 L 3.54699,34.8544 L 3.61289,34.9271 L 3.68561,34.993 L 3.76443,35.0515 L 3.8486,35.1019 L 3.93732,35.1439
 L 4.02972,35.1769 L 4.12491,35.2008 L 4.22198,35.2152 L 4.32,35.22 z
M 20.7695,38.7368 L 21.0365,38.6972 L 21.2983,38.6316 L 21.5524,38.5407 L 21.7963,38.4253 L 22.0278,38.2865
 L 22.2446,38.1258 L 22.4445,37.9445 L 22.6258,37.7446 L 22.7865,37.5278 L 22.9253,37.2963 L 23.0407,37.0524
 L 23.1316,36.7983 L 23.1972,36.5365 L 23.2368,36.2695 L 23.25,36 L 23.2368,35.7305 L 23.1972,35.4635
 L 23.1316,35.2017 L 23.0407,34.9476 L 22.9253,34.7037 L 22.7865,34.4722 L 22.6258,34.2554 L 22.4445,34.0555
 L 22.2446,33.8742 L 22.0278,33.7135 L 21.7963,33.5747 L 21.5524,33.4593 L 21.2983,33.3684 L 21.0365,33.3028
 L 20.7695,33.2632 L 20.5,33.25 L 20.2305,33.2632 L 19.9635,33.3028 L 19.7017,33.3684 L 19.4476,33.4593
 L 19.2037,33.5747 L 18.9722,33.7135 L 18.7554,33.8742 L 18.5555,34.0555 L 18.3742,34.2554 L 18.2135,34.4722
 L 18.0747,34.7037 L 17.9593,34.9476 L 17.8684,35.2017 L 17.8028,35.4635 L 17.7632,35.7305 L 17.75,36
 L 17.7632,36.2695 L 17.8028,36.5365 L 17.8684,36.7983 L 17.9593,37.0524 L 18.0747,37.2963 L 18.2135,37.5278
 L 18.3742,37.7446 L 18.5555,37.9445 L 18.7554,38.1258 L 18.9722,38.2865 L 19.2037,38.4253 L 19.4476,38.5407
 L 19.7017,38.6316 L 19.9635,38.6972 L 20.2305,38.7368 L 20.5,38.75 z
M -20.2305,38.7368 L -19.9635,38.6972 L -19.7017,38.6316 L -19.4476,38.5407 L -19.2037,38.4253 L -18.9722,38.2865
 L -18.7554,38.1258 L -18.5555,37.9445 L -18.3742,37.7446 L -18.2135,37.5278 L -18.0747,37.2963 L -17.9593,37.0524
 L -17.8684,36.7983 L -17.8028,36.5365 L -17.7632,36.2695 L -17.75,36 L -17.7632,35.7305 L -17.8028,35.4635
 L -17.8684,35.2017 L -17.9593,34.9476 L -18.0747,34.7037 L -18.2135,34.4722 L -18.3742,34.2554 L -18.5555,34.0555
 L -18.7554,33.8742 L -18.9722,33.7135 L -19.2037,33.5747 L -19.4476,33.4593 L -19.7017,33.3684 L -19.9635,33.3028
 L -20.2305,33.2632 L -20.5,33.25 L -20.7695,33.2632 L -21.0365,33.3028 L -21.2983,33.3684 L -21.5524,33.4593
 L -21.7963,33.5747 L -22.0278,33.7135 L -22.2446,33.8742 L -22.4445,34.0555 L -22.6258,34.2554 L -22.7865,34.4722
 L -22.9253,34.7037 L -23.0407,34.9476 L -23.1316,35.2017 L -23.1972,35.4635 L -23.2368,35.7305 L -23.25,36
 L -23.2368,36.2695 L -23.1972,36.5365 L -23.1316,36.7983 L -23.0407,37.0524 L -22.9253,37.2963 L -22.7865,37.5278
 L -22.6258,37.7446 L -22.4445,37.9445 L -22.2446,38.1258 L -22.0278,38.2865 L -21.7963,38.4253 L -21.5524,38.5407
 L -21.2983,38.6316 L -21.0365,38.6972 L -20.7695,38.7368 L -20.5,38.75 z
M -1.15198,35.4952 L -1.05491,35.4808 L -0.959715,35.4569 L -0.867317,35.4239 L -0.778603,35.3819 L -0.69443,35.3315
 L -0.615607,35.273 L -0.542893,35.2071 L -0.47699,35.1344 L -0.41853,35.0556 L -0.368079,34.9714 L -0.32612,34.8827
 L -0.29306,34.7903 L -0.269215,34.6951 L -0.254815,34.598 L -0.25,34.5 L -0.254815,34.402 L -0.269215,34.3049
 L -0.29306,34.2097 L -0.32612,34.1173 L -0.368079,34.0286 L -0.41853,33.9444 L -0.47699,33.8656 L -0.542893,33.7929
 L -0.615607,33.727 L -0.69443,33.6685 L -0.778603,33.6181 L -0.867317,33.5761 L -0.959715,33.5431 L -1.05491,33.5192
 L -1.15198,33.5048 L -1.25,33.5 L -1.34802,33.5048 L -1.44509,33.5192 L -1.54028,33.5431 L -1.63268,33.5761
 L -1.7214,33.6181 L -1.80557,33.6685 L -1.88439,33.727 L -1.95711,33.7929 L -2.02301,33.8656 L -2.08147,33.9444
 L -2.13192,34.0286 L -2.17388,34.1173 L -2.20694,34.2097 L -2.23079,34.3049 L -2.24518,34.402 L -2.25,34.5
 L -2.24518,34.598 L -2.23079,34.6951 L -2.20694,34.7903 L -2.17388,34.8827 L -2.13192,34.9714 L -2.08147,35.0556
 L -2.02301,35.1344 L -1.95711,35.2071 L -1.88439,35.273 L -1.80557,35.3315 L -1.7214,35.3819 L -1.63268,35.4239
 L -1.54028,35.4569 L -1.44509,35.4808 L -1.34802,35.4952 L -1.25,35.5 z
M 0.898017,35.4952 L 0.99509,35.4808 L 1.09028,35.4569 L 1.18268,35.4239 L 1.2714,35.3819 L 1.35557,35.3315
 L 1.43439,35.273 L 1.50711,35.2071 L 1.57301,35.1344 L 1.63147,35.0556 L 1.68192,34.9714 L 1.72388,34.8827
 L 1.75694,34.7903 L 1.78079,34.6951 L 1.79518,34.598 L 1.8,34.5 L 1.79518,34.402 L 1.78079,34.3049
 L 1.75694,34.2097 L 1.72388,34.1173 L 1.68192,34.0286 L 1.63147,33.9444 L 1.57301,33.8656 L 1.50711,33.7929
 L 1.43439,33.727 L 1.35557,33.6685 L 1.2714,33.6181 L 1.18268,33.5761 L 1.09028,33.5431 L 0.99509,33.5192
 L 0.898017,33.5048 L 0.8,33.5 L 0.701983,33.5048 L 0.60491,33.5192 L 0.509715,33.5431 L 0.417317,33.5761
 L 0.328603,33.6181 L 0.24443,33.6685 L 0.165607,33.727 L 0.0928932,33.7929 L 0.0269895,33.8656 L -0.0314696,33.9444
 L -0.0819213,34.0286 L -0.12388,34.1173 L -0.15694,34.2097 L -0.180785,34.3049 L -0.195185,34.402 L -0.2,34.5
 L -0.195185,34.598 L -0.180785,34.6951 L -0.15694,34.7903 L -0.12388,34.8827 L -0.0819213,34.9714 L -0.0314696,35.0556
 L 0.0269895,35.1344 L 0.0928932,35.2071 L 0.165607,35.273 L 0.24443,35.3315 L 0.328603,35.3819 L 0.417317,35.4239
 L 0.509715,35.4569 L 0.60491,35.4808 L 0.701983,35.4952 L 0.8,35.5 z
" stroke="black" fill="lightgray" stroke-width="0.5"/>
</svg>
