<?xml version="1.0" standalone="no"?>
<!DOCTYPE svg PUBLIC "-//W3C//DTD SVG 1.1//EN" "http://www.w3.org/Graphics/SVG/1.1/DTD/svg11.dtd">
<svg width="180mm" height="160mm" viewBox="-90 -80 180 160" xmlns="http://www.w3.org/2000/svg" version="1.1">
<title>OpenSCAD Model</title>
<path d="
M 87.2941,79.9856 L 87.5853,79.9424 L 87.8709,79.8708 L 88.1481,79.7716 L 88.4142,79.6458 L 88.6667,79.4944
 L 88.9032,79.319 L 89.1213,79.1213 L 89.319,78.9032 L 89.4944,78.6667 L 89.6458,78.4142 L 89.7716,78.1481
 L 89.8708,77.8709 L 89.9424,77.5853 L 89.9856,77.2941 L 90,77 L 90,-77 L 89.9856,-77.2941
 L 89.9424,-77.5853 L 89.8708,-77.8709 L 89.7716,-78.1481 L 89.6458,-78.4142 L 89.4944,-78.6667 L 89.319,-78.9032
 L 89.1213,-79.1213 L 88.9032,-79.319 L 88.6667,-79.4944 L 88.4142,-79.6458 L 88.1481,-79.7716 L 87.8709,-79.8708
 L 87.5853,-79.9424 L 87.2941,-79.9856 L 87,-80 L -87,-80 L -87.2941,-79.9856 L -87.5853,-79.9424
 L -87.8709,-79.8708 L -88.1481,-79.7716 L -88.4142,-79.6458 L -88.6667,-79.4944 L -88.9032,-79.319 L -89.1213,-79.1213
 L -89.319,-78.9032 L -89.4944,-78.6667 L -89.6458,-78.4142 L -89.7716,-78.1481 L -89.8708,-77.8709 L -89.9424,-77.5853
 L -89.9856,-77.2941 L -90,-77 L -90,77 L -89.9856,77.2941 L -89.9424,77.5853 L -89.8708,77.8709
 L -89.7716,78.1481 L -89.6458,78.4142 L -89.4944,78.6667 L -89.319,78.9032 L -89.1213,79.1213 L -88.9032,79.319
 L -88.6667,79.4944 L -88.4142,79.6458 L -88.1481,79.7716 L -87.8709,79.8708 L -87.5853,79.9424 L -87.2941,79.9856
 L -87,80 L 87,80 z
M -83.6568,-45.9077 L -83.8121,-45.9307 L -83.9645,-45.9689 L -84.1123,-46.0218 L -84.2542,-46.0889 L -84.3889,-46.1696
 L -84.515,-46.2632 L -84.6314,-46.3686 L -84.7368,-46.485 L -84.8304,-46.6111 L -84.9111,-46.7458 L -84.9782,-46.8877
 L -85.0311,-47.0355 L -85.0693,-47.1879 L -85.0923,-47.3432 L -85.1,-47.5 L -85.0923,-47.6568 L -85.0693,-47.8121
 L -85.0311,-47.9645 L -84.9782,-48.1123 L -84.9111,-48.2542 L -84.8304,-48.3889 L -84.7368,-48.515 L -84.6314,-48.6314
 L -84.515,-48.7368 L -84.3889,-48.8304 L -84.2542,-48.9111 L -84.1123,-48.9782 L -83.9645,-49.0311 L -83.8121,-49.0693
 L -83.6568,-49.0923 L -83.5,-49.1 L -83.3432,-49.0923 L -83.1879,-49.0693 L -83.0355,-49.0311 L -82.8877,-48.9782
 L -82.7458,-48.9111 L -82.6111,-48.8304 L -82.485,-48.7368 L -82.3686,-48.6314 L -82.2632,-48.515 L -82.1696,-48.3889
 L -82.0889,-48.2542 L -82.0218,-48.1123 L -81.9689,-47.9645 L -81.9307,-47.8121 L -81.9077,-47.6568 L -81.9,-47.5
 L -81.9077,-47.3432 L -81.9307,-47.1879 L -81.9689,-47.0355 L -82.0218,-46.8877 L -82.0889,-46.7458 L -82.1696,-46.6111
 L -82.2632,-46.485 L -82.3686,-46.3686 L -82.485,-46.2632 L -82.6111,-46.1696 L -82.7458,-46.0889 L -82.8877,-46.0218
 L -83.0355,-45.9689 L -83.1879,-45.9307 L -83.3432,-45.9077 L -83.5,-45.9 z
M 83.3432,-45.9077 L 83.1879,-45.9307 L 83.0355,-45.9689 L 82.8877,-46.0218 L 82.7458,-46.0889 L 82.6111,-46.1696
 L 82.485,-46.2632 L 82.3686,-46.3686 L 82.2632,-46.485 L 82.1696,-46.6111 L 82.0889,-46.7458 L 82.0218,-46.8877
 L 81.9689,-47.0355 L 81.9307,-47.1879 L 81.9077,-47.3432 L 81.9,-47.5 L 81.9077,-47.6568 L 81.9307,-47.8121
 L 81.9689,-47.9645 L 82.0218,-48.1123 L 82.0889,-48.2542 L 82.1696,-48.3889 L 82.2632,-48.515 L 82.3686,-48.6314
 L 82.485,-48.7368 L 82.6111,-48.8304 L 82.7458,-48.9111 L 82.8877,-48.9782 L 83.0355,-49.0311 L 83.1879,-49.0693
 L 83.3432,-49.0923 L 83.5,-49.1 L 83.6568,-49.0923 L 83.8121,-49.0693 L 83.9645,-49.0311 L 84.1123,-48.9782
 L 84.2542,-48.9111 L 84.3889,-48.8304 L 84.515,-48.7368 L 84.6314,-48.6314 L 84.7368,-48.515 L 84.8304,-48.3889
 L 84.9111,-48.2542 L 84.9782,-48.1123 L 85.0311,-47.9645 L 85.0693,-47.8121 L 85.0923,-47.6568 L 85.1,-47.5
 L 85.0923,-47.3432 L 85.0693,-47.1879 L 85.0311,-47.0355 L 84.9782,-46.8877 L 84.9111,-46.7458 L 84.8304,-46.6111
 L 84.7368,-46.485 L 84.6314,-46.3686 L 84.515,-46.2632 L 84.3889,-46.1696 L 84.2542,-46.0889 L 84.1123,-46.0218
 L 83.9645,-45.9689 L 83.8121,-45.9307 L 83.6568,-45.9077 L 83.5,-45.9 z
M -2.15193,-36.4575 L -2.30239,-36.4798 L -2.44994,-36.5167 L -2.59316,-36.568 L -2.73066,-36.633 L -2.86113,-36.7112
 L -2.98331,-36.8018 L -3.09602,-36.904 L -3.19817,-37.0167 L -3.28878,-37.1389 L -3.36698,-37.2693 L -3.43201,-37.4068
 L -3.48326,-37.5501 L -3.52022,-37.6976 L -3.54254,-37.8481 L -3.55,-38 L -3.54254,-38.1519 L -3.52022,-38.3024
 L -3.48326,-38.4499 L -3.43201,-38.5932 L -3.36698,-38.7307 L -3.28878,-38.8611 L -3.19817,-38.9833 L -3.09602,-39.096
 L -2.98331,-39.1982 L -2.86113,-39.2888 L -2.73066,-39.367 L -2.59316,-39.432 L -2.44994,-39.4833 L -2.30239,-39.5202
 L -2.15193,-39.5425 L -2,-39.55 L -1.84807,-39.5425 L -1.69761,-39.5202 L -1.55006,-39.4833 L -1.40684,-39.432
 L -1.26934,-39.367 L -1.13887,-39.2888 L -1.01669,-39.1982 L -0.903984,-39.096 L -0.801834,-38.9833 L -0.711222,-38.8611
 L -0.633022,-38.7307 L -0.567987,-38.5932 L -0.516742,-38.4499 L -0.479783,-38.3024 L -0.457464,-38.1519 L -0.45,-38
 L -0.457464,-37.8481 L -0.479783,-37.6976 L -0.516742,-37.5501 L -0.567987,-37.4068 L -0.633022,-37.2693 L -0.711222,-37.1389
 L -0.801834,-37.0167 L -0.903984,-36.904 L -1.01669,-36.8018 L -1.13887,-36.7112 L -1.26934,-36.633 L -1.40684,-36.568
 L -1.55006,-36.5167 L -1.69761,-36.4798 L -1.84807,-36.4575 L -2,-36.45 z
M -14.1519,-36.4575 L -14.3024,-36.4798 L -14.4499,-36.5167 L -14.5932,-36.568 L -14.7307,-36.633 L -14.8611,-36.7112
 L -14.9833,-36.8018 L -15.096,-36.904 L -15.1982,-37.0167 L -15.2888,-37.1389 L -15.367,-37.2693 L -15.432,-37.4068
 L -15.4833,-37.5501 L -15.5202,-37.6976 L -15.5425,-37.8481 L -15.55,-38 L -15.5425,-38.1519 L -15.5202,-38.3024
 L -15.4833,-38.4499 L -15.432,-38.5932 L -15.367,-38.7307 L -15.2888,-38.8611 L -15.1982,-38.9833 L -15.096,-39.096
 L -14.9833,-39.1982 L -14.8611,-39.2888 L -14.7307,-39.367 L -14.5932,-39.432 L -14.4499,-39.4833 L -14.3024,-39.5202
 L -14.1519,-39.5425 L -14,-39.55 L -13.8481,-39.5425 L -13.6976,-39.5202 L -13.5501,-39.4833 L -13.4068,-39.432
 L -13.2693,-39.367 L -13.1389,-39.2888 L -13.0167,-39.1982 L -12.904,-39.096 L -12.8018,-38.9833 L -12.7112,-38.8611
 L -12.633,-38.7307 L -12.568,-38.5932 L -12.5167,-38.4499 L -12.4798,-38.3024 L -12.4575,-38.1519 L -12.45,-38
 L -12.4575,-37.8481 L -12.4798,-37.6976 L -12.5167,-37.5501 L -12.568,-37.4068 L -12.633,-37.2693 L -12.7112,-37.1389
 L -12.8018,-37.0167 L -12.904,-36.904 L -13.0167,-36.8018 L -13.1389,-36.7112 L -13.2693,-36.633 L -13.4068,-36.568
 L -13.5501,-36.5167 L -13.6976,-36.4798 L -13.8481,-36.4575 L -14,-36.45 z
M 14.8481,-36.4575 L 14.6976,-36.4798 L 14.5501,-36.5167 L 14.4068,-36.568 L 14.2693,-36.633 L 14.1389,-36.7112
 L 14.0167,-36.8018 L 13.904,-36.904 L 13.8018,-37.0167 L 13.7112,-37.1389 L 13.633,-37.2693 L 13.568,-37.4068
 L 13.5167,-37.5501 L 13.4798,-37.6976 L 13.4575,-37.8481 L 13.45,-38 L 13.4575,-38.1519 L 13.4798,-38.3024
 L 13.5167,-38.4499 L 13.568,-38.5932 L 13.633,-38.7307 L 13.7112,-38.8611 L 13.8018,-38.9833 L 13.904,-39.096
 L 14.0167,-39.1982 L 14.1389,-39.2888 L 14.2693,-39.367 L 14.4068,-39.432 L 14.5501,-39.4833 L 14.6976,-39.5202
 L 14.8481,-39.5425 L 15,-39.55 L 15.1519,-39.5425 L 15.3024,-39.5202 L 15.4499,-39.4833 L 15.5932,-39.432
 L 15.7307,-39.367 L 15.8611,-39.2888 L 15.9833,-39.1982 L 16.096,-39.096 L 16.1982,-38.9833 L 16.2888,-38.8611
 L 16.367,-38.7307 L 16.432,-38.5932 L 16.4833,-38.4499 L 16.5202,-38.3024 L 16.5425,-38.1519 L 16.55,-38
 L 16.5425,-37.8481 L 16.5202,-37.6976 L 16.4833,-37.5501 L 16.432,-37.4068 L 16.367,-37.2693 L 16.2888,-37.1389
 L 16.1982,-37.0167 L 16.096,-36.904 L 15.9833,-36.8018 L 15.8611,-36.7112 L 15.7307,-36.633 L 15.5932,-36.568
 L 15.4499,-36.5167 L 15.3024,-36.4798 L 15.1519,-36.4575 L 15,-36.45 z
M -83.6568,-30.9077 L -83.8121,-30.9307 L -83.9645,-30.9689 L -84.1123,-31.0218 L -84.2542,-31.0889 L -84.3889,-31.1696
 L -84.515,-31.2632 L -84.6314,-31.3686 L -84.7368,-31.485 L -84.8304,-31.6111 L -84.9111,-31.7458 L -84.9782,-31.8877
 L -85.0311,-32.0355 L -85.0693,-32.1879 L -85.0923,-32.3432 L -85.1,-32.5 L -85.0923,-32.6568 L -85.0693,-32.8121
 L -85.0311,-32.9645 L -84.9782,-33.1123 L -84.9111,-33.2542 L -84.8304,-33.3889 L -84.7368,-33.515 L -84.6314,-33.6314
 L -84.515,-33.7368 L -84.3889,-33.8304 L -84.2542,-33.9111 L -84.1123,-33.9782 L -83.9645,-34.0311 L -83.8121,-34.0693
 L -83.6568,-34.0923 L -83.5,-34.1 L -83.3432,-34.0923 L -83.1879,-34.0693 L -83.0355,-34.0311 L -82.8877,-33.9782
 L -82.7458,-33.9111 L -82.6111,-33.8304 L -82.485,-33.7368 L -82.3686,-33.6314 L -82.2632,-33.515 L -82.1696,-33.3889
 L -82.0889,-33.2542 L -82.0218,-33.1123 L -81.9689,-32.9645 L -81.9307,-32.8121 L -81.9077,-32.6568 L -81.9,-32.5
 L -81.9077,-32.3432 L -81.9307,-32.1879 L -81.9689,-32.0355 L -82.0218,-31.8877 L -82.0889,-31.7458 L -82.1696,-31.6111
 L -82.2632,-31.485 L -82.3686,-31.3686 L -82.485,-31.2632 L -82.6111,-31.1696 L -82.7458,-31.0889 L -82.8877,-31.0218
 L -83.0355,-30.9689 L -83.1879,-30.9307 L -83.3432,-30.9077 L -83.5,-30.9 z
M 83.3432,-30.9077 L 83.1879,-30.9307 L 83.0355,-30.9689 L 82.8877,-31.0218 L 82.7458,-31.0889 L 82.6111,-31.1696
 L 82.485,-31.2632 L 82.3686,-31.3686 L 82.2632,-31.485 L 82.1696,-31.6111 L 82.0889,-31.7458 L 82.0218,-31.8877
 L 81.9689,-32.0355 L 81.9307,-32.1879 L 81.9077,-32.3432 L 81.9,-32.5 L 81.9077,-32.6568 L 81.9307,-32.8121
 L 81.9689,-32.9645 L 82.0218,-33.1123 L 82.0889,-33.2542 L 82.1696,-33.3889 L 82.2632,-33.515 L 82.3686,-33.6314
 L 82.485,-33.7368 L 82.6111,-33.8304 L 82.7458,-33.9111 L 82.8877,-33.9782 L 83.0355,-34.0311 L 83.1879,-34.0693
 L 83.3432,-34.0923 L 83.5,-34.1 L 83.6568,-34.0923 L 83.8121,-34.0693 L 83.9645,-34.0311 L 84.1123,-33.9782
 L 84.2542,-33.9111 L 84.3889,-33.8304 L 84.515,-33.7368 L 84.6314,-33.6314 L 84.7368,-33.515 L 84.8304,-33.3889
 L 84.9111,-33.2542 L 84.9782,-33.1123 L 85.0311,-32.9645 L 85.0693,-32.8121 L 85.0923,-32.6568 L 85.1,-32.5
 L 85.0923,-32.3432 L 85.0693,-32.1879 L 85.0311,-32.0355 L 84.9782,-31.8877 L 84.9111,-31.7458 L 84.8304,-31.6111
 L 84.7368,-31.485 L 84.6314,-31.3686 L 84.515,-31.2632 L 84.3889,-31.1696 L 84.2542,-31.0889 L 84.1123,-31.0218
 L 83.9645,-30.9689 L 83.8121,-30.9307 L 83.6568,-30.9077 L 83.5,-30.9 z
M 1.59807,-27.2075 L 1.44761,-27.2298 L 1.30006,-27.2667 L 1.15684,-27.318 L 1.01934,-27.383 L 0.888866,-27.4612
 L 0.76669,-27.5518 L 0.653984,-27.654 L 0.551834,-27.7667 L 0.461222,-27.8889 L 0.383022,-28.0193 L 0.317987,-28.1568
 L 0.266742,-28.3001 L 0.229783,-28.4476 L 0.207464,-28.5981 L 0.2,-28.75 L 0.207464,-28.9019 L 0.229783,-29.0524
 L 0.266742,-29.1999 L 0.317987,-29.3432 L 0.383022,-29.4807 L 0.461222,-29.6111 L 0.551834,-29.7333 L 0.653984,-29.846
 L 0.76669,-29.9482 L 0.888866,-30.0388 L 1.01934,-30.117 L 1.15684,-30.182 L 1.30006,-30.2333 L 1.44761,-30.2702
 L 1.59807,-30.2925 L 1.75,-30.3 L 1.90193,-30.2925 L 2.05239,-30.2702 L 2.19994,-30.2333 L 2.34316,-30.182
 L 2.48066,-30.117 L 2.61113,-30.0388 L 2.73331,-29.9482 L 2.84602,-29.846 L 2.94817,-29.7333 L 3.03878,-29.6111
 L 3.11698,-29.4807 L 3.18201,-29.3432 L 3.23326,-29.1999 L 3.27022,-29.0524 L 3.29254,-28.9019 L 3.3,-28.75
 L 3.29254,-28.5981 L 3.27022,-28.4476 L 3.23326,-28.3001 L 3.18201,-28.1568 L 3.11698,-28.0193 L 3.03878,-27.8889
 L 2.94817,-27.7667 L 2.84602,-27.654 L 2.73331,-27.5518 L 2.61113,-27.4612 L 2.48066,-27.383 L 2.34316,-27.318
 L 2.19994,-27.2667 L 2.05239,-27.2298 L 1.90193,-27.2075 L 1.75,-27.2 z
M -6.90193,-12.7075 L -7.05239,-12.7298 L -7.19994,-12.7667 L -7.34316,-12.818 L -7.48066,-12.883 L -7.61113,-12.9612
 L -7.73331,-13.0518 L -7.84602,-13.154 L -7.94817,-13.2667 L -8.03878,-13.3889 L -8.11698,-13.5193 L -8.18201,-13.6568
 L -8.23326,-13.8001 L -8.27022,-13.9476 L -8.29254,-14.0981 L -8.3,-14.25 L -8.29254,-14.4019 L -8.27022,-14.5524
 L -8.23326,-14.6999 L -8.18201,-14.8432 L -8.11698,-14.9807 L -8.03878,-15.1111 L -7.94817,-15.2333 L -7.84602,-15.346
 L -7.73331,-15.4482 L -7.61113,-15.5388 L -7.48066,-15.617 L -7.34316,-15.682 L -7.19994,-15.7333 L -7.05239,-15.7702
 L -6.90193,-15.7925 L -6.75,-15.8 L -6.59807,-15.7925 L -6.44761,-15.7702 L -6.30006,-15.7333 L -6.15684,-15.682
 L -6.01934,-15.617 L -5.88887,-15.5388 L -5.76669,-15.4482 L -5.65398,-15.346 L -5.55183,-15.2333 L -5.46122,-15.1111
 L -5.38302,-14.9807 L -5.31799,-14.8432 L -5.26674,-14.6999 L -5.22978,-14.5524 L -5.20746,-14.4019 L -5.2,-14.25
 L -5.20746,-14.0981 L -5.22978,-13.9476 L -5.26674,-13.8001 L -5.31799,-13.6568 L -5.38302,-13.5193 L -5.46122,-13.3889
 L -5.55183,-13.2667 L -5.65398,-13.154 L -5.76669,-13.0518 L -5.88887,-12.9612 L -6.01934,-12.883 L -6.15684,-12.818
 L -6.30006,-12.7667 L -6.44761,-12.7298 L -6.59807,-12.7075 L -6.75,-12.7 z
M 6.09807,-12.7075 L 5.94761,-12.7298 L 5.80006,-12.7667 L 5.65684,-12.818 L 5.51934,-12.883 L 5.38887,-12.9612
 L 5.26669,-13.0518 L 5.15398,-13.154 L 5.05183,-13.2667 L 4.96122,-13.3889 L 4.88302,-13.5193 L 4.81799,-13.6568
 L 4.76674,-13.8001 L 4.72978,-13.9476 L 4.70746,-14.0981 L 4.7,-14.25 L 4.70746,-14.4019 L 4.72978,-14.5524
 L 4.76674,-14.6999 L 4.81799,-14.8432 L 4.88302,-14.9807 L 4.96122,-15.1111 L 5.05183,-15.2333 L 5.15398,-15.346
 L 5.26669,-15.4482 L 5.38887,-15.5388 L 5.51934,-15.617 L 5.65684,-15.682 L 5.80006,-15.7333 L 5.94761,-15.7702
 L 6.09807,-15.7925 L 6.25,-15.8 L 6.40193,-15.7925 L 6.55239,-15.7702 L 6.69994,-15.7333 L 6.84316,-15.682
 L 6.98066,-15.617 L 7.11113,-15.5388 L 7.23331,-15.4482 L 7.34602,-15.346 L 7.44817,-15.2333 L 7.53878,-15.1111
 L 7.61698,-14.9807 L 7.68201,-14.8432 L 7.73326,-14.6999 L 7.77022,-14.5524 L 7.79254,-14.4019 L 7.8,-14.25
 L 7.79254,-14.0981 L 7.77022,-13.9476 L 7.73326,-13.8001 L 7.68201,-13.6568 L 7.61698,-13.5193 L 7.53878,-13.3889
 L 7.44817,-13.2667 L 7.34602,-13.154 L 7.23331,-13.0518 L 7.11113,-12.9612 L 6.98066,-12.883 L 6.84316,-12.818
 L 6.69994,-12.7667 L 6.55239,-12.7298 L 6.40193,-12.7075 L 6.25,-12.7 z
M -83.6568,-5.9077 L -83.8121,-5.93074 L -83.9645,-5.9689 L -84.1123,-6.02179 L -84.2542,-6.08893 L -84.3889,-6.16965
 L -84.515,-6.26318 L -84.6314,-6.36863 L -84.7368,-6.48497 L -84.8304,-6.61109 L -84.9111,-6.74577 L -84.9782,-6.88771
 L -85.0311,-7.03554 L -85.0693,-7.18786 L -85.0923,-7.34317 L -85.1,-7.5 L -85.0923,-7.65683 L -85.0693,-7.81214
 L -85.0311,-7.96446 L -84.9782,-8.11229 L -84.9111,-8.25423 L -84.8304,-8.38891 L -84.7368,-8.51503 L -84.6314,-8.63137
 L -84.515,-8.73682 L -84.3889,-8.83035 L -84.2542,-8.91107 L -84.1123,-8.97821 L -83.9645,-9.0311 L -83.8121,-9.06926
 L -83.6568,-9.0923 L -83.5,-9.1 L -83.3432,-9.0923 L -83.1879,-9.06926 L -83.0355,-9.0311 L -82.8877,-8.97821
 L -82.7458,-8.91107 L -82.6111,-8.83035 L -82.485,-8.73682 L -82.3686,-8.63137 L -82.2632,-8.51503 L -82.1696,-8.38891
 L -82.0889,-8.25423 L -82.0218,-8.11229 L -81.9689,-7.96446 L -81.9307,-7.81214 L -81.9077,-7.65683 L -81.9,-7.5
 L -81.9077,-7.34317 L -81.9307,-7.18786 L -81.9689,-7.03554 L -82.0218,-6.88771 L -82.0889,-6.74577 L -82.1696,-6.61109
 L -82.2632,-6.48497 L -82.3686,-6.36863 L -82.485,-6.26318 L -82.6111,-6.16965 L -82.7458,-6.08893 L -82.8877,-6.02179
 L -83.0355,-5.9689 L -83.1879,-5.93074 L -83.3432,-5.9077 L -83.5,-5.9 z
M 83.3432,-5.9077 L 83.1879,-5.93074 L 83.0355,-5.9689 L 82.8877,-6.02179 L 82.7458,-6.08893 L 82.6111,-6.16965
 L 82.485,-6.26318 L 82.3686,-6.36863 L 82.2632,-6.48497 L 82.1696,-6.61109 L 82.0889,-6.74577 L 82.0218,-6.88771
 L 81.9689,-7.03554 L 81.9307,-7.18786 L 81.9077,-7.34317 L 81.9,-7.5 L 81.9077,-7.65683 L 81.9307,-7.81214
 L 81.9689,-7.96446 L 82.0218,-8.11229 L 82.0889,-8.25423 L 82.1696,-8.38891 L 82.2632,-8.51503 L 82.3686,-8.63137
 L 82.485,-8.73682 L 82.6111,-8.83035 L 82.7458,-8.91107 L 82.8877,-8.97821 L 83.0355,-9.0311 L 83.1879,-9.06926
 L 83.3432,-9.0923 L 83.5,-9.1 L 83.6568,-9.0923 L 83.8121,-9.06926 L 83.9645,-9.0311 L 84.1123,-8.97821
 L 84.2542,-8.91107 L 84.3889,-8.83035 L 84.515,-8.73682 L 84.6314,-8.63137 L 84.7368,-8.51503 L 84.8304,-8.38891
 L 84.9111,-8.25423 L 84.9782,-8.11229 L 85.0311,-7.96446 L 85.0693,-7.81214 L 85.0923,-7.65683 L 85.1,-7.5
 L 85.0923,-7.34317 L 85.0693,-7.18786 L 85.0311,-7.03554 L 84.9782,-6.88771 L 84.9111,-6.74577 L 84.8304,-6.61109
 L 84.7368,-6.48497 L 84.6314,-6.36863 L 84.515,-6.26318 L 84.3889,-6.16965 L 84.2542,-6.08893 L 84.1123,-6.02179
 L 83.9645,-5.9689 L 83.8121,-5.93074 L 83.6568,-5.9077 L 83.5,-5.9 z
M 11.8481,-1.70746 L 11.6976,-1.72978 L 11.5501,-1.76674 L 11.4068,-1.81799 L 11.2693,-1.88302 L 11.1389,-1.96122
 L 11.0167,-2.05183 L 10.904,-2.15398 L 10.8018,-2.26669 L 10.7112,-2.38887 L 10.633,-2.51934 L 10.568,-2.65684
 L 10.5167,-2.80006 L 10.4798,-2.94761 L 10.4575,-3.09807 L 10.45,-3.25 L 10.4575,-3.40193 L 10.4798,-3.55239
 L 10.5167,-3.69994 L 10.568,-3.84316 L 10.633,-3.98066 L 10.7112,-4.11113 L 10.8018,-4.23331 L 10.904,-4.34602
 L 11.0167,-4.44817 L 11.1389,-4.53878 L 11.2693,-4.61698 L 11.4068,-4.68201 L 11.5501,-4.73326 L 11.6976,-4.77022
 L 11.8481,-4.79254 L 12,-4.8 L 12.1519,-4.79254 L 12.3024,-4.77022 L 12.4499,-4.73326 L 12.5932,-4.68201
 L 12.7307,-4.61698 L 12.8611,-4.53878 L 12.9833,-4.44817 L 13.096,-4.34602 L 13.1982,-4.23331 L 13.2888,-4.11113
 L 13.367,-3.98066 L 13.432,-3.84316 L 13.4833,-3.69994 L 13.5202,-3.55239 L 13.5425,-3.40193 L 13.55,-3.25
 L 13.5425,-3.09807 L 13.5202,-2.94761 L 13.4833,-2.80006 L 13.432,-2.65684 L 13.367,-2.51934 L 13.2888,-2.38887
 L 13.1982,-2.26669 L 13.096,-2.15398 L 12.9833,-2.05183 L 12.8611,-1.96122 L 12.7307,-1.88302 L 12.5932,-1.81799
 L 12.4499,-1.76674 L 12.3024,-1.72978 L 12.1519,-1.70746 L 12,-1.7 z
M -12.1519,-0.207464 L -12.3024,-0.229783 L -12.4499,-0.266742 L -12.5932,-0.317987 L -12.7307,-0.383022 L -12.8611,-0.461222
 L -12.9833,-0.551834 L -13.096,-0.653984 L -13.1982,-0.76669 L -13.2888,-0.888866 L -13.367,-1.01934 L -13.432,-1.15684
 L -13.4833,-1.30006 L -13.5202,-1.44761 L -13.5425,-1.59807 L -13.55,-1.75 L -13.5425,-1.90193 L -13.5202,-2.05239
 L -13.4833,-2.19994 L -13.432,-2.34316 L -13.367,-2.48066 L -13.2888,-2.61113 L -13.1982,-2.73331 L -13.096,-2.84602
 L -12.9833,-2.94817 L -12.8611,-3.03878 L -12.7307,-3.11698 L -12.5932,-3.18201 L -12.4499,-3.23326 L -12.3024,-3.27022
 L -12.1519,-3.29254 L -12,-3.3 L -11.8481,-3.29254 L -11.6976,-3.27022 L -11.5501,-3.23326 L -11.4068,-3.18201
 L -11.2693,-3.11698 L -11.1389,-3.03878 L -11.0167,-2.94817 L -10.904,-2.84602 L -10.8018,-2.73331 L -10.7112,-2.61113
 L -10.633,-2.48066 L -10.568,-2.34316 L -10.5167,-2.19994 L -10.4798,-2.05239 L -10.4575,-1.90193 L -10.45,-1.75
 L -10.4575,-1.59807 L -10.4798,-1.44761 L -10.5167,-1.30006 L -10.568,-1.15684 L -10.633,-1.01934 L -10.7112,-0.888866
 L -10.8018,-0.76669 L -10.904,-0.653984 L -11.0167,-0.551834 L -11.1389,-0.461222 L -11.2693,-0.383022 L -11.4068,-0.317987
 L -11.5501,-0.266742 L -11.6976,-0.229783 L -11.8481,-0.207464 L -12,-0.2 z
M 7.59807,5.54254 L 7.44761,5.52022 L 7.30006,5.48326 L 7.15684,5.43201 L 7.01934,5.36698 L 6.88887,5.28878
 L 6.76669,5.19817 L 6.65398,5.09602 L 6.55183,4.98331 L 6.46122,4.86113 L 6.38302,4.73066 L 6.31799,4.59316
 L 6.26674,4.44994 L 6.22978,4.30239 L 6.20746,4.15193 L 6.2,4 L 6.20746,3.84807 L 6.22978,3.69761
 L 6.26674,3.55006 L 6.31799,3.40684 L 6.38302,3.26934 L 6.46122,3.13887 L 6.55183,3.01669 L 6.65398,2.90398
 L 6.76669,2.80183 L 6.88887,2.71122 L 7.01934,2.63302 L 7.15684,2.56799 L 7.30006,2.51674 L 7.44761,2.47978
 L 7.59807,2.45746 L 7.75,2.45 L 7.90193,2.45746 L 8.05239,2.47978 L 8.19994,2.51674 L 8.34316,2.56799
 L 8.48066,2.63302 L 8.61113,2.71122 L 8.73331,2.80183 L 8.84602,2.90398 L 8.94817,3.01669 L 9.03878,3.13887
 L 9.11698,3.26934 L 9.18201,3.40684 L 9.23326,3.55006 L 9.27022,3.69761 L 9.29254,3.84807 L 9.3,4
 L 9.29254,4.15193 L 9.27022,4.30239 L 9.23326,4.44994 L 9.18201,4.59316 L 9.11698,4.73066 L 9.03878,4.86113
 L 8.94817,4.98331 L 8.84602,5.09602 L 8.73331,5.19817 L 8.61113,5.28878 L 8.48066,5.36698 L 8.34316,5.43201
 L 8.19994,5.48326 L 8.05239,5.52022 L 7.90193,5.54254 L 7.75,5.55 z
M 83.3432,9.0923 L 83.1879,9.06926 L 83.0355,9.0311 L 82.8877,8.97821 L 82.7458,8.91107 L 82.6111,8.83035
 L 82.485,8.73682 L 82.3686,8.63137 L 82.2632,8.51503 L 82.1696,8.38891 L 82.0889,8.25423 L 82.0218,8.11229
 L 81.9689,7.96446 L 81.9307,7.81214 L 81.9077,7.65683 L 81.9,7.5 L 81.9077,7.34317 L 81.9307,7.18786
 L 81.9689,7.03554 L 82.0218,6.88771 L 82.0889,6.74577 L 82.1696,6.61109 L 82.2632,6.48497 L 82.3686,6.36863
 L 82.485,6.26318 L 82.6111,6.16965 L 82.7458,6.08893 L 82.8877,6.02179 L 83.0355,5.9689 L 83.1879,5.93074
 L 83.3432,5.9077 L 83.5,5.9 L 83.6568,5.9077 L 83.8121,5.93074 L 83.9645,5.9689 L 84.1123,6.02179
 L 84.2542,6.08893 L 84.3889,6.16965 L 84.515,6.26318 L 84.6314,6.36863 L 84.7368,6.48497 L 84.8304,6.61109
 L 84.9111,6.74577 L 84.9782,6.88771 L 85.0311,7.03554 L 85.0693,7.18786 L 85.0923,7.34317 L 85.1,7.5
 L 85.0923,7.65683 L 85.0693,7.81214 L 85.0311,7.96446 L 84.9782,8.11229 L 84.9111,8.25423 L 84.8304,8.38891
 L 84.7368,8.51503 L 84.6314,8.63137 L 84.515,8.73682 L 84.3889,8.83035 L 84.2542,8.91107 L 84.1123,8.97821
 L 83.9645,9.0311 L 83.8121,9.06926 L 83.6568,9.0923 L 83.5,9.1 z
M -83.6568,9.0923 L -83.8121,9.06926 L -83.9645,9.0311 L -84.1123,8.97821 L -84.2542,8.91107 L -84.3889,8.83035
 L -84.515,8.73682 L -84.6314,8.63137 L -84.7368,8.51503 L -84.8304,8.38891 L -84.9111,8.25423 L -84.9782,8.11229
 L -85.0311,7.96446 L -85.0693,7.81214 L -85.0923,7.65683 L -85.1,7.5 L -85.0923,7.34317 L -85.0693,7.18786
 L -85.0311,7.03554 L -84.9782,6.88771 L -84.9111,6.74577 L -84.8304,6.61109 L -84.7368,6.48497 L -84.6314,6.36863
 L -84.515,6.26318 L -84.3889,6.16965 L -84.2542,6.08893 L -84.1123,6.02179 L -83.9645,5.9689 L -83.8121,5.93074
 L -83.6568,5.9077 L -83.5,5.9 L -83.3432,5.9077 L -83.1879,5.93074 L -83.0355,5.9689 L -82.8877,6.02179
 L -82.7458,6.08893 L -82.6111,6.16965 L -82.485,6.26318 L -82.3686,6.36863 L -82.2632,6.48497 L -82.1696,6.61109
 L -82.0889,6.74577 L -82.0218,6.88771 L -81.9689,7.03554 L -81.9307,7.18786 L -81.9077,7.34317 L -81.9,7.5
 L -81.9077,7.65683 L -81.9307,7.81214 L -81.9689,7.96446 L -82.0218,8.11229 L -82.0889,8.25423 L -82.1696,8.38891
 L -82.2632,8.51503 L -82.3686,8.63137 L -82.485,8.73682 L -82.6111,8.83035 L -82.7458,8.91107 L -82.8877,8.97821
 L -83.0355,9.0311 L -83.1879,9.06926 L -83.3432,9.0923 L -83.5,9.1 z
M -11.1519,9.79254 L -11.3024,9.77022 L -11.4499,9.73326 L -11.5932,9.68201 L -11.7307,9.61698 L -11.8611,9.53878
 L -11.9833,9.44817 L -12.096,9.34602 L -12.1982,9.23331 L -12.2888,9.11113 L -12.367,8.98066 L -12.432,8.84316
 L -12.4833,8.69994 L -12.5202,8.55239 L -12.5425,8.40193 L -12.55,8.25 L -12.5425,8.09807 L -12.5202,7.94761
 L -12.4833,7.80006 L -12.432,7.65684 L -12.367,7.51934 L -12.2888,7.38887 L -12.1982,7.26669 L -12.096,7.15398
 L -11.9833,7.05183 L -11.8611,6.96122 L -11.7307,6.88302 L -11.5932,6.81799 L -11.4499,6.76674 L -11.3024,6.72978
 L -11.1519,6.70746 L -11,6.7 L -10.8481,6.70746 L -10.6976,6.72978 L -10.5501,6.76674 L -10.4068,6.81799
 L -10.2693,6.88302 L -10.1389,6.96122 L -10.0167,7.05183 L -9.90398,7.15398 L -9.80183,7.26669 L -9.71122,7.38887
 L -9.63302,7.51934 L -9.56799,7.65684 L -9.51674,7.80006 L -9.47978,7.94761 L -9.45746,8.09807 L -9.45,8.25
 L -9.45746,8.40193 L -9.47978,8.55239 L -9.51674,8.69994 L -9.56799,8.84316 L -9.63302,8.98066 L -9.71122,9.11113
 L -9.80183,9.23331 L -9.90398,9.34602 L -10.0167,9.44817 L -10.1389,9.53878 L -10.2693,9.61698 L -10.4068,9.68201
 L -10.5501,9.73326 L -10.6976,9.77022 L -10.8481,9.79254 L -11,9.8 z
M 6.09807,18.5425 L 5.94761,18.5202 L 5.80006,18.4833 L 5.65684,18.432 L 5.51934,18.367 L 5.38887,18.2888
 L 5.26669,18.1982 L 5.15398,18.096 L 5.05183,17.9833 L 4.96122,17.8611 L 4.88302,17.7307 L 4.81799,17.5932
 L 4.76674,17.4499 L 4.72978,17.3024 L 4.70746,17.1519 L 4.7,17 L 4.70746,16.8481 L 4.72978,16.6976
 L 4.76674,16.5501 L 4.81799,16.4068 L 4.88302,16.2693 L 4.96122,16.1389 L 5.05183,16.0167 L 5.15398,15.904
 L 5.26669,15.8018 L 5.38887,15.7112 L 5.51934,15.633 L 5.65684,15.568 L 5.80006,15.5167 L 5.94761,15.4798
 L 6.09807,15.4575 L 6.25,15.45 L 6.40193,15.4575 L 6.55239,15.4798 L 6.69994,15.5167 L 6.84316,15.568
 L 6.98066,15.633 L 7.11113,15.7112 L 7.23331,15.8018 L 7.34602,15.904 L 7.44817,16.0167 L 7.53878,16.1389
 L 7.61698,16.2693 L 7.68201,16.4068 L 7.73326,16.5501 L 7.77022,16.6976 L 7.79254,16.8481 L 7.8,17
 L 7.79254,17.1519 L 7.77022,17.3024 L 7.73326,17.4499 L 7.68201,17.5932 L 7.61698,17.7307 L 7.53878,17.8611
 L 7.44817,17.9833 L 7.34602,18.096 L 7.23331,18.1982 L 7.11113,18.2888 L 6.98066,18.367 L 6.84316,18.432
 L 6.69994,18.4833 L 6.55239,18.5202 L 6.40193,18.5425 L 6.25,18.55 z
M -11.2842,19.9872 L -11.4347,19.9648 L -11.5823,19.9279 L -11.7255,19.8766 L -11.863,19.8116 L -11.9934,19.7334
 L -12.1156,19.6428 L -12.2283,19.5406 L -12.3305,19.4279 L -12.4211,19.3058 L -12.4993,19.1753 L -12.5643,19.0378
 L -12.6156,18.8946 L -12.6525,18.747 L -12.6749,18.5966 L -12.6823,18.4446 L -12.6749,18.2927 L -12.6525,18.1422
 L -12.6156,17.9947 L -12.5643,17.8515 L -12.4993,17.714 L -12.4211,17.5835 L -12.3305,17.4613 L -12.2283,17.3486
 L -12.1156,17.2465 L -11.9934,17.1558 L -11.863,17.0776 L -11.7255,17.0126 L -11.5823,16.9614 L -11.4347,16.9244
 L -11.2842,16.9021 L -11.1323,16.8946 L -10.9804,16.9021 L -10.8299,16.9244 L -10.6824,16.9614 L -10.5392,17.0126
 L -10.4016,17.0776 L -10.2712,17.1558 L -10.149,17.2465 L -10.0363,17.3486 L -9.93415,17.4613 L -9.84354,17.5835
 L -9.76534,17.714 L -9.7003,17.8515 L -9.64906,17.9947 L -9.6121,18.1422 L -9.58978,18.2927 L -9.58231,18.4446
 L -9.58978,18.5966 L -9.6121,18.747 L -9.64906,18.8946 L -9.7003,19.0378 L -9.76534,19.1753 L -9.84354,19.3058
 L -9.93415,19.4279 L -10.0363,19.5406 L -10.149,19.6428 L -10.2712,19.7334 L -10.4016,19.8116 L -10.5392,19.8766
 L -10.6824,19.9279 L -10.8299,19.9648 L -10.9804,19.9872 L -11.1323,19.9946 z
M 11.5981,29.5425 L 11.4476,29.5202 L 11.3001,29.4833 L 11.1568,29.432 L 11.0193,29.367 L 10.8889,29.2888
 L 10.7667,29.1982 L 10.654,29.096 L 10.5518,28.9833 L 10.4612,28.8611 L 10.383,28.7307 L 10.318,28.5932
 L 10.2667,28.4499 L 10.2298,28.3024 L 10.2075,28.1519 L 10.2,28 L 10.2075,27.8481 L 10.2298,27.6976
 L 10.2667,27.5501 L 10.318,27.4068 L 10.383,27.2693 L 10.4612,27.1389 L 10.5518,27.0167 L 10.654,26.904
 L 10.7667,26.8018 L 10.8889,26.7112 L 11.0193,26.633 L 11.1568,26.568 L 11.3001,26.5167 L 11.4476,26.4798
 L 11.5981,26.4575 L 11.75,26.45 L 11.9019,26.4575 L 12.0524,26.4798 L 12.1999,26.5167 L 12.3432,26.568
 L 12.4807,26.633 L 12.6111,26.7112 L 12.7333,26.8018 L 12.846,26.904 L 12.9482,27.0167 L 13.0388,27.1389
 L 13.117,27.2693 L 13.182,27.4068 L 13.2333,27.5501 L 13.2702,27.6976 L 13.2925,27.8481 L 13.3,28
 L 13.2925,28.1519 L 13.2702,28.3024 L 13.2333,28.4499 L 13.182,28.5932 L 13.117,28.7307 L 13.0388,28.8611
 L 12.9482,28.9833 L 12.846,29.096 L 12.7333,29.1982 L 12.6111,29.2888 L 12.4807,29.367 L 12.3432,29.432
 L 12.1999,29.4833 L 12.0524,29.5202 L 11.9019,29.5425 L 11.75,29.55 z
M -8.15193,30.0425 L -8.30239,30.0202 L -8.44994,29.9833 L -8.59316,29.932 L -8.73066,29.867 L -8.86113,29.7888
 L -8.98331,29.6982 L -9.09602,29.596 L -9.19817,29.4833 L -9.28878,29.3611 L -9.36698,29.2307 L -9.43201,29.0932
 L -9.48326,28.9499 L -9.52022,28.8024 L -9.54254,28.6519 L -9.55,28.5 L -9.54254,28.3481 L -9.52022,28.1976
 L -9.48326,28.0501 L -9.43201,27.9068 L -9.36698,27.7693 L -9.28878,27.6389 L -9.19817,27.5167 L -9.09602,27.404
 L -8.98331,27.3018 L -8.86113,27.2112 L -8.73066,27.133 L -8.59316,27.068 L -8.44994,27.0167 L -8.30239,26.9798
 L -8.15193,26.9575 L -8,26.95 L -7.84807,26.9575 L -7.69761,26.9798 L -7.55006,27.0167 L -7.40684,27.068
 L -7.26934,27.133 L -7.13887,27.2112 L -7.01669,27.3018 L -6.90398,27.404 L -6.80183,27.5167 L -6.71122,27.6389
 L -6.63302,27.7693 L -6.56799,27.9068 L -6.51674,28.0501 L -6.47978,28.1976 L -6.45746,28.3481 L -6.45,28.5
 L -6.45746,28.6519 L -6.47978,28.8024 L -6.51674,28.9499 L -6.56799,29.0932 L -6.63302,29.2307 L -6.71122,29.3611
 L -6.80183,29.4833 L -6.90398,29.596 L -7.01669,29.6982 L -7.13887,29.7888 L -7.26934,29.867 L -7.40684,29.932
 L -7.55006,29.9833 L -7.69761,30.0202 L -7.84807,30.0425 L -8,30.05 z
M -83.6568,34.0923 L -83.8121,34.0693 L -83.9645,34.0311 L -84.1123,33.9782 L -84.2542,33.9111 L -84.3889,33.8304
 L -84.515,33.7368 L -84.6314,33.6314 L -84.7368,33.515 L -84.8304,33.3889 L -84.9111,33.2542 L -84.9782,33.1123
 L -85.0311,32.9645 L -85.0693,32.8121 L -85.0923,32.6568 L -85.1,32.5 L -85.0923,32.3432 L -85.0693,32.1879
 L -85.0311,32.0355 L -84.9782,31.8877 L -84.9111,31.7458 L -84.8304,31.6111 L -84.7368,31.485 L -84.6314,31.3686
 L -84.515,31.2632 L -84.3889,31.1696 L -84.2542,31.0889 L -84.1123,31.0218 L -83.9645,30.9689 L -83.8121,30.9307
 L -83.6568,30.9077 L -83.5,30.9 L -83.3432,30.9077 L -83.1879,30.9307 L -83.0355,30.9689 L -82.8877,31.0218
 L -82.7458,31.0889 L -82.6111,31.1696 L -82.485,31.2632 L -82.3686,31.3686 L -82.2632,31.485 L -82.1696,31.6111
 L -82.0889,31.7458 L -82.0218,31.8877 L -81.9689,32.0355 L -81.9307,32.1879 L -81.9077,32.3432 L -81.9,32.5
 L -81.9077,32.6568 L -81.9307,32.8121 L -81.9689,32.9645 L -82.0218,33.1123 L -82.0889,33.2542 L -82.1696,33.3889
 L -82.2632,33.515 L -82.3686,33.6314 L -82.485,33.7368 L -82.6111,33.8304 L -82.7458,33.9111 L -82.8877,33.9782
 L -83.0355,34.0311 L -83.1879,34.0693 L -83.3432,34.0923 L -83.5,34.1 z
M 83.3432,34.0923 L 83.1879,34.0693 L 83.0355,34.0311 L 82.8877,33.9782 L 82.7458,33.9111 L 82.6111,33.8304
 L 82.485,33.7368 L 82.3686,33.6314 L 82.2632,33.515 L 82.1696,33.3889 L 82.0889,33.2542 L 82.0218,33.1123
 L 81.9689,32.9645 L 81.9307,32.8121 L 81.9077,32.6568 L 81.9,32.5 L 81.9077,32.3432 L 81.9307,32.1879
 L 81.9689,32.0355 L 82.0218,31.8877 L 82.0889,31.7458 L 82.1696,31.6111 L 82.2632,31.485 L 82.3686,31.3686
 L 82.485,31.2632 L 82.6111,31.1696 L 82.7458,31.0889 L 82.8877,31.0218 L 83.0355,30.9689 L 83.1879,30.9307
 L 83.3432,30.9077 L 83.5,30.9 L 83.6568,30.9077 L 83.8121,30.9307 L 83.9645,30.9689 L 84.1123,31.0218
 L 84.2542,31.0889 L 84.3889,31.1696 L 84.515,31.2632 L 84.6314,31.3686 L 84.7368,31.485 L 84.8304,31.6111
 L 84.9111,31.7458 L 84.9782,31.8877 L 85.0311,32.0355 L 85.0693,32.1879 L 85.0923,32.3432 L 85.1,32.5
 L 85.0923,32.6568 L 85.0693,32.8121 L 85.0311,32.9645 L 84.9782,33.1123 L 84.9111,33.2542 L 84.8304,33.3889
 L 84.7368,33.515 L 84.6314,33.6314 L 84.515,33.7368 L 84.3889,33.8304 L 84.2542,33.9111 L 84.1123,33.9782
 L 83.9645,34.0311 L 83.8121,34.0693 L 83.6568,34.0923 L 83.5,34.1 z
M 14.0981,38.5425 L 13.9476,38.5202 L 13.8001,38.4833 L 13.6568,38.432 L 13.5193,38.367 L 13.3889,38.2888
 L 13.2667,38.1982 L 13.154,38.096 L 13.0518,37.9833 L 12.9612,37.8611 L 12.883,37.7307 L 12.818,37.5932
 L 12.7667,37.4499 L 12.7298,37.3024 L 12.7075,37.1519 L 12.7,37 L 12.7075,36.8481 L 12.7298,36.6976
 L 12.7667,36.5501 L 12.818,36.4068 L 12.883,36.2693 L 12.9612,36.1389 L 13.0518,36.0167 L 13.154,35.904
 L 13.2667,35.8018 L 13.3889,35.7112 L 13.5193,35.633 L 13.6568,35.568 L 13.8001,35.5167 L 13.9476,35.4798
 L 14.0981,35.4575 L 14.25,35.45 L 14.4019,35.4575 L 14.5524,35.4798 L 14.6999,35.5167 L 14.8432,35.568
 L 14.9807,35.633 L 15.1111,35.7112 L 15.2333,35.8018 L 15.346,35.904 L 15.4482,36.0167 L 15.5388,36.1389
 L 15.617,36.2693 L 15.682,36.4068 L 15.7333,36.5501 L 15.7702,36.6976 L 15.7925,36.8481 L 15.8,37
 L 15.7925,37.1519 L 15.7702,37.3024 L 15.7333,37.4499 L 15.682,37.5932 L 15.617,37.7307 L 15.5388,37.8611
 L 15.4482,37.9833 L 15.346,38.096 L 15.2333,38.1982 L 15.1111,38.2888 L 14.9807,38.367 L 14.8432,38.432
 L 14.6999,38.4833 L 14.5524,38.5202 L 14.4019,38.5425 L 14.25,38.55 z
M -13.4019,38.7925 L -13.5524,38.7702 L -13.6999,38.7333 L -13.8432,38.682 L -13.9807,38.617 L -14.1111,38.5388
 L -14.2333,38.4482 L -14.346,38.346 L -14.4482,38.2333 L -14.5388,38.1111 L -14.617,37.9807 L -14.682,37.8432
 L -14.7333,37.6999 L -14.7702,37.5524 L -14.7925,37.4019 L -14.8,37.25 L -14.7925,37.0981 L -14.7702,36.9476
 L -14.7333,36.8001 L -14.682,36.6568 L -14.617,36.5193 L -14.5388,36.3889 L -14.4482,36.2667 L -14.346,36.154
 L -14.2333,36.0518 L -14.1111,35.9612 L -13.9807,35.883 L -13.8432,35.818 L -13.6999,35.7667 L -13.5524,35.7298
 L -13.4019,35.7075 L -13.25,35.7 L -13.0981,35.7075 L -12.9476,35.7298 L -12.8001,35.7667 L -12.6568,35.818
 L -12.5193,35.883 L -12.3889,35.9612 L -12.2667,36.0518 L -12.154,36.154 L -12.0518,36.2667 L -11.9612,36.3889
 L -11.883,36.5193 L -11.818,36.6568 L -11.7667,36.8001 L -11.7298,36.9476 L -11.7075,37.0981 L -11.7,37.25
 L -11.7075,37.4019 L -11.7298,37.5524 L -11.7667,37.6999 L -11.818,37.8432 L -11.883,37.9807 L -11.9612,38.1111
 L -12.0518,38.2333 L -12.154,38.346 L -12.2667,38.4482 L -12.3889,38.5388 L -12.5193,38.617 L -12.6568,38.682
 L -12.8001,38.7333 L -12.9476,38.7702 L -13.0981,38.7925 L -13.25,38.8 z
M 83.3432,49.0923 L 83.1879,49.0693 L 83.0355,49.0311 L 82.8877,48.9782 L 82.7458,48.9111 L 82.6111,48.8304
 L 82.485,48.7368 L 82.3686,48.6314 L 82.2632,48.515 L 82.1696,48.3889 L 82.0889,48.2542 L 82.0218,48.1123
 L 81.9689,47.9645 L 81.9307,47.8121 L 81.9077,47.6568 L 81.9,47.5 L 81.9077,47.3432 L 81.9307,47.1879
 L 81.9689,47.0355 L 82.0218,46.8877 L 82.0889,46.7458 L 82.1696,46.6111 L 82.2632,46.485 L 82.3686,46.3686
 L 82.485,46.2632 L 82.6111,46.1696 L 82.7458,46.0889 L 82.8877,46.0218 L 83.0355,45.9689 L 83.1879,45.9307
 L 83.3432,45.9077 L 83.5,45.9 L 83.6568,45.9077 L 83.8121,45.9307 L 83.9645,45.9689 L 84.1123,46.0218
 L 84.2542,46.0889 L 84.3889,46.1696 L 84.515,46.2632 L 84.6314,46.3686 L 84.7368,46.485 L 84.8304,46.6111
 L 84.9111,46.7458 L 84.9782,46.8877 L 85.0311,47.0355 L 85.0693,47.1879 L 85.0923,47.3432 L 85.1,47.5
 L 85.0923,47.6568 L 85.0693,47.8121 L 85.0311,47.9645 L 84.9782,48.1123 L 84.9111,48.2542 L 84.8304,48.3889
 L 84.7368,48.515 L 84.6314,48.6314 L 84.515,48.7368 L 84.3889,48.8304 L 84.2542,48.9111 L 84.1123,48.9782
 L 83.9645,49.0311 L 83.8121,49.0693 L 83.6568,49.0923 L 83.5,49.1 z
M -83.6568,49.0923 L -83.8121,49.0693 L -83.9645,49.0311 L -84.1123,48.9782 L -84.2542,48.9111 L -84.3889,48.8304
 L -84.515,48.7368 L -84.6314,48.6314 L -84.7368,48.515 L -84.8304,48.3889 L -84.9111,48.2542 L -84.9782,48.1123
 L -85.0311,47.9645 L -85.0693,47.8121 L -85.0923,47.6568 L -85.1,47.5 L -85.0923,47.3432 L -85.0693,47.1879
 L -85.0311,47.0355 L -84.9782,46.8877 L -84.9111,46.7458 L -84.8304,46.6111 L -84.7368,46.485 L -84.6314,46.3686
 L -84.515,46.2632 L -84.3889,46.1696 L -84.2542,46.0889 L -84.1123,46.0218 L -83.9645,45.9689 L -83.8121,45.9307
 L -83.6568,45.9077 L -83.5,45.9 L -83.3432,45.9077 L -83.1879,45.9307 L -83.0355,45.9689 L -82.8877,46.0218
 L -82.7458,46.0889 L -82.6111,46.1696 L -82.485,46.2632 L -82.3686,46.3686 L -82.2632,46.485 L -82.1696,46.6111
 L -82.0889,46.7458 L -82.0218,46.8877 L -81.9689,47.0355 L -81.9307,47.1879 L -81.9077,47.3432 L -81.9,47.5
 L -81.9077,47.6568 L -81.9307,47.8121 L -81.9689,47.9645 L -82.0218,48.1123 L -82.0889,48.2542 L -82.1696,48.3889
 L -82.2632,48.515 L -82.3686,48.6314 L -82.485,48.7368 L -82.6111,48.8304 L -82.7458,48.9111 L -82.8877,48.9782
 L -83.0355,49.0311 L -83.1879,49.0693 L -83.3432,49.0923 L -83.5,49.1 z
" stroke="black" fill="lightgray" stroke-width="0.5"/>
</svg>
