<?xml version="1.0" standalone="no"?>
<!DOCTYPE svg PUBLIC "-//W3C//DTD SVG 1.1//EN" "http://www.w3.org/Graphics/SVG/1.1/DTD/svg11.dtd">
<svg width="57mm" height="85mm" viewBox="-26 -41 57 85" xmlns="http://www.w3.org/2000/svg" version="1.1">
<title>OpenSCAD Model</title>
<path d="
M 14.25,-39.75 L 14.25,-40.75 L -13.75,-40.75 L -13.75,-39.75 z
M -24.25,-0 L -24.25,-30.5 L -25.25,-30.5 L -25.25,-0 z
M 27,3 L 25.25,3 L 25.25,-27.75 L 24.25,-27.75 L 24.25,4 L 27,4
 z
M 29.75,11.5 L 27,11.5 L 27,10.5 L 28,10.5 L 28,4 L 27,4
 L 27,10.5 L 25.25,10.5 L 25.25,12.5 L 29.75,12.5 z
M 25.25,19.25 L 29.75,19.25 L 29.75,18.25 L 30.75,18.25 L 30.75,12.5 L 29.75,12.5
 L 29.75,18.25 L 25.25,18.25 L 25.25,19.25 L 24.25,19.25 L 24.25,29.75 L 25.25,29.75
 z
M 6.5,40.75 L 6,40.75 L 6,42.5 L 6.5,42.5 z
M 6,42.5 L -6,42.5 L -6,40.75 L -6.5,40.75 L -6.5,42.75 L -7,42.75
 L -7,43.5 L 6,43.5 z
" stroke="black" fill="lightgray" stroke-width="0.5"/>
</svg>
