<?xml version="1.0" encoding="UTF-8" standalone="no"?>
<svg xmlns:inkscape="http://www.inkscape.org/namespaces/inkscape" xmlns:sodipodi="http://sodipodi.sourceforge.net/DTD/sodipodi-0.dtd" xmlns="http://www.w3.org/2000/svg" xmlns:svg="http://www.w3.org/2000/svg" version="1.1" stroke-linecap="round" stroke-linejoin="round" stroke-width="0" fill-rule="evenodd" clip-rule="evenodd" fill="currentColor" stroke="currentColor" id="svg4" sodipodi:docname="support.gbr.svg">
  <defs id="defs8"/>
  <sodipodi:namedview id="namedview6" pagecolor="#ffffff" bordercolor="#666666" borderopacity="1.0" inkscape:pageshadow="2" inkscape:pageopacity="0.0" inkscape:pagecheckerboard="0" inkscape:document-units="mm" showgrid="false"/>
  <path id="path2" d="m 28.952163,-35 a 5.202163,5.202163 0 0 1 -10.404326,0 5.202163,5.202163 0 0 1 10.404326,0 M 40,-43 H 10.25 v 12 h -13 v -19 h 11 v -1 H 40 v 8 m 29.667892,18.5 a 5.667892,5.667892 0 0 1 -11.335784,0 5.667892,5.667892 0 0 1 11.335784,0 M -2.75,-18 h 13 V 1 h -13 v -19 m 45.702163,43 a 5.202163,5.202163 0 0 1 -10.404326,0 5.202163,5.202163 0 0 1 10.404326,0 M 44,-14.75 a 4.353014,4.353014 0 0 1 -8.706028,0 4.353014,4.353014 0 0 1 8.706028,0 m 26.5,-35 h 12.75 v 11.5 H 70.5 v -11.5 m -45.646986,35.395899 a 4.353014,4.353014 0 0 1 -8.706028,0 4.353014,4.353014 0 0 1 8.706028,0 M 44,-13.5 H 57 V -9 H 44 v -4.5 m -0.25,-22 a 4.353014,4.353014 0 0 1 -8.706028,0 4.353014,4.353014 0 0 1 8.706028,0 m 24,25.25 H 81 V 1.25 H 67.75 v -11.5"/>
</svg>
