<?xml version="1.0" standalone="no"?>
<!DOCTYPE svg PUBLIC "-//W3C//DTD SVG 1.1//EN" "http://www.w3.org/Graphics/SVG/1.1/DTD/svg11.dtd">
<svg width="56mm" height="84mm" viewBox="-25 -41 56 84" xmlns="http://www.w3.org/2000/svg" version="1.1">
<title>OpenSCAD Model</title>
<path d="
M 24.75,29.75 L 24.75,18.75 L 30.25,18.75 L 30.25,12 L 24.75,12 L 24.75,11
 L 27.5,11 L 27.5,3.5 L 24.75,3.5 L 24.75,-27.75 L 14.25,-27.75 L 14.25,-40.25
 L -13.75,-40.25 L -13.75,-30.5 L -24.75,-30.5 L -24.75,-0 L -18.5,-0 L -18.5,29.75
 L -6.5,29.75 L -6.5,43 L 6.5,43 L 6.5,29.75 z
M -0.555551,-18.3594 L -1.10575,-18.441 L -1.6453,-18.5762 L -2.16901,-18.7636 L -2.67183,-19.0014 L -3.14891,-19.2873
 L -3.59567,-19.6187 L -4.0078,-19.9922 L -4.38134,-20.4043 L -4.71268,-20.8511 L -4.99863,-21.3282 L -5.23645,-21.831
 L -5.42383,-22.3547 L -5.55899,-22.8942 L -5.6406,-23.4444 L -5.66789,-24 L -5.6406,-24.5556 L -5.55899,-25.1058
 L -5.42383,-25.6453 L -5.23645,-26.169 L -4.99863,-26.6718 L -4.71268,-27.1489 L -4.38134,-27.5957 L -4.0078,-28.0078
 L -3.59567,-28.3813 L -3.14891,-28.7127 L -2.67183,-28.9986 L -2.16901,-29.2364 L -1.6453,-29.4238 L -1.10575,-29.559
 L -0.555551,-29.6406 L 0,-29.6679 L 0.555551,-29.6406 L 1.10575,-29.559 L 1.6453,-29.4238 L 2.16901,-29.2364
 L 2.67183,-28.9986 L 3.14891,-28.7127 L 3.59567,-28.3813 L 4.0078,-28.0078 L 4.38134,-27.5957 L 4.71268,-27.1489
 L 4.99863,-26.6718 L 5.23645,-26.169 L 5.42383,-25.6453 L 5.55899,-25.1058 L 5.6406,-24.5556 L 5.66789,-24
 L 5.6406,-23.4444 L 5.55899,-22.8942 L 5.42383,-22.3547 L 5.23645,-21.831 L 4.99863,-21.3282 L 4.71268,-20.8511
 L 4.38134,-20.4043 L 4.0078,-19.9922 L 3.59567,-19.6187 L 3.14891,-19.2873 L 2.67183,-19.0014 L 2.16901,-18.7636
 L 1.6453,-18.5762 L 1.10575,-18.441 L 0.555551,-18.3594 L 0,-18.3321 z
M 11,-4 L 11,-17 L 15.5,-17 L 15.5,-4 z
M 9.32333,4.68507 L 8.90077,4.62239 L 8.48639,4.51859 L 8.08417,4.37467 L 7.698,4.19203 L 7.33159,3.97241
 L 6.98848,3.71794 L 6.67195,3.43106 L 6.38507,3.11454 L 6.1306,2.77142 L 5.91098,2.40501 L 5.72834,2.01884
 L 5.58443,1.61663 L 5.48063,1.20224 L 5.41795,0.779684 L 5.39699,0.353014 L 5.41795,-0.073656 L 5.48063,-0.496217
 L 5.58443,-0.910599 L 5.72834,-1.31281 L 5.91098,-1.69898 L 6.1306,-2.06539 L 6.38507,-2.40851 L 6.67195,-2.72503
 L 6.98848,-3.01191 L 7.33159,-3.26638 L 7.698,-3.486 L 8.08417,-3.66865 L 8.48639,-3.81256 L 8.90077,-3.91636
 L 9.32333,-3.97904 L 9.75,-4 L 10.1767,-3.97904 L 10.5992,-3.91636 L 11.0136,-3.81256 L 11.4158,-3.66865
 L 11.802,-3.486 L 12.1684,-3.26638 L 12.5115,-3.01191 L 12.828,-2.72503 L 13.1149,-2.40851 L 13.3694,-2.06539
 L 13.589,-1.69898 L 13.7717,-1.31281 L 13.9156,-0.910599 L 14.0194,-0.496217 L 14.0821,-0.073656 L 14.103,0.353014
 L 14.0821,0.779684 L 14.0194,1.20224 L 13.9156,1.61663 L 13.7717,2.01884 L 13.589,2.40501 L 13.3694,2.77142
 L 13.1149,3.11454 L 12.828,3.43106 L 12.5115,3.71794 L 12.1684,3.97241 L 11.802,4.19203 L 11.4158,4.37467
 L 11.0136,4.51859 L 10.5992,4.62239 L 10.1767,4.68507 L 9.75,4.70603 z
M -11.4267,4.93507 L -11.8492,4.87239 L -12.2636,4.76859 L -12.6658,4.62467 L -13.052,4.44203 L -13.4184,4.22241
 L -13.7615,3.96794 L -14.078,3.68106 L -14.3649,3.36454 L -14.6194,3.02142 L -14.839,2.65501 L -15.0217,2.26884
 L -15.1656,1.86663 L -15.2694,1.45224 L -15.3321,1.02968 L -15.353,0.603014 L -15.3321,0.176344 L -15.2694,-0.246217
 L -15.1656,-0.660599 L -15.0217,-1.06281 L -14.839,-1.44898 L -14.6194,-1.81539 L -14.3649,-2.15851 L -14.078,-2.47503
 L -13.7615,-2.76191 L -13.4184,-3.01638 L -13.052,-3.236 L -12.6658,-3.41865 L -12.2636,-3.56256 L -11.8492,-3.66636
 L -11.4267,-3.72904 L -11,-3.75 L -10.5733,-3.72904 L -10.1508,-3.66636 L -9.73639,-3.56256 L -9.33417,-3.41865
 L -8.948,-3.236 L -8.58159,-3.01638 L -8.23848,-2.76191 L -7.92195,-2.47503 L -7.63507,-2.15851 L -7.3806,-1.81539
 L -7.16098,-1.44898 L -6.97834,-1.06281 L -6.83443,-0.660599 L -6.73063,-0.246217 L -6.66795,0.176344 L -6.64699,0.603014
 L -6.66795,1.02968 L -6.73063,1.45224 L -6.83443,1.86663 L -6.97834,2.26884 L -7.16098,2.65501 L -7.3806,3.02142
 L -7.63507,3.36454 L -7.92195,3.68106 L -8.23848,3.96794 L -8.58159,4.22241 L -8.948,4.44203 L -9.33417,4.62467
 L -9.73639,4.76859 L -10.1508,4.87239 L -10.5733,4.93507 L -11,4.95603 z
M -11.0099,21.4271 L -11.5149,21.3522 L -12.0101,21.2282 L -12.4908,21.0562 L -12.9523,20.8379 L -13.3902,20.5754
 L -13.8002,20.2713 L -14.1785,19.9285 L -14.5213,19.5502 L -14.8254,19.1402 L -15.0879,18.7023 L -15.3062,18.2408
 L -15.4782,17.7601 L -15.6022,17.2649 L -15.6771,16.7599 L -15.7022,16.25 L -15.6771,15.7401 L -15.6022,15.2351
 L -15.4782,14.7399 L -15.3062,14.2592 L -15.0879,13.7977 L -14.8254,13.3598 L -14.5213,12.9498 L -14.1785,12.5715
 L -13.8002,12.2287 L -13.3902,11.9246 L -12.9523,11.6621 L -12.4908,11.4438 L -12.0101,11.2718 L -11.5149,11.1478
 L -11.0099,11.0729 L -10.5,11.0478 L -9.9901,11.0729 L -9.48511,11.1478 L -8.98989,11.2718 L -8.50922,11.4438
 L -8.04772,11.6621 L -7.60983,11.9246 L -7.19978,12.2287 L -6.82152,12.5715 L -6.47867,12.9498 L -6.17456,13.3598
 L -5.9121,13.7977 L -5.69383,14.2592 L -5.52184,14.7399 L -5.3978,15.2351 L -5.32289,15.7401 L -5.29784,16.25
 L -5.32289,16.7599 L -5.3978,17.2649 L -5.52184,17.7601 L -5.69383,18.2408 L -5.9121,18.7023 L -6.17456,19.1402
 L -6.47867,19.5502 L -6.82152,19.9285 L -7.19978,20.2713 L -7.60983,20.5754 L -8.04772,20.8379 L -8.50922,21.0562
 L -8.98989,21.2282 L -9.48511,21.3522 L -9.9901,21.4271 L -10.5,21.4522 z
M 9.71923,23.8321 L 9.29667,23.7694 L 8.88229,23.6656 L 8.48007,23.5217 L 8.0939,23.339 L 7.72749,23.1194
 L 7.38438,22.8649 L 7.06785,22.578 L 6.78097,22.2615 L 6.5265,21.9184 L 6.30688,21.552 L 6.12424,21.1658
 L 5.98032,20.7636 L 5.87653,20.3492 L 5.81385,19.9267 L 5.79288,19.5 L 5.81385,19.0733 L 5.87653,18.6508
 L 5.98032,18.2364 L 6.12424,17.8342 L 6.30688,17.448 L 6.5265,17.0816 L 6.78097,16.7385 L 7.06785,16.422
 L 7.38438,16.1351 L 7.72749,15.8806 L 8.0939,15.661 L 8.48007,15.4783 L 8.88229,15.3344 L 9.29667,15.2306
 L 9.71923,15.1679 L 10.1459,15.147 L 10.5726,15.1679 L 10.9951,15.2306 L 11.4095,15.3344 L 11.8117,15.4783
 L 12.1979,15.661 L 12.5643,15.8806 L 12.9074,16.1351 L 13.2239,16.422 L 13.5108,16.7385 L 13.7653,17.0816
 L 13.9849,17.448 L 14.1676,17.8342 L 14.3115,18.2364 L 14.4153,18.6508 L 14.478,19.0733 L 14.4989,19.5
 L 14.478,19.9267 L 14.4153,20.3492 L 14.3115,20.7636 L 14.1676,21.1658 L 13.9849,21.552 L 13.7653,21.9184
 L 13.5108,22.2615 L 13.2239,22.578 L 12.9074,22.8649 L 12.5643,23.1194 L 12.1979,23.339 L 11.8117,23.5217
 L 11.4095,23.6656 L 10.9951,23.7694 L 10.5726,23.8321 L 10.1459,23.853 z
" stroke="black" fill="lightgray" stroke-width="0.5"/>
</svg>
