<?xml version="1.0" standalone="no"?>
<!DOCTYPE svg PUBLIC "-//W3C//DTD SVG 1.1//EN" "http://www.w3.org/Graphics/SVG/1.1/DTD/svg11.dtd">
<svg width="180mm" height="180mm" viewBox="-90 -90 180 180" xmlns="http://www.w3.org/2000/svg" version="1.1">
<title>OpenSCAD Model</title>
<path d="
M 87,89.9836 L 87.3136,89.9836 L 87.9271,89.8532 L 88.5,89.5981 L 89.0074,89.2294 L 89.4271,88.7634
 L 89.7406,88.2202 L 89.9344,87.6237 L 90,87 L 90,-87 L 89.9344,-87.6237 L 89.7406,-88.2202
 L 89.4271,-88.7634 L 89.0074,-89.2294 L 88.5,-89.5981 L 87.9271,-89.8532 L 87.3136,-89.9836 L 87,-89.9836
 L 87,-90 L -87,-90 L -87,-89.9836 L -87.3136,-89.9836 L -87.9271,-89.8532 L -88.5,-89.5981
 L -89.0074,-89.2294 L -89.4271,-88.7634 L -89.7406,-88.2202 L -89.9344,-87.6237 L -90,-87 L -90,87
 L -89.9344,87.6237 L -89.7406,88.2202 L -89.4271,88.7634 L -89.0074,89.2294 L -88.5,89.5981 L -87.9271,89.8532
 L -87.3136,89.9836 L -87,89.9836 L -87,90 L 87,90 z
M 74.7387,-81.0137 L 74.2275,-81.1224 L 73.75,-81.3349 L 73.3272,-81.6421 L 72.9775,-82.0305 L 72.7161,-82.4832
 L 72.5546,-82.9802 L 72.5,-83.5 L 72.5546,-84.0198 L 72.7161,-84.5168 L 72.9775,-84.9695 L 73.3272,-85.3579
 L 73.75,-85.6651 L 74.2275,-85.8776 L 74.7387,-85.9863 L 75.2613,-85.9863 L 75.7725,-85.8776 L 76.25,-85.6651
 L 76.6728,-85.3579 L 77.0225,-84.9695 L 77.2839,-84.5168 L 77.4454,-84.0198 L 77.5,-83.5 L 77.4454,-82.9802
 L 77.2839,-82.4832 L 77.0225,-82.0305 L 76.6728,-81.6421 L 76.25,-81.3349 L 75.7725,-81.1224 L 75.2613,-81.0137
 z
M -75.2613,-81.0137 L -75.7725,-81.1224 L -76.25,-81.3349 L -76.6728,-81.6421 L -77.0225,-82.0305 L -77.2839,-82.4832
 L -77.4454,-82.9802 L -77.5,-83.5 L -77.4454,-84.0198 L -77.2839,-84.5168 L -77.0225,-84.9695 L -76.6728,-85.3579
 L -76.25,-85.6651 L -75.7725,-85.8776 L -75.2613,-85.9863 L -74.7387,-85.9863 L -74.2275,-85.8776 L -73.75,-85.6651
 L -73.3272,-85.3579 L -72.9775,-84.9695 L -72.7161,-84.5168 L -72.5546,-84.0198 L -72.5,-83.5 L -72.5546,-82.9802
 L -72.7161,-82.4832 L -72.9775,-82.0305 L -73.3272,-81.6421 L -73.75,-81.3349 L -74.2275,-81.1224 L -74.7387,-81.0137
 z
M 83.2387,-72.5137 L 82.7275,-72.6224 L 82.25,-72.8349 L 81.8272,-73.1421 L 81.4775,-73.5305 L 81.2161,-73.9832
 L 81.0546,-74.4802 L 81,-75 L 81.0546,-75.5198 L 81.2161,-76.0168 L 81.4775,-76.4695 L 81.8272,-76.8579
 L 82.25,-77.1651 L 82.7275,-77.3776 L 83.2387,-77.4863 L 83.7613,-77.4863 L 84.2725,-77.3776 L 84.75,-77.1651
 L 85.1728,-76.8579 L 85.5225,-76.4695 L 85.7839,-76.0168 L 85.9454,-75.5198 L 86,-75 L 85.9454,-74.4802
 L 85.7839,-73.9832 L 85.5225,-73.5305 L 85.1728,-73.1421 L 84.75,-72.8349 L 84.2725,-72.6224 L 83.7613,-72.5137
 z
M -83.7613,-72.5137 L -84.2725,-72.6224 L -84.75,-72.8349 L -85.1728,-73.1421 L -85.5225,-73.5305 L -85.7839,-73.9832
 L -85.9454,-74.4802 L -86,-75 L -85.9454,-75.5198 L -85.7839,-76.0168 L -85.5225,-76.4695 L -85.1728,-76.8579
 L -84.75,-77.1651 L -84.2725,-77.3776 L -83.7613,-77.4863 L -83.2387,-77.4863 L -82.7275,-77.3776 L -82.25,-77.1651
 L -81.8272,-76.8579 L -81.4775,-76.4695 L -81.2161,-76.0168 L -81.0546,-75.5198 L -81,-75 L -81.0546,-74.4802
 L -81.2161,-73.9832 L -81.4775,-73.5305 L -81.8272,-73.1421 L -82.25,-72.8349 L -82.7275,-72.6224 L -83.2387,-72.5137
 z
M -37.3461,51.1811 L -37.6529,51.1159 L -37.9393,50.9884 L -38.193,50.8041 L -38.2417,50.75 L -38.25,50.75
 L -38.25,50.7408 L -38.4029,50.571 L -38.5597,50.2994 L -38.6566,50.0012 L -38.6893,49.6893 L -38.6566,49.3775
 L -38.5597,49.0792 L -38.4029,48.8077 L -38.25,48.6379 L -38.25,-48.6379 L -38.4029,-48.8077 L -38.5597,-49.0792
 L -38.6566,-49.3775 L -38.6893,-49.6893 L -38.6566,-50.0012 L -38.5597,-50.2994 L -38.4029,-50.571 L -38.25,-50.7408
 L -38.25,-50.75 L -38.2417,-50.75 L -38.193,-50.8041 L -37.9393,-50.9884 L -37.6529,-51.1159 L -37.3461,-51.1811
 L -37.0325,-51.1811 L -36.7258,-51.1159 L -36.4393,-50.9884 L -36.1856,-50.8041 L -36.137,-50.75 L 36.137,-50.75
 L 36.1856,-50.8041 L 36.4393,-50.9884 L 36.7258,-51.1159 L 37.0325,-51.1811 L 37.3461,-51.1811 L 37.6529,-51.1159
 L 37.9393,-50.9884 L 38.193,-50.8041 L 38.2417,-50.75 L 38.25,-50.75 L 38.25,-50.7408 L 38.4029,-50.571
 L 38.5597,-50.2994 L 38.6566,-50.0012 L 38.6893,-49.6893 L 38.6566,-49.3775 L 38.5597,-49.0792 L 38.4029,-48.8077
 L 38.25,-48.6379 L 38.25,48.6379 L 38.4029,48.8077 L 38.5597,49.0792 L 38.6566,49.3775 L 38.6893,49.6893
 L 38.6566,50.0012 L 38.5597,50.2994 L 38.4029,50.571 L 38.25,50.7408 L 38.25,50.75 L 38.2417,50.75
 L 38.193,50.8041 L 37.9393,50.9884 L 37.6529,51.1159 L 37.3461,51.1811 L 37.0325,51.1811 L 36.7258,51.1159
 L 36.4393,50.9884 L 36.1856,50.8041 L 36.137,50.75 L -36.137,50.75 L -36.1856,50.8041 L -36.4393,50.9884
 L -36.7258,51.1159 L -37.0325,51.1811 z
M -45.1976,-23.5204 L -45.584,-23.6025 L -45.945,-23.7632 L -46.2647,-23.9955 L -46.529,-24.2891 L -46.7266,-24.6313
 L -46.8487,-25.007 L -46.89,-25.4 L -46.8487,-25.793 L -46.7266,-26.1687 L -46.529,-26.5109 L -46.2647,-26.8045
 L -45.945,-27.0368 L -45.584,-27.1975 L -45.1976,-27.2796 L -44.8024,-27.2796 L -44.416,-27.1975 L -44.055,-27.0368
 L -43.7353,-26.8045 L -43.471,-26.5109 L -43.2734,-26.1687 L -43.1513,-25.793 L -43.11,-25.4 L -43.1513,-25.007
 L -43.2734,-24.6313 L -43.471,-24.2891 L -43.7353,-23.9955 L -44.055,-23.7632 L -44.416,-23.6025 L -44.8024,-23.5204
 z
M 44.8024,-23.5204 L 44.416,-23.6025 L 44.055,-23.7632 L 43.7353,-23.9955 L 43.471,-24.2891 L 43.2734,-24.6313
 L 43.1513,-25.007 L 43.11,-25.4 L 43.1513,-25.793 L 43.2734,-26.1687 L 43.471,-26.5109 L 43.7353,-26.8045
 L 44.055,-27.0368 L 44.416,-27.1975 L 44.8024,-27.2796 L 45.1976,-27.2796 L 45.584,-27.1975 L 45.945,-27.0368
 L 46.2647,-26.8045 L 46.529,-26.5109 L 46.7266,-26.1687 L 46.8487,-25.793 L 46.89,-25.4 L 46.8487,-25.007
 L 46.7266,-24.6313 L 46.529,-24.2891 L 46.2647,-23.9955 L 45.945,-23.7632 L 45.584,-23.6025 L 45.1976,-23.5204
 z
M 44.8024,1.87965 L 44.416,1.7975 L 44.055,1.63679 L 43.7353,1.40454 L 43.471,1.11091 L 43.2734,0.768732
 L 43.1513,0.392953 L 43.11,-0 L 43.1513,-0.392953 L 43.2734,-0.768732 L 43.471,-1.11091 L 43.7353,-1.40454
 L 44.055,-1.63679 L 44.416,-1.7975 L 44.8024,-1.87965 L 45.1976,-1.87965 L 45.584,-1.7975 L 45.945,-1.63679
 L 46.2647,-1.40454 L 46.529,-1.11091 L 46.7266,-0.768732 L 46.8487,-0.392953 L 46.89,-0 L 46.8487,0.392953
 L 46.7266,0.768732 L 46.529,1.11091 L 46.2647,1.40454 L 45.945,1.63679 L 45.584,1.7975 L 45.1976,1.87965
 z
M -45.1976,1.87965 L -45.584,1.7975 L -45.945,1.63679 L -46.2647,1.40454 L -46.529,1.11091 L -46.7266,0.768732
 L -46.8487,0.392953 L -46.89,-0 L -46.8487,-0.392953 L -46.7266,-0.768732 L -46.529,-1.11091 L -46.2647,-1.40454
 L -45.945,-1.63679 L -45.584,-1.7975 L -45.1976,-1.87965 L -44.8024,-1.87965 L -44.416,-1.7975 L -44.055,-1.63679
 L -43.7353,-1.40454 L -43.471,-1.11091 L -43.2734,-0.768732 L -43.1513,-0.392953 L -43.11,-0 L -43.1513,0.392953
 L -43.2734,0.768732 L -43.471,1.11091 L -43.7353,1.40454 L -44.055,1.63679 L -44.416,1.7975 L -44.8024,1.87965
 z
M 44.8024,27.2796 L 44.416,27.1975 L 44.055,27.0368 L 43.7353,26.8045 L 43.471,26.5109 L 43.2734,26.1687
 L 43.1513,25.793 L 43.11,25.4 L 43.1513,25.007 L 43.2734,24.6313 L 43.471,24.2891 L 43.7353,23.9955
 L 44.055,23.7632 L 44.416,23.6025 L 44.8024,23.5204 L 45.1976,23.5204 L 45.584,23.6025 L 45.945,23.7632
 L 46.2647,23.9955 L 46.529,24.2891 L 46.7266,24.6313 L 46.8487,25.007 L 46.89,25.4 L 46.8487,25.793
 L 46.7266,26.1687 L 46.529,26.5109 L 46.2647,26.8045 L 45.945,27.0368 L 45.584,27.1975 L 45.1976,27.2796
 z
M -45.1976,27.2796 L -45.584,27.1975 L -45.945,27.0368 L -46.2647,26.8045 L -46.529,26.5109 L -46.7266,26.1687
 L -46.8487,25.793 L -46.89,25.4 L -46.8487,25.007 L -46.7266,24.6313 L -46.529,24.2891 L -46.2647,23.9955
 L -45.945,23.7632 L -45.584,23.6025 L -45.1976,23.5204 L -44.8024,23.5204 L -44.416,23.6025 L -44.055,23.7632
 L -43.7353,23.9955 L -43.471,24.2891 L -43.2734,24.6313 L -43.1513,25.007 L -43.11,25.4 L -43.1513,25.793
 L -43.2734,26.1687 L -43.471,26.5109 L -43.7353,26.8045 L -44.055,27.0368 L -44.416,27.1975 L -44.8024,27.2796
 z
M 83.2387,77.4863 L 82.7275,77.3776 L 82.25,77.1651 L 81.8272,76.8579 L 81.4775,76.4695 L 81.2161,76.0168
 L 81.0546,75.5198 L 81,75 L 81.0546,74.4802 L 81.2161,73.9832 L 81.4775,73.5305 L 81.8272,73.1421
 L 82.25,72.8349 L 82.7275,72.6224 L 83.2387,72.5137 L 83.7613,72.5137 L 84.2725,72.6224 L 84.75,72.8349
 L 85.1728,73.1421 L 85.5225,73.5305 L 85.7839,73.9832 L 85.9454,74.4802 L 86,75 L 85.9454,75.5198
 L 85.7839,76.0168 L 85.5225,76.4695 L 85.1728,76.8579 L 84.75,77.1651 L 84.2725,77.3776 L 83.7613,77.4863
 z
M -83.7613,77.4863 L -84.2725,77.3776 L -84.75,77.1651 L -85.1728,76.8579 L -85.5225,76.4695 L -85.7839,76.0168
 L -85.9454,75.5198 L -86,75 L -85.9454,74.4802 L -85.7839,73.9832 L -85.5225,73.5305 L -85.1728,73.1421
 L -84.75,72.8349 L -84.2725,72.6224 L -83.7613,72.5137 L -83.2387,72.5137 L -82.7275,72.6224 L -82.25,72.8349
 L -81.8272,73.1421 L -81.4775,73.5305 L -81.2161,73.9832 L -81.0546,74.4802 L -81,75 L -81.0546,75.5198
 L -81.2161,76.0168 L -81.4775,76.4695 L -81.8272,76.8579 L -82.25,77.1651 L -82.7275,77.3776 L -83.2387,77.4863
 z
M 74.7387,85.9863 L 74.2275,85.8776 L 73.75,85.6651 L 73.3272,85.3579 L 72.9775,84.9695 L 72.7161,84.5168
 L 72.5546,84.0198 L 72.5,83.5 L 72.5546,82.9802 L 72.7161,82.4832 L 72.9775,82.0305 L 73.3272,81.6421
 L 73.75,81.3349 L 74.2275,81.1224 L 74.7387,81.0137 L 75.2613,81.0137 L 75.7725,81.1224 L 76.25,81.3349
 L 76.6728,81.6421 L 77.0225,82.0305 L 77.2839,82.4832 L 77.4454,82.9802 L 77.5,83.5 L 77.4454,84.0198
 L 77.2839,84.5168 L 77.0225,84.9695 L 76.6728,85.3579 L 76.25,85.6651 L 75.7725,85.8776 L 75.2613,85.9863
 z
M -75.2613,85.9863 L -75.7725,85.8776 L -76.25,85.6651 L -76.6728,85.3579 L -77.0225,84.9695 L -77.2839,84.5168
 L -77.4454,84.0198 L -77.5,83.5 L -77.4454,82.9802 L -77.2839,82.4832 L -77.0225,82.0305 L -76.6728,81.6421
 L -76.25,81.3349 L -75.7725,81.1224 L -75.2613,81.0137 L -74.7387,81.0137 L -74.2275,81.1224 L -73.75,81.3349
 L -73.3272,81.6421 L -72.9775,82.0305 L -72.7161,82.4832 L -72.5546,82.9802 L -72.5,83.5 L -72.5546,84.0198
 L -72.7161,84.5168 L -72.9775,84.9695 L -73.3272,85.3579 L -73.75,85.6651 L -74.2275,85.8776 L -74.7387,85.9863
 z
" stroke="black" fill="lightgray" stroke-width="0.5"/>
</svg>
