<?xml version="1.0" standalone="no"?>
<!DOCTYPE svg PUBLIC "-//W3C//DTD SVG 1.1//EN" "http://www.w3.org/Graphics/SVG/1.1/DTD/svg11.dtd">
<svg width="47mm" height="47mm" viewBox="-24 -24 47 47" xmlns="http://www.w3.org/2000/svg" version="1.1">
<title>OpenSCAD Model</title>
<path d="
M 20.2768,22.9872 L 20.5512,22.9489 L 20.821,22.8855 L 21.0837,22.7974 L 21.3372,22.6855 L 21.5793,22.5507
 L 21.8079,22.3941 L 22.0211,22.217 L 22.217,22.0211 L 22.394,21.8079 L 22.5506,21.5793 L 22.6855,21.3372
 L 22.7974,21.0837 L 22.8855,20.821 L 22.9489,20.5512 L 22.9872,20.2768 L 23,20 L 23,20
 L 23,-20 L 22.9855,-20.2941 L 22.9423,-20.5853 L 22.8708,-20.8709 L 22.7716,-21.1481 L 22.6457,-21.4142
 L 22.4944,-21.6667 L 22.319,-21.9032 L 22.1213,-22.1213 L 21.9032,-22.319 L 21.6667,-22.4944 L 21.4142,-22.6458
 L 21.148,-22.7716 L 20.8708,-22.8708 L 20.5853,-22.9424 L 20.294,-22.9856 L 20,-23 L -20,-23
 L -20.2941,-22.9856 L -20.5853,-22.9424 L -20.8709,-22.8708 L -21.1481,-22.7716 L -21.4142,-22.6458 L -21.6667,-22.4944
 L -21.9032,-22.319 L -22.1213,-22.1213 L -22.319,-21.9032 L -22.4944,-21.6667 L -22.6458,-21.4142 L -22.7717,-21.1481
 L -22.8708,-20.8709 L -22.9424,-20.5853 L -22.9856,-20.2941 L -23,-20 L -23,20 L -22.9872,20.2768
 L -22.9489,20.5512 L -22.8855,20.821 L -22.7974,21.0837 L -22.6855,21.3372 L -22.5507,21.5793 L -22.3941,21.8079
 L -22.217,22.0211 L -22.0211,22.217 L -21.8079,22.3941 L -21.5793,22.5507 L -21.3372,22.6855 L -21.0837,22.7974
 L -20.821,22.8855 L -20.5513,22.9489 L -20.2768,22.9872 L -20,23 L -20,23 L 20,23
 z
" stroke="black" fill="lightgray" stroke-width="0.5"/>
</svg>
