<?xml version="1.0" standalone="no"?>
<!DOCTYPE svg PUBLIC "-//W3C//DTD SVG 1.1//EN" "http://www.w3.org/Graphics/SVG/1.1/DTD/svg11.dtd">
<svg width="64mm" height="64mm" viewBox="-32 -32 64 64" xmlns="http://www.w3.org/2000/svg" version="1.1">
<title>OpenSCAD Model</title>
<path d="
M 31.25,-31.25 L -31.25,-31.25 L -31.25,31.25 L 31.25,31.25 z
M -26.4264,-24.4587 L -26.6012,-24.4846 L -26.7725,-24.5275 L -26.9388,-24.587 L -27.0985,-24.6625 L -27.25,-24.7534
 L -27.3919,-24.8586 L -27.5228,-24.9772 L -27.6414,-25.1081 L -27.7466,-25.25 L -27.8375,-25.4015 L -27.913,-25.5612
 L -27.9725,-25.7275 L -28.0154,-25.8988 L -28.0413,-26.0736 L -28.05,-26.25 L -28.0413,-26.4264 L -28.0154,-26.6012
 L -27.9725,-26.7725 L -27.913,-26.9388 L -27.8375,-27.0985 L -27.7466,-27.25 L -27.6414,-27.3919 L -27.5228,-27.5228
 L -27.3919,-27.6414 L -27.25,-27.7466 L -27.0985,-27.8375 L -26.9388,-27.913 L -26.7725,-27.9725 L -26.6012,-28.0154
 L -26.4264,-28.0413 L -26.25,-28.05 L -26.0736,-28.0413 L -25.8988,-28.0154 L -25.7275,-27.9725 L -25.5612,-27.913
 L -25.4015,-27.8375 L -25.25,-27.7466 L -25.1081,-27.6414 L -24.9772,-27.5228 L -24.8586,-27.3919 L -24.7534,-27.25
 L -24.6625,-27.0985 L -24.587,-26.9388 L -24.5275,-26.7725 L -24.4846,-26.6012 L -24.4587,-26.4264 L -24.45,-26.25
 L -24.4587,-26.0736 L -24.4846,-25.8988 L -24.5275,-25.7275 L -24.587,-25.5612 L -24.6625,-25.4015 L -24.7534,-25.25
 L -24.8586,-25.1081 L -24.9772,-24.9772 L -25.1081,-24.8586 L -25.25,-24.7534 L -25.4015,-24.6625 L -25.5612,-24.587
 L -25.7275,-24.5275 L -25.8988,-24.4846 L -26.0736,-24.4587 L -26.25,-24.45 z
M 26.0736,-24.4587 L 25.8988,-24.4846 L 25.7275,-24.5275 L 25.5612,-24.587 L 25.4015,-24.6625 L 25.25,-24.7534
 L 25.1081,-24.8586 L 24.9772,-24.9772 L 24.8586,-25.1081 L 24.7534,-25.25 L 24.6625,-25.4015 L 24.587,-25.5612
 L 24.5275,-25.7275 L 24.4846,-25.8988 L 24.4587,-26.0736 L 24.45,-26.25 L 24.4587,-26.4264 L 24.4846,-26.6012
 L 24.5275,-26.7725 L 24.587,-26.9388 L 24.6625,-27.0985 L 24.7534,-27.25 L 24.8586,-27.3919 L 24.9772,-27.5228
 L 25.1081,-27.6414 L 25.25,-27.7466 L 25.4015,-27.8375 L 25.5612,-27.913 L 25.7275,-27.9725 L 25.8988,-28.0154
 L 26.0736,-28.0413 L 26.25,-28.05 L 26.4264,-28.0413 L 26.6012,-28.0154 L 26.7725,-27.9725 L 26.9388,-27.913
 L 27.0985,-27.8375 L 27.25,-27.7466 L 27.3919,-27.6414 L 27.5228,-27.5228 L 27.6414,-27.3919 L 27.7466,-27.25
 L 27.8375,-27.0985 L 27.913,-26.9388 L 27.9725,-26.7725 L 28.0154,-26.6012 L 28.0413,-26.4264 L 28.05,-26.25
 L 28.0413,-26.0736 L 28.0154,-25.8988 L 27.9725,-25.7275 L 27.913,-25.5612 L 27.8375,-25.4015 L 27.7466,-25.25
 L 27.6414,-25.1081 L 27.5228,-24.9772 L 27.3919,-24.8586 L 27.25,-24.7534 L 27.0985,-24.6625 L 26.9388,-24.587
 L 26.7725,-24.5275 L 26.6012,-24.4846 L 26.4264,-24.4587 L 26.25,-24.45 z
M -26.4264,28.0413 L -26.6012,28.0154 L -26.7725,27.9725 L -26.9388,27.913 L -27.0985,27.8375 L -27.25,27.7466
 L -27.3919,27.6414 L -27.5228,27.5228 L -27.6414,27.3919 L -27.7466,27.25 L -27.8375,27.0985 L -27.913,26.9388
 L -27.9725,26.7725 L -28.0154,26.6012 L -28.0413,26.4264 L -28.05,26.25 L -28.0413,26.0736 L -28.0154,25.8988
 L -27.9725,25.7275 L -27.913,25.5612 L -27.8375,25.4015 L -27.7466,25.25 L -27.6414,25.1081 L -27.5228,24.9772
 L -27.3919,24.8586 L -27.25,24.7534 L -27.0985,24.6625 L -26.9388,24.587 L -26.7725,24.5275 L -26.6012,24.4846
 L -26.4264,24.4587 L -26.25,24.45 L -26.0736,24.4587 L -25.8988,24.4846 L -25.7275,24.5275 L -25.5612,24.587
 L -25.4015,24.6625 L -25.25,24.7534 L -25.1081,24.8586 L -24.9772,24.9772 L -24.8586,25.1081 L -24.7534,25.25
 L -24.6625,25.4015 L -24.587,25.5612 L -24.5275,25.7275 L -24.4846,25.8988 L -24.4587,26.0736 L -24.45,26.25
 L -24.4587,26.4264 L -24.4846,26.6012 L -24.5275,26.7725 L -24.587,26.9388 L -24.6625,27.0985 L -24.7534,27.25
 L -24.8586,27.3919 L -24.9772,27.5228 L -25.1081,27.6414 L -25.25,27.7466 L -25.4015,27.8375 L -25.5612,27.913
 L -25.7275,27.9725 L -25.8988,28.0154 L -26.0736,28.0413 L -26.25,28.05 z
M 26.0736,28.0413 L 25.8988,28.0154 L 25.7275,27.9725 L 25.5612,27.913 L 25.4015,27.8375 L 25.25,27.7466
 L 25.1081,27.6414 L 24.9772,27.5228 L 24.8586,27.3919 L 24.7534,27.25 L 24.6625,27.0985 L 24.587,26.9388
 L 24.5275,26.7725 L 24.4846,26.6012 L 24.4587,26.4264 L 24.45,26.25 L 24.4587,26.0736 L 24.4846,25.8988
 L 24.5275,25.7275 L 24.587,25.5612 L 24.6625,25.4015 L 24.7534,25.25 L 24.8586,25.1081 L 24.9772,24.9772
 L 25.1081,24.8586 L 25.25,24.7534 L 25.4015,24.6625 L 25.5612,24.587 L 25.7275,24.5275 L 25.8988,24.4846
 L 26.0736,24.4587 L 26.25,24.45 L 26.4264,24.4587 L 26.6012,24.4846 L 26.7725,24.5275 L 26.9388,24.587
 L 27.0985,24.6625 L 27.25,24.7534 L 27.3919,24.8586 L 27.5228,24.9772 L 27.6414,25.1081 L 27.7466,25.25
 L 27.8375,25.4015 L 27.913,25.5612 L 27.9725,25.7275 L 28.0154,25.8988 L 28.0413,26.0736 L 28.05,26.25
 L 28.0413,26.4264 L 28.0154,26.6012 L 27.9725,26.7725 L 27.913,26.9388 L 27.8375,27.0985 L 27.7466,27.25
 L 27.6414,27.3919 L 27.5228,27.5228 L 27.3919,27.6414 L 27.25,27.7466 L 27.0985,27.8375 L 26.9388,27.913
 L 26.7725,27.9725 L 26.6012,28.0154 L 26.4264,28.0413 L 26.25,28.05 z
" stroke="black" fill="lightgray" stroke-width="0.5"/>
</svg>
