<?xml version="1.0" standalone="no"?>
<!DOCTYPE svg PUBLIC "-//W3C//DTD SVG 1.1//EN" "http://www.w3.org/Graphics/SVG/1.1/DTD/svg11.dtd">
<svg width="46mm" height="46mm" viewBox="-23 -23 46 46" xmlns="http://www.w3.org/2000/svg" version="1.1">
<title>OpenSCAD Model</title>
<path d="
M 20.2894,-17.2531 L 20.5564,-17.2927 L 20.8182,-17.3583 L 21.0723,-17.4492 L 21.3162,-17.5646 L 21.5477,-17.7033
 L 21.7645,-17.8641 L 21.9644,-18.0453 L 22.1457,-18.2453 L 22.3064,-18.4621 L 22.4452,-18.6935 L 22.5606,-18.9375
 L 22.6515,-19.1916 L 22.7171,-19.4534 L 22.7567,-19.7203 L 22.7699,-19.9899 L 22.7567,-20.2594 L 22.7171,-20.5264
 L 22.6515,-20.7882 L 22.5606,-21.0423 L 22.4452,-21.2862 L 22.3064,-21.5177 L 22.1457,-21.7345 L 21.9644,-21.9344
 L 21.7645,-22.1157 L 21.5477,-22.2764 L 21.3162,-22.4152 L 21.0723,-22.5306 L 20.8182,-22.6215 L 20.5564,-22.687
 L 20.2894,-22.7266 L 20.0199,-22.7399 L 19.7503,-22.7266 L 19.4834,-22.687 L 19.2216,-22.6215 L 18.9675,-22.5306
 L 18.7236,-22.4152 L 18.4921,-22.2764 L 18.2753,-22.1157 L 18.0754,-21.9344 L 17.8941,-21.7345 L 17.7334,-21.5177
 L 17.5946,-21.2862 L 17.4792,-21.0423 L 17.3883,-20.7882 L 17.3227,-20.5264 L 17.2831,-20.2594 L 17.2699,-19.9899
 L 17.2831,-19.7203 L 17.3227,-19.4534 L 17.3883,-19.1916 L 17.4792,-18.9375 L 17.5946,-18.6935 L 17.7334,-18.4621
 L 17.8941,-18.2453 L 18.0754,-18.0453 L 18.2753,-17.8641 L 18.4921,-17.7033 L 18.7236,-17.5646 L 18.9675,-17.4492
 L 19.2216,-17.3583 L 19.4834,-17.2927 L 19.7503,-17.2531 L 20.0199,-17.2399 z
M -19.7106,-17.2531 L -19.4436,-17.2927 L -19.1818,-17.3583 L -18.9277,-17.4492 L -18.6838,-17.5646 L -18.4523,-17.7033
 L -18.2355,-17.8641 L -18.0356,-18.0453 L -17.8543,-18.2453 L -17.6936,-18.4621 L -17.5548,-18.6935 L -17.4394,-18.9375
 L -17.3485,-19.1916 L -17.2829,-19.4534 L -17.2433,-19.7203 L -17.2301,-19.9899 L -17.2433,-20.2594 L -17.2829,-20.5264
 L -17.3485,-20.7882 L -17.4394,-21.0423 L -17.5548,-21.2862 L -17.6936,-21.5177 L -17.8543,-21.7345 L -18.0356,-21.9344
 L -18.2355,-22.1157 L -18.4523,-22.2764 L -18.6838,-22.4152 L -18.9277,-22.5306 L -19.1818,-22.6215 L -19.4436,-22.687
 L -19.7106,-22.7266 L -19.9801,-22.7399 L -20.2497,-22.7266 L -20.5166,-22.687 L -20.7784,-22.6215 L -21.0325,-22.5306
 L -21.2764,-22.4152 L -21.5079,-22.2764 L -21.7247,-22.1157 L -21.9246,-21.9344 L -22.1059,-21.7345 L -22.2666,-21.5177
 L -22.4054,-21.2862 L -22.5208,-21.0423 L -22.6117,-20.7882 L -22.6773,-20.5264 L -22.7169,-20.2594 L -22.7301,-19.9899
 L -22.7169,-19.7203 L -22.6773,-19.4534 L -22.6117,-19.1916 L -22.5208,-18.9375 L -22.4054,-18.6935 L -22.2666,-18.4621
 L -22.1059,-18.2453 L -21.9246,-18.0453 L -21.7247,-17.8641 L -21.5079,-17.7033 L -21.2764,-17.5646 L -21.0325,-17.4492
 L -20.7784,-17.3583 L -20.5166,-17.2927 L -20.2497,-17.2531 L -19.9801,-17.2399 z
M 11.2779,-18.2947 L 11.375,-18.3091 L 11.4702,-18.3329 L 11.5626,-18.366 L 11.6513,-18.408 L 11.7355,-18.4584
 L 11.8143,-18.5169 L 11.887,-18.5828 L 11.9529,-18.6555 L 12.0114,-18.7343 L 12.0618,-18.8185 L 12.1038,-18.9072
 L 12.1368,-18.9996 L 12.1607,-19.0948 L 12.1751,-19.1919 L 12.1799,-19.2899 L 12.1751,-19.3879 L 12.1607,-19.485
 L 12.1368,-19.5802 L 12.1038,-19.6726 L 12.0618,-19.7613 L 12.0114,-19.8455 L 11.9529,-19.9243 L 11.887,-19.997
 L 11.8143,-20.0629 L 11.7355,-20.1214 L 11.6513,-20.1718 L 11.5626,-20.2138 L 11.4702,-20.2468 L 11.375,-20.2707
 L 11.2779,-20.2851 L 11.1799,-20.2899 L 11.0819,-20.2851 L 10.9848,-20.2707 L 10.8896,-20.2468 L 10.7972,-20.2138
 L 10.7085,-20.1718 L 10.6243,-20.1214 L 10.5455,-20.0629 L 10.4728,-19.997 L 10.4069,-19.9243 L 10.3484,-19.8455
 L 10.298,-19.7613 L 10.256,-19.6726 L 10.223,-19.5802 L 10.1991,-19.485 L 10.1847,-19.3879 L 10.1799,-19.2899
 L 10.1847,-19.1919 L 10.1991,-19.0948 L 10.223,-18.9996 L 10.256,-18.9072 L 10.298,-18.8185 L 10.3484,-18.7343
 L 10.4069,-18.6555 L 10.4728,-18.5828 L 10.5455,-18.5169 L 10.6243,-18.4584 L 10.7085,-18.408 L 10.7972,-18.366
 L 10.8896,-18.3329 L 10.9848,-18.3091 L 11.0819,-18.2947 L 11.1799,-18.2899 z
M -6.50209,-18.2947 L -6.40501,-18.3091 L -6.30982,-18.3329 L -6.21742,-18.366 L -6.12871,-18.408 L -6.04453,-18.4584
 L -5.96571,-18.5169 L -5.893,-18.5828 L -5.82709,-18.6555 L -5.76863,-18.7343 L -5.71818,-18.8185 L -5.67622,-18.9072
 L -5.64316,-18.9996 L -5.61932,-19.0948 L -5.60492,-19.1919 L -5.6001,-19.2899 L -5.60492,-19.3879 L -5.61932,-19.485
 L -5.64316,-19.5802 L -5.67622,-19.6726 L -5.71818,-19.7613 L -5.76863,-19.8455 L -5.82709,-19.9243 L -5.893,-19.997
 L -5.96571,-20.0629 L -6.04453,-20.1214 L -6.12871,-20.1718 L -6.21742,-20.2138 L -6.30982,-20.2468 L -6.40501,-20.2707
 L -6.50209,-20.2851 L -6.6001,-20.2899 L -6.69812,-20.2851 L -6.79519,-20.2707 L -6.89039,-20.2468 L -6.98279,-20.2138
 L -7.0715,-20.1718 L -7.15567,-20.1214 L -7.2345,-20.0629 L -7.30721,-19.997 L -7.37311,-19.9243 L -7.43157,-19.8455
 L -7.48203,-19.7613 L -7.52398,-19.6726 L -7.55704,-19.5802 L -7.58089,-19.485 L -7.59529,-19.3879 L -7.6001,-19.2899
 L -7.59529,-19.1919 L -7.58089,-19.0948 L -7.55704,-18.9996 L -7.52398,-18.9072 L -7.48203,-18.8185 L -7.43157,-18.7343
 L -7.37311,-18.6555 L -7.30721,-18.5828 L -7.2345,-18.5169 L -7.15567,-18.4584 L -7.0715,-18.408 L -6.98279,-18.366
 L -6.89039,-18.3329 L -6.79519,-18.3091 L -6.69812,-18.2947 L -6.6001,-18.2899 z
M -13.9921,-18.2947 L -13.895,-18.3091 L -13.7998,-18.3329 L -13.7074,-18.366 L -13.6187,-18.408 L -13.5345,-18.4584
 L -13.4557,-18.5169 L -13.383,-18.5828 L -13.3171,-18.6555 L -13.2586,-18.7343 L -13.2082,-18.8185 L -13.1662,-18.9072
 L -13.1332,-18.9996 L -13.1093,-19.0948 L -13.0949,-19.1919 L -13.0901,-19.2899 L -13.0949,-19.3879 L -13.1093,-19.485
 L -13.1332,-19.5802 L -13.1662,-19.6726 L -13.2082,-19.7613 L -13.2586,-19.8455 L -13.3171,-19.9243 L -13.383,-19.997
 L -13.4557,-20.0629 L -13.5345,-20.1214 L -13.6187,-20.1718 L -13.7074,-20.2138 L -13.7998,-20.2468 L -13.895,-20.2707
 L -13.9921,-20.2851 L -14.0901,-20.2899 L -14.1881,-20.2851 L -14.2852,-20.2707 L -14.3804,-20.2468 L -14.4728,-20.2138
 L -14.5615,-20.1718 L -14.6457,-20.1214 L -14.7245,-20.0629 L -14.7972,-19.997 L -14.8631,-19.9243 L -14.9216,-19.8455
 L -14.972,-19.7613 L -15.014,-19.6726 L -15.047,-19.5802 L -15.0709,-19.485 L -15.0853,-19.3879 L -15.0901,-19.2899
 L -15.0853,-19.1919 L -15.0709,-19.0948 L -15.047,-18.9996 L -15.014,-18.9072 L -14.972,-18.8185 L -14.9216,-18.7343
 L -14.8631,-18.6555 L -14.7972,-18.5828 L -14.7245,-18.5169 L -14.6457,-18.4584 L -14.5615,-18.408 L -14.4728,-18.366
 L -14.3804,-18.3329 L -14.2852,-18.3091 L -14.1881,-18.2947 L -14.0901,-18.2899 z
M 13.8179,-18.2947 L 13.915,-18.3091 L 14.0102,-18.3329 L 14.1026,-18.366 L 14.1913,-18.408 L 14.2755,-18.4584
 L 14.3543,-18.5169 L 14.427,-18.5828 L 14.4929,-18.6555 L 14.5514,-18.7343 L 14.6018,-18.8185 L 14.6438,-18.9072
 L 14.6768,-18.9996 L 14.7007,-19.0948 L 14.7151,-19.1919 L 14.7199,-19.2899 L 14.7151,-19.3879 L 14.7007,-19.485
 L 14.6768,-19.5802 L 14.6438,-19.6726 L 14.6018,-19.7613 L 14.5514,-19.8455 L 14.4929,-19.9243 L 14.427,-19.997
 L 14.3543,-20.0629 L 14.2755,-20.1214 L 14.1913,-20.1718 L 14.1026,-20.2138 L 14.0102,-20.2468 L 13.915,-20.2707
 L 13.8179,-20.2851 L 13.7199,-20.2899 L 13.6219,-20.2851 L 13.5248,-20.2707 L 13.4296,-20.2468 L 13.3372,-20.2138
 L 13.2485,-20.1718 L 13.1643,-20.1214 L 13.0855,-20.0629 L 13.0128,-19.997 L 12.9469,-19.9243 L 12.8884,-19.8455
 L 12.838,-19.7613 L 12.796,-19.6726 L 12.763,-19.5802 L 12.7391,-19.485 L 12.7247,-19.3879 L 12.7199,-19.2899
 L 12.7247,-19.1919 L 12.7391,-19.0948 L 12.763,-18.9996 L 12.796,-18.9072 L 12.838,-18.8185 L 12.8884,-18.7343
 L 12.9469,-18.6555 L 13.0128,-18.5828 L 13.0855,-18.5169 L 13.1643,-18.4584 L 13.2485,-18.408 L 13.3372,-18.366
 L 13.4296,-18.3329 L 13.5248,-18.3091 L 13.6219,-18.2947 L 13.7199,-18.2899 z
M 8.73791,-18.2947 L 8.83499,-18.3091 L 8.93018,-18.3329 L 9.02258,-18.366 L 9.11129,-18.408 L 9.19547,-18.4584
 L 9.27429,-18.5169 L 9.347,-18.5828 L 9.41291,-18.6555 L 9.47137,-18.7343 L 9.52182,-18.8185 L 9.56378,-18.9072
 L 9.59684,-18.9996 L 9.62068,-19.0948 L 9.63508,-19.1919 L 9.6399,-19.2899 L 9.63508,-19.3879 L 9.62068,-19.485
 L 9.59684,-19.5802 L 9.56378,-19.6726 L 9.52182,-19.7613 L 9.47137,-19.8455 L 9.41291,-19.9243 L 9.347,-19.997
 L 9.27429,-20.0629 L 9.19547,-20.1214 L 9.11129,-20.1718 L 9.02258,-20.2138 L 8.93018,-20.2468 L 8.83499,-20.2707
 L 8.73791,-20.2851 L 8.6399,-20.2899 L 8.54188,-20.2851 L 8.44481,-20.2707 L 8.34961,-20.2468 L 8.25721,-20.2138
 L 8.1685,-20.1718 L 8.08433,-20.1214 L 8.0055,-20.0629 L 7.93279,-19.997 L 7.86689,-19.9243 L 7.80843,-19.8455
 L 7.75797,-19.7613 L 7.71602,-19.6726 L 7.68296,-19.5802 L 7.65911,-19.485 L 7.64471,-19.3879 L 7.6399,-19.2899
 L 7.64471,-19.1919 L 7.65911,-19.0948 L 7.68296,-18.9996 L 7.71602,-18.9072 L 7.75797,-18.8185 L 7.80843,-18.7343
 L 7.86689,-18.6555 L 7.93279,-18.5828 L 8.0055,-18.5169 L 8.08433,-18.4584 L 8.1685,-18.408 L 8.25721,-18.366
 L 8.34961,-18.3329 L 8.44481,-18.3091 L 8.54188,-18.2947 L 8.6399,-18.2899 z
M 6.19791,-18.2947 L 6.29499,-18.3091 L 6.39018,-18.3329 L 6.48258,-18.366 L 6.57129,-18.408 L 6.65547,-18.4584
 L 6.73429,-18.5169 L 6.807,-18.5828 L 6.87291,-18.6555 L 6.93137,-18.7343 L 6.98182,-18.8185 L 7.02378,-18.9072
 L 7.05684,-18.9996 L 7.08068,-19.0948 L 7.09508,-19.1919 L 7.0999,-19.2899 L 7.09508,-19.3879 L 7.08068,-19.485
 L 7.05684,-19.5802 L 7.02378,-19.6726 L 6.98182,-19.7613 L 6.93137,-19.8455 L 6.87291,-19.9243 L 6.807,-19.997
 L 6.73429,-20.0629 L 6.65547,-20.1214 L 6.57129,-20.1718 L 6.48258,-20.2138 L 6.39018,-20.2468 L 6.29499,-20.2707
 L 6.19791,-20.2851 L 6.0999,-20.2899 L 6.00188,-20.2851 L 5.90481,-20.2707 L 5.80961,-20.2468 L 5.71721,-20.2138
 L 5.6285,-20.1718 L 5.54433,-20.1214 L 5.4655,-20.0629 L 5.39279,-19.997 L 5.32689,-19.9243 L 5.26843,-19.8455
 L 5.21797,-19.7613 L 5.17602,-19.6726 L 5.14296,-19.5802 L 5.11911,-19.485 L 5.10471,-19.3879 L 5.0999,-19.2899
 L 5.10471,-19.1919 L 5.11911,-19.0948 L 5.14296,-18.9996 L 5.17602,-18.9072 L 5.21797,-18.8185 L 5.26843,-18.7343
 L 5.32689,-18.6555 L 5.39279,-18.5828 L 5.4655,-18.5169 L 5.54433,-18.4584 L 5.6285,-18.408 L 5.71721,-18.366
 L 5.80961,-18.3329 L 5.90481,-18.3091 L 6.00188,-18.2947 L 6.0999,-18.2899 z
M 3.65791,-18.2947 L 3.75499,-18.3091 L 3.85018,-18.3329 L 3.94258,-18.366 L 4.03129,-18.408 L 4.11547,-18.4584
 L 4.19429,-18.5169 L 4.267,-18.5828 L 4.33291,-18.6555 L 4.39137,-18.7343 L 4.44182,-18.8185 L 4.48378,-18.9072
 L 4.51684,-18.9996 L 4.54068,-19.0948 L 4.55508,-19.1919 L 4.5599,-19.2899 L 4.55508,-19.3879 L 4.54068,-19.485
 L 4.51684,-19.5802 L 4.48378,-19.6726 L 4.44182,-19.7613 L 4.39137,-19.8455 L 4.33291,-19.9243 L 4.267,-19.997
 L 4.19429,-20.0629 L 4.11547,-20.1214 L 4.03129,-20.1718 L 3.94258,-20.2138 L 3.85018,-20.2468 L 3.75499,-20.2707
 L 3.65791,-20.2851 L 3.5599,-20.2899 L 3.46188,-20.2851 L 3.36481,-20.2707 L 3.26961,-20.2468 L 3.17721,-20.2138
 L 3.0885,-20.1718 L 3.00433,-20.1214 L 2.9255,-20.0629 L 2.85279,-19.997 L 2.78689,-19.9243 L 2.72843,-19.8455
 L 2.67797,-19.7613 L 2.63602,-19.6726 L 2.60296,-19.5802 L 2.57911,-19.485 L 2.56471,-19.3879 L 2.5599,-19.2899
 L 2.56471,-19.1919 L 2.57911,-19.0948 L 2.60296,-18.9996 L 2.63602,-18.9072 L 2.67797,-18.8185 L 2.72843,-18.7343
 L 2.78689,-18.6555 L 2.85279,-18.5828 L 2.9255,-18.5169 L 3.00433,-18.4584 L 3.0885,-18.408 L 3.17721,-18.366
 L 3.26961,-18.3329 L 3.36481,-18.3091 L 3.46188,-18.2947 L 3.5599,-18.2899 z
M 1.11791,-18.2947 L 1.21499,-18.3091 L 1.31018,-18.3329 L 1.40258,-18.366 L 1.49129,-18.408 L 1.57547,-18.4584
 L 1.65429,-18.5169 L 1.727,-18.5828 L 1.79291,-18.6555 L 1.85137,-18.7343 L 1.90182,-18.8185 L 1.94378,-18.9072
 L 1.97684,-18.9996 L 2.00068,-19.0948 L 2.01508,-19.1919 L 2.0199,-19.2899 L 2.01508,-19.3879 L 2.00068,-19.485
 L 1.97684,-19.5802 L 1.94378,-19.6726 L 1.90182,-19.7613 L 1.85137,-19.8455 L 1.79291,-19.9243 L 1.727,-19.997
 L 1.65429,-20.0629 L 1.57547,-20.1214 L 1.49129,-20.1718 L 1.40258,-20.2138 L 1.31018,-20.2468 L 1.21499,-20.2707
 L 1.11791,-20.2851 L 1.0199,-20.2899 L 0.921878,-20.2851 L 0.824805,-20.2707 L 0.729611,-20.2468 L 0.637212,-20.2138
 L 0.548499,-20.1718 L 0.464325,-20.1214 L 0.385502,-20.0629 L 0.312789,-19.997 L 0.246885,-19.9243 L 0.188426,-19.8455
 L 0.137974,-19.7613 L 0.096016,-19.6726 L 0.0629552,-19.5802 L 0.0391102,-19.485 L 0.0247108,-19.3879 L 0.0198955,-19.2899
 L 0.0247108,-19.1919 L 0.0391102,-19.0948 L 0.0629552,-18.9996 L 0.096016,-18.9072 L 0.137974,-18.8185 L 0.188426,-18.7343
 L 0.246885,-18.6555 L 0.312789,-18.5828 L 0.385502,-18.5169 L 0.464325,-18.4584 L 0.548499,-18.408 L 0.637212,-18.366
 L 0.729611,-18.3329 L 0.824805,-18.3091 L 0.921878,-18.2947 L 1.0199,-18.2899 z
M -1.42209,-18.2947 L -1.32501,-18.3091 L -1.22982,-18.3329 L -1.13742,-18.366 L -1.04871,-18.408 L -0.964534,-18.4584
 L -0.885711,-18.5169 L -0.812998,-18.5828 L -0.747094,-18.6555 L -0.688635,-18.7343 L -0.638183,-18.8185 L -0.596225,-18.9072
 L -0.563164,-18.9996 L -0.539319,-19.0948 L -0.52492,-19.1919 L -0.520105,-19.2899 L -0.52492,-19.3879 L -0.539319,-19.485
 L -0.563164,-19.5802 L -0.596225,-19.6726 L -0.638183,-19.7613 L -0.688635,-19.8455 L -0.747094,-19.9243 L -0.812998,-19.997
 L -0.885711,-20.0629 L -0.964534,-20.1214 L -1.04871,-20.1718 L -1.13742,-20.2138 L -1.22982,-20.2468 L -1.32501,-20.2707
 L -1.42209,-20.2851 L -1.5201,-20.2899 L -1.61812,-20.2851 L -1.71519,-20.2707 L -1.81039,-20.2468 L -1.90279,-20.2138
 L -1.9915,-20.1718 L -2.07567,-20.1214 L -2.1545,-20.0629 L -2.22721,-19.997 L -2.29311,-19.9243 L -2.35157,-19.8455
 L -2.40203,-19.7613 L -2.44398,-19.6726 L -2.47704,-19.5802 L -2.50089,-19.485 L -2.51529,-19.3879 L -2.5201,-19.2899
 L -2.51529,-19.1919 L -2.50089,-19.0948 L -2.47704,-18.9996 L -2.44398,-18.9072 L -2.40203,-18.8185 L -2.35157,-18.7343
 L -2.29311,-18.6555 L -2.22721,-18.5828 L -2.1545,-18.5169 L -2.07567,-18.4584 L -1.9915,-18.408 L -1.90279,-18.366
 L -1.81039,-18.3329 L -1.71519,-18.3091 L -1.61812,-18.2947 L -1.5201,-18.2899 z
M -3.96209,-18.2947 L -3.86501,-18.3091 L -3.76982,-18.3329 L -3.67742,-18.366 L -3.58871,-18.408 L -3.50453,-18.4584
 L -3.42571,-18.5169 L -3.353,-18.5828 L -3.28709,-18.6555 L -3.22863,-18.7343 L -3.17818,-18.8185 L -3.13622,-18.9072
 L -3.10316,-18.9996 L -3.07932,-19.0948 L -3.06492,-19.1919 L -3.0601,-19.2899 L -3.06492,-19.3879 L -3.07932,-19.485
 L -3.10316,-19.5802 L -3.13622,-19.6726 L -3.17818,-19.7613 L -3.22863,-19.8455 L -3.28709,-19.9243 L -3.353,-19.997
 L -3.42571,-20.0629 L -3.50453,-20.1214 L -3.58871,-20.1718 L -3.67742,-20.2138 L -3.76982,-20.2468 L -3.86501,-20.2707
 L -3.96209,-20.2851 L -4.0601,-20.2899 L -4.15812,-20.2851 L -4.25519,-20.2707 L -4.35039,-20.2468 L -4.44279,-20.2138
 L -4.5315,-20.1718 L -4.61567,-20.1214 L -4.6945,-20.0629 L -4.76721,-19.997 L -4.83311,-19.9243 L -4.89157,-19.8455
 L -4.94203,-19.7613 L -4.98398,-19.6726 L -5.01704,-19.5802 L -5.04089,-19.485 L -5.05529,-19.3879 L -5.0601,-19.2899
 L -5.05529,-19.1919 L -5.04089,-19.0948 L -5.01704,-18.9996 L -4.98398,-18.9072 L -4.94203,-18.8185 L -4.89157,-18.7343
 L -4.83311,-18.6555 L -4.76721,-18.5828 L -4.6945,-18.5169 L -4.61567,-18.4584 L -4.5315,-18.408 L -4.44279,-18.366
 L -4.35039,-18.3329 L -4.25519,-18.3091 L -4.15812,-18.2947 L -4.0601,-18.2899 z
M 11.1979,-15.0947 L 11.295,-15.1091 L 11.3902,-15.1329 L 11.4826,-15.166 L 11.5713,-15.208 L 11.6555,-15.2584
 L 11.7343,-15.3169 L 11.807,-15.3828 L 11.8729,-15.4555 L 11.9314,-15.5343 L 11.9818,-15.6185 L 12.0238,-15.7072
 L 12.0568,-15.7996 L 12.0807,-15.8948 L 12.0951,-15.9919 L 12.0999,-16.0899 L 12.0951,-16.1879 L 12.0807,-16.285
 L 12.0568,-16.3802 L 12.0238,-16.4726 L 11.9818,-16.5613 L 11.9314,-16.6455 L 11.8729,-16.7243 L 11.807,-16.797
 L 11.7343,-16.8629 L 11.6555,-16.9214 L 11.5713,-16.9718 L 11.4826,-17.0138 L 11.3902,-17.0468 L 11.295,-17.0707
 L 11.1979,-17.0851 L 11.0999,-17.0899 L 11.0019,-17.0851 L 10.9048,-17.0707 L 10.8096,-17.0468 L 10.7172,-17.0138
 L 10.6285,-16.9718 L 10.5443,-16.9214 L 10.4655,-16.8629 L 10.3928,-16.797 L 10.3269,-16.7243 L 10.2684,-16.6455
 L 10.218,-16.5613 L 10.176,-16.4726 L 10.143,-16.3802 L 10.1191,-16.285 L 10.1047,-16.1879 L 10.0999,-16.0899
 L 10.1047,-15.9919 L 10.1191,-15.8948 L 10.143,-15.7996 L 10.176,-15.7072 L 10.218,-15.6185 L 10.2684,-15.5343
 L 10.3269,-15.4555 L 10.3928,-15.3828 L 10.4655,-15.3169 L 10.5443,-15.2584 L 10.6285,-15.208 L 10.7172,-15.166
 L 10.8096,-15.1329 L 10.9048,-15.1091 L 11.0019,-15.0947 L 11.0999,-15.0899 z
M 8.69791,-15.0947 L 8.79499,-15.1091 L 8.89018,-15.1329 L 8.98258,-15.166 L 9.07129,-15.208 L 9.15547,-15.2584
 L 9.23429,-15.3169 L 9.307,-15.3828 L 9.37291,-15.4555 L 9.43137,-15.5343 L 9.48182,-15.6185 L 9.52378,-15.7072
 L 9.55684,-15.7996 L 9.58068,-15.8948 L 9.59508,-15.9919 L 9.5999,-16.0899 L 9.59508,-16.1879 L 9.58068,-16.285
 L 9.55684,-16.3802 L 9.52378,-16.4726 L 9.48182,-16.5613 L 9.43137,-16.6455 L 9.37291,-16.7243 L 9.307,-16.797
 L 9.23429,-16.8629 L 9.15547,-16.9214 L 9.07129,-16.9718 L 8.98258,-17.0138 L 8.89018,-17.0468 L 8.79499,-17.0707
 L 8.69791,-17.0851 L 8.5999,-17.0899 L 8.50188,-17.0851 L 8.40481,-17.0707 L 8.30961,-17.0468 L 8.21721,-17.0138
 L 8.1285,-16.9718 L 8.04433,-16.9214 L 7.9655,-16.8629 L 7.89279,-16.797 L 7.82689,-16.7243 L 7.76843,-16.6455
 L 7.71797,-16.5613 L 7.67602,-16.4726 L 7.64296,-16.3802 L 7.61911,-16.285 L 7.60471,-16.1879 L 7.5999,-16.0899
 L 7.60471,-15.9919 L 7.61911,-15.8948 L 7.64296,-15.7996 L 7.67602,-15.7072 L 7.71797,-15.6185 L 7.76843,-15.5343
 L 7.82689,-15.4555 L 7.89279,-15.3828 L 7.9655,-15.3169 L 8.04433,-15.2584 L 8.1285,-15.208 L 8.21721,-15.166
 L 8.30961,-15.1329 L 8.40481,-15.1091 L 8.50188,-15.0947 L 8.5999,-15.0899 z
M 6.19791,-15.0947 L 6.29499,-15.1091 L 6.39018,-15.1329 L 6.48258,-15.166 L 6.57129,-15.208 L 6.65547,-15.2584
 L 6.73429,-15.3169 L 6.807,-15.3828 L 6.87291,-15.4555 L 6.93137,-15.5343 L 6.98182,-15.6185 L 7.02378,-15.7072
 L 7.05684,-15.7996 L 7.08068,-15.8948 L 7.09508,-15.9919 L 7.0999,-16.0899 L 7.09508,-16.1879 L 7.08068,-16.285
 L 7.05684,-16.3802 L 7.02378,-16.4726 L 6.98182,-16.5613 L 6.93137,-16.6455 L 6.87291,-16.7243 L 6.807,-16.797
 L 6.73429,-16.8629 L 6.65547,-16.9214 L 6.57129,-16.9718 L 6.48258,-17.0138 L 6.39018,-17.0468 L 6.29499,-17.0707
 L 6.19791,-17.0851 L 6.0999,-17.0899 L 6.00188,-17.0851 L 5.90481,-17.0707 L 5.80961,-17.0468 L 5.71721,-17.0138
 L 5.6285,-16.9718 L 5.54433,-16.9214 L 5.4655,-16.8629 L 5.39279,-16.797 L 5.32689,-16.7243 L 5.26843,-16.6455
 L 5.21797,-16.5613 L 5.17602,-16.4726 L 5.14296,-16.3802 L 5.11911,-16.285 L 5.10471,-16.1879 L 5.0999,-16.0899
 L 5.10471,-15.9919 L 5.11911,-15.8948 L 5.14296,-15.7996 L 5.17602,-15.7072 L 5.21797,-15.6185 L 5.26843,-15.5343
 L 5.32689,-15.4555 L 5.39279,-15.3828 L 5.4655,-15.3169 L 5.54433,-15.2584 L 5.6285,-15.208 L 5.71721,-15.166
 L 5.80961,-15.1329 L 5.90481,-15.1091 L 6.00188,-15.0947 L 6.0999,-15.0899 z
M 6.19791,-11.7947 L 6.29499,-11.8091 L 6.39018,-11.8329 L 6.48258,-11.866 L 6.57129,-11.908 L 6.65547,-11.9584
 L 6.73429,-12.0169 L 6.807,-12.0828 L 6.87291,-12.1555 L 6.93137,-12.2343 L 6.98182,-12.3185 L 7.02378,-12.4072
 L 7.05684,-12.4996 L 7.08068,-12.5948 L 7.09508,-12.6919 L 7.0999,-12.7899 L 7.09508,-12.8879 L 7.08068,-12.985
 L 7.05684,-13.0802 L 7.02378,-13.1726 L 6.98182,-13.2613 L 6.93137,-13.3455 L 6.87291,-13.4243 L 6.807,-13.497
 L 6.73429,-13.5629 L 6.65547,-13.6214 L 6.57129,-13.6718 L 6.48258,-13.7138 L 6.39018,-13.7468 L 6.29499,-13.7707
 L 6.19791,-13.7851 L 6.0999,-13.7899 L 6.00188,-13.7851 L 5.90481,-13.7707 L 5.80961,-13.7468 L 5.71721,-13.7138
 L 5.6285,-13.6718 L 5.54433,-13.6214 L 5.4655,-13.5629 L 5.39279,-13.497 L 5.32689,-13.4243 L 5.26843,-13.3455
 L 5.21797,-13.2613 L 5.17602,-13.1726 L 5.14296,-13.0802 L 5.11911,-12.985 L 5.10471,-12.8879 L 5.0999,-12.7899
 L 5.10471,-12.6919 L 5.11911,-12.5948 L 5.14296,-12.4996 L 5.17602,-12.4072 L 5.21797,-12.3185 L 5.26843,-12.2343
 L 5.32689,-12.1555 L 5.39279,-12.0828 L 5.4655,-12.0169 L 5.54433,-11.9584 L 5.6285,-11.908 L 5.71721,-11.866
 L 5.80961,-11.8329 L 5.90481,-11.8091 L 6.00188,-11.7947 L 6.0999,-11.7899 z
M 8.69791,-11.7947 L 8.79499,-11.8091 L 8.89018,-11.8329 L 8.98258,-11.866 L 9.07129,-11.908 L 9.15547,-11.9584
 L 9.23429,-12.0169 L 9.307,-12.0828 L 9.37291,-12.1555 L 9.43137,-12.2343 L 9.48182,-12.3185 L 9.52378,-12.4072
 L 9.55684,-12.4996 L 9.58068,-12.5948 L 9.59508,-12.6919 L 9.5999,-12.7899 L 9.59508,-12.8879 L 9.58068,-12.985
 L 9.55684,-13.0802 L 9.52378,-13.1726 L 9.48182,-13.2613 L 9.43137,-13.3455 L 9.37291,-13.4243 L 9.307,-13.497
 L 9.23429,-13.5629 L 9.15547,-13.6214 L 9.07129,-13.6718 L 8.98258,-13.7138 L 8.89018,-13.7468 L 8.79499,-13.7707
 L 8.69791,-13.7851 L 8.5999,-13.7899 L 8.50188,-13.7851 L 8.40481,-13.7707 L 8.30961,-13.7468 L 8.21721,-13.7138
 L 8.1285,-13.6718 L 8.04433,-13.6214 L 7.9655,-13.5629 L 7.89279,-13.497 L 7.82689,-13.4243 L 7.76843,-13.3455
 L 7.71797,-13.2613 L 7.67602,-13.1726 L 7.64296,-13.0802 L 7.61911,-12.985 L 7.60471,-12.8879 L 7.5999,-12.7899
 L 7.60471,-12.6919 L 7.61911,-12.5948 L 7.64296,-12.4996 L 7.67602,-12.4072 L 7.71797,-12.3185 L 7.76843,-12.2343
 L 7.82689,-12.1555 L 7.89279,-12.0828 L 7.9655,-12.0169 L 8.04433,-11.9584 L 8.1285,-11.908 L 8.21721,-11.866
 L 8.30961,-11.8329 L 8.40481,-11.8091 L 8.50188,-11.7947 L 8.5999,-11.7899 z
M 11.1979,-11.7947 L 11.295,-11.8091 L 11.3902,-11.8329 L 11.4826,-11.866 L 11.5713,-11.908 L 11.6555,-11.9584
 L 11.7343,-12.0169 L 11.807,-12.0828 L 11.8729,-12.1555 L 11.9314,-12.2343 L 11.9818,-12.3185 L 12.0238,-12.4072
 L 12.0568,-12.4996 L 12.0807,-12.5948 L 12.0951,-12.6919 L 12.0999,-12.7899 L 12.0951,-12.8879 L 12.0807,-12.985
 L 12.0568,-13.0802 L 12.0238,-13.1726 L 11.9818,-13.2613 L 11.9314,-13.3455 L 11.8729,-13.4243 L 11.807,-13.497
 L 11.7343,-13.5629 L 11.6555,-13.6214 L 11.5713,-13.6718 L 11.4826,-13.7138 L 11.3902,-13.7468 L 11.295,-13.7707
 L 11.1979,-13.7851 L 11.0999,-13.7899 L 11.0019,-13.7851 L 10.9048,-13.7707 L 10.8096,-13.7468 L 10.7172,-13.7138
 L 10.6285,-13.6718 L 10.5443,-13.6214 L 10.4655,-13.5629 L 10.3928,-13.497 L 10.3269,-13.4243 L 10.2684,-13.3455
 L 10.218,-13.2613 L 10.176,-13.1726 L 10.143,-13.0802 L 10.1191,-12.985 L 10.1047,-12.8879 L 10.0999,-12.7899
 L 10.1047,-12.6919 L 10.1191,-12.5948 L 10.143,-12.4996 L 10.176,-12.4072 L 10.218,-12.3185 L 10.2684,-12.2343
 L 10.3269,-12.1555 L 10.3928,-12.0828 L 10.4655,-12.0169 L 10.5443,-11.9584 L 10.6285,-11.908 L 10.7172,-11.866
 L 10.8096,-11.8329 L 10.9048,-11.8091 L 11.0019,-11.7947 L 11.0999,-11.7899 z
M -16.3821,-11.5947 L -16.285,-11.6091 L -16.1898,-11.6329 L -16.0974,-11.666 L -16.0087,-11.708 L -15.9245,-11.7584
 L -15.8457,-11.8169 L -15.773,-11.8828 L -15.7071,-11.9555 L -15.6486,-12.0343 L -15.5982,-12.1185 L -15.5562,-12.2072
 L -15.5232,-12.2996 L -15.4993,-12.3948 L -15.4849,-12.4919 L -15.4801,-12.5899 L -15.4849,-12.6879 L -15.4993,-12.785
 L -15.5232,-12.8802 L -15.5562,-12.9726 L -15.5982,-13.0613 L -15.6486,-13.1455 L -15.7071,-13.2243 L -15.773,-13.297
 L -15.8457,-13.3629 L -15.9245,-13.4214 L -16.0087,-13.4718 L -16.0974,-13.5138 L -16.1898,-13.5468 L -16.285,-13.5707
 L -16.3821,-13.5851 L -16.4801,-13.5899 L -16.5781,-13.5851 L -16.6752,-13.5707 L -16.7704,-13.5468 L -16.8628,-13.5138
 L -16.9515,-13.4718 L -17.0357,-13.4214 L -17.1145,-13.3629 L -17.1872,-13.297 L -17.2531,-13.2243 L -17.3116,-13.1455
 L -17.362,-13.0613 L -17.404,-12.9726 L -17.437,-12.8802 L -17.4609,-12.785 L -17.4753,-12.6879 L -17.4801,-12.5899
 L -17.4753,-12.4919 L -17.4609,-12.3948 L -17.437,-12.2996 L -17.404,-12.2072 L -17.362,-12.1185 L -17.3116,-12.0343
 L -17.2531,-11.9555 L -17.1872,-11.8828 L -17.1145,-11.8169 L -17.0357,-11.7584 L -16.9515,-11.708 L -16.8628,-11.666
 L -16.7704,-11.6329 L -16.6752,-11.6091 L -16.5781,-11.5947 L -16.4801,-11.5899 z
M -16.3821,-9.5947 L -16.285,-9.6091 L -16.1898,-9.63294 L -16.0974,-9.66601 L -16.0087,-9.70796 L -15.9245,-9.75842
 L -15.8457,-9.81687 L -15.773,-9.88278 L -15.7071,-9.95549 L -15.6486,-10.0343 L -15.5982,-10.1185 L -15.5562,-10.2072
 L -15.5232,-10.2996 L -15.4993,-10.3948 L -15.4849,-10.4919 L -15.4801,-10.5899 L -15.4849,-10.6879 L -15.4993,-10.785
 L -15.5232,-10.8802 L -15.5562,-10.9726 L -15.5982,-11.0613 L -15.6486,-11.1455 L -15.7071,-11.2243 L -15.773,-11.297
 L -15.8457,-11.3629 L -15.9245,-11.4214 L -16.0087,-11.4718 L -16.0974,-11.5138 L -16.1898,-11.5468 L -16.285,-11.5707
 L -16.3821,-11.5851 L -16.4801,-11.5899 L -16.5781,-11.5851 L -16.6752,-11.5707 L -16.7704,-11.5468 L -16.8628,-11.5138
 L -16.9515,-11.4718 L -17.0357,-11.4214 L -17.1145,-11.3629 L -17.1872,-11.297 L -17.2531,-11.2243 L -17.3116,-11.1455
 L -17.362,-11.0613 L -17.404,-10.9726 L -17.437,-10.8802 L -17.4609,-10.785 L -17.4753,-10.6879 L -17.4801,-10.5899
 L -17.4753,-10.4919 L -17.4609,-10.3948 L -17.437,-10.2996 L -17.404,-10.2072 L -17.362,-10.1185 L -17.3116,-10.0343
 L -17.2531,-9.95549 L -17.1872,-9.88278 L -17.1145,-9.81687 L -17.0357,-9.75842 L -16.9515,-9.70796 L -16.8628,-9.66601
 L -16.7704,-9.63294 L -16.6752,-9.6091 L -16.5781,-9.5947 L -16.4801,-9.58989 z
M -16.3821,-5.5947 L -16.285,-5.6091 L -16.1898,-5.63294 L -16.0974,-5.66601 L -16.0087,-5.70796 L -15.9245,-5.75842
 L -15.8457,-5.81687 L -15.773,-5.88278 L -15.7071,-5.95549 L -15.6486,-6.03431 L -15.5982,-6.11849 L -15.5562,-6.2072
 L -15.5232,-6.2996 L -15.4993,-6.39479 L -15.4849,-6.49187 L -15.4801,-6.58989 L -15.4849,-6.6879 L -15.4993,-6.78498
 L -15.5232,-6.88017 L -15.5562,-6.97257 L -15.5982,-7.06128 L -15.6486,-7.14546 L -15.7071,-7.22428 L -15.773,-7.29699
 L -15.8457,-7.3629 L -15.9245,-7.42135 L -16.0087,-7.47181 L -16.0974,-7.51376 L -16.1898,-7.54683 L -16.285,-7.57067
 L -16.3821,-7.58507 L -16.4801,-7.58989 L -16.5781,-7.58507 L -16.6752,-7.57067 L -16.7704,-7.54683 L -16.8628,-7.51376
 L -16.9515,-7.47181 L -17.0357,-7.42135 L -17.1145,-7.3629 L -17.1872,-7.29699 L -17.2531,-7.22428 L -17.3116,-7.14546
 L -17.362,-7.06128 L -17.404,-6.97257 L -17.437,-6.88017 L -17.4609,-6.78498 L -17.4753,-6.6879 L -17.4801,-6.58989
 L -17.4753,-6.49187 L -17.4609,-6.39479 L -17.437,-6.2996 L -17.404,-6.2072 L -17.362,-6.11849 L -17.3116,-6.03431
 L -17.2531,-5.95549 L -17.1872,-5.88278 L -17.1145,-5.81687 L -17.0357,-5.75842 L -16.9515,-5.70796 L -16.8628,-5.66601
 L -16.7704,-5.63294 L -16.6752,-5.6091 L -16.5781,-5.5947 L -16.4801,-5.58989 z
M -16.3821,-3.5947 L -16.285,-3.6091 L -16.1898,-3.63294 L -16.0974,-3.66601 L -16.0087,-3.70796 L -15.9245,-3.75842
 L -15.8457,-3.81687 L -15.773,-3.88278 L -15.7071,-3.95549 L -15.6486,-4.03431 L -15.5982,-4.11849 L -15.5562,-4.2072
 L -15.5232,-4.2996 L -15.4993,-4.39479 L -15.4849,-4.49187 L -15.4801,-4.58989 L -15.4849,-4.6879 L -15.4993,-4.78498
 L -15.5232,-4.88017 L -15.5562,-4.97257 L -15.5982,-5.06128 L -15.6486,-5.14546 L -15.7071,-5.22428 L -15.773,-5.29699
 L -15.8457,-5.3629 L -15.9245,-5.42135 L -16.0087,-5.47181 L -16.0974,-5.51376 L -16.1898,-5.54683 L -16.285,-5.57067
 L -16.3821,-5.58507 L -16.4801,-5.58989 L -16.5781,-5.58507 L -16.6752,-5.57067 L -16.7704,-5.54683 L -16.8628,-5.51376
 L -16.9515,-5.47181 L -17.0357,-5.42135 L -17.1145,-5.3629 L -17.1872,-5.29699 L -17.2531,-5.22428 L -17.3116,-5.14546
 L -17.362,-5.06128 L -17.404,-4.97257 L -17.437,-4.88017 L -17.4609,-4.78498 L -17.4753,-4.6879 L -17.4801,-4.58989
 L -17.4753,-4.49187 L -17.4609,-4.39479 L -17.437,-4.2996 L -17.404,-4.2072 L -17.362,-4.11849 L -17.3116,-4.03431
 L -17.2531,-3.95549 L -17.1872,-3.88278 L -17.1145,-3.81687 L -17.0357,-3.75842 L -16.9515,-3.70796 L -16.8628,-3.66601
 L -16.7704,-3.63294 L -16.6752,-3.6091 L -16.5781,-3.5947 L -16.4801,-3.58989 z
M 18.8979,-3.0547 L 18.995,-3.0691 L 19.0902,-3.09294 L 19.1826,-3.12601 L 19.2713,-3.16796 L 19.3555,-3.21842
 L 19.4343,-3.27687 L 19.507,-3.34278 L 19.5729,-3.41549 L 19.6314,-3.49431 L 19.6818,-3.57849 L 19.7238,-3.6672
 L 19.7568,-3.7596 L 19.7807,-3.85479 L 19.7951,-3.95187 L 19.7999,-4.04989 L 19.7951,-4.1479 L 19.7807,-4.24498
 L 19.7568,-4.34017 L 19.7238,-4.43257 L 19.6818,-4.52128 L 19.6314,-4.60546 L 19.5729,-4.68428 L 19.507,-4.75699
 L 19.4343,-4.8229 L 19.3555,-4.88135 L 19.2713,-4.93181 L 19.1826,-4.97376 L 19.0902,-5.00683 L 18.995,-5.03067
 L 18.8979,-5.04507 L 18.7999,-5.04989 L 18.7019,-5.04507 L 18.6048,-5.03067 L 18.5096,-5.00683 L 18.4172,-4.97376
 L 18.3285,-4.93181 L 18.2443,-4.88135 L 18.1655,-4.8229 L 18.0928,-4.75699 L 18.0269,-4.68428 L 17.9684,-4.60546
 L 17.918,-4.52128 L 17.876,-4.43257 L 17.843,-4.34017 L 17.8191,-4.24498 L 17.8047,-4.1479 L 17.7999,-4.04989
 L 17.8047,-3.95187 L 17.8191,-3.85479 L 17.843,-3.7596 L 17.876,-3.6672 L 17.918,-3.57849 L 17.9684,-3.49431
 L 18.0269,-3.41549 L 18.0928,-3.34278 L 18.1655,-3.27687 L 18.2443,-3.21842 L 18.3285,-3.16796 L 18.4172,-3.12601
 L 18.5096,-3.09294 L 18.6048,-3.0691 L 18.7019,-3.0547 L 18.7999,-3.04989 z
M -16.3821,-1.5947 L -16.285,-1.6091 L -16.1898,-1.63294 L -16.0974,-1.66601 L -16.0087,-1.70796 L -15.9245,-1.75842
 L -15.8457,-1.81687 L -15.773,-1.88278 L -15.7071,-1.95549 L -15.6486,-2.03431 L -15.5982,-2.11849 L -15.5562,-2.2072
 L -15.5232,-2.2996 L -15.4993,-2.39479 L -15.4849,-2.49187 L -15.4801,-2.58989 L -15.4849,-2.6879 L -15.4993,-2.78498
 L -15.5232,-2.88017 L -15.5562,-2.97257 L -15.5982,-3.06128 L -15.6486,-3.14546 L -15.7071,-3.22428 L -15.773,-3.29699
 L -15.8457,-3.3629 L -15.9245,-3.42135 L -16.0087,-3.47181 L -16.0974,-3.51376 L -16.1898,-3.54683 L -16.285,-3.57067
 L -16.3821,-3.58507 L -16.4801,-3.58989 L -16.5781,-3.58507 L -16.6752,-3.57067 L -16.7704,-3.54683 L -16.8628,-3.51376
 L -16.9515,-3.47181 L -17.0357,-3.42135 L -17.1145,-3.3629 L -17.1872,-3.29699 L -17.2531,-3.22428 L -17.3116,-3.14546
 L -17.362,-3.06128 L -17.404,-2.97257 L -17.437,-2.88017 L -17.4609,-2.78498 L -17.4753,-2.6879 L -17.4801,-2.58989
 L -17.4753,-2.49187 L -17.4609,-2.39479 L -17.437,-2.2996 L -17.404,-2.2072 L -17.362,-2.11849 L -17.3116,-2.03431
 L -17.2531,-1.95549 L -17.1872,-1.88278 L -17.1145,-1.81687 L -17.0357,-1.75842 L -16.9515,-1.70796 L -16.8628,-1.66601
 L -16.7704,-1.63294 L -16.6752,-1.6091 L -16.5781,-1.5947 L -16.4801,-1.58989 z
M 18.8979,-0.5147 L 18.995,-0.5291 L 19.0902,-0.552945 L 19.1826,-0.586005 L 19.2713,-0.627964 L 19.3555,-0.678415
 L 19.4343,-0.736875 L 19.507,-0.802778 L 19.5729,-0.875492 L 19.6314,-0.954315 L 19.6818,-1.03849 L 19.7238,-1.1272
 L 19.7568,-1.2196 L 19.7807,-1.31479 L 19.7951,-1.41187 L 19.7999,-1.50989 L 19.7951,-1.6079 L 19.7807,-1.70498
 L 19.7568,-1.80017 L 19.7238,-1.89257 L 19.6818,-1.98128 L 19.6314,-2.06546 L 19.5729,-2.14428 L 19.507,-2.21699
 L 19.4343,-2.2829 L 19.3555,-2.34135 L 19.2713,-2.39181 L 19.1826,-2.43376 L 19.0902,-2.46683 L 18.995,-2.49067
 L 18.8979,-2.50507 L 18.7999,-2.50989 L 18.7019,-2.50507 L 18.6048,-2.49067 L 18.5096,-2.46683 L 18.4172,-2.43376
 L 18.3285,-2.39181 L 18.2443,-2.34135 L 18.1655,-2.2829 L 18.0928,-2.21699 L 18.0269,-2.14428 L 17.9684,-2.06546
 L 17.918,-1.98128 L 17.876,-1.89257 L 17.843,-1.80017 L 17.8191,-1.70498 L 17.8047,-1.6079 L 17.7999,-1.50989
 L 17.8047,-1.41187 L 17.8191,-1.31479 L 17.843,-1.2196 L 17.876,-1.1272 L 17.918,-1.03849 L 17.9684,-0.954315
 L 18.0269,-0.875492 L 18.0928,-0.802778 L 18.1655,-0.736875 L 18.2443,-0.678415 L 18.3285,-0.627964 L 18.4172,-0.586005
 L 18.5096,-0.552945 L 18.6048,-0.5291 L 18.7019,-0.5147 L 18.7999,-0.509885 z
M 18.8979,2.0253 L 18.995,2.0109 L 19.0902,1.98706 L 19.1826,1.95399 L 19.2713,1.91204 L 19.3555,1.86158
 L 19.4343,1.80313 L 19.507,1.73722 L 19.5729,1.66451 L 19.6314,1.58569 L 19.6818,1.50151 L 19.7238,1.4128
 L 19.7568,1.3204 L 19.7807,1.22521 L 19.7951,1.12813 L 19.7999,1.03011 L 19.7951,0.932098 L 19.7807,0.835025
 L 19.7568,0.73983 L 19.7238,0.647432 L 19.6818,0.558718 L 19.6314,0.474545 L 19.5729,0.395722 L 19.507,0.323008
 L 19.4343,0.257105 L 19.3555,0.198645 L 19.2713,0.148194 L 19.1826,0.106235 L 19.0902,0.0731747 L 18.995,0.0493297
 L 18.8979,0.0349303 L 18.7999,0.030115 L 18.7019,0.0349303 L 18.6048,0.0493297 L 18.5096,0.0731747 L 18.4172,0.106235
 L 18.3285,0.148194 L 18.2443,0.198645 L 18.1655,0.257105 L 18.0928,0.323008 L 18.0269,0.395722 L 17.9684,0.474545
 L 17.918,0.558718 L 17.876,0.647432 L 17.843,0.73983 L 17.8191,0.835025 L 17.8047,0.932098 L 17.7999,1.03011
 L 17.8047,1.12813 L 17.8191,1.22521 L 17.843,1.3204 L 17.876,1.4128 L 17.918,1.50151 L 17.9684,1.58569
 L 18.0269,1.66451 L 18.0928,1.73722 L 18.1655,1.80313 L 18.2443,1.86158 L 18.3285,1.91204 L 18.4172,1.95399
 L 18.5096,1.98706 L 18.6048,2.0109 L 18.7019,2.0253 L 18.7999,2.03011 z
M 18.8979,4.5653 L 18.995,4.5509 L 19.0902,4.52706 L 19.1826,4.49399 L 19.2713,4.45204 L 19.3555,4.40158
 L 19.4343,4.34313 L 19.507,4.27722 L 19.5729,4.20451 L 19.6314,4.12569 L 19.6818,4.04151 L 19.7238,3.9528
 L 19.7568,3.8604 L 19.7807,3.76521 L 19.7951,3.66813 L 19.7999,3.57011 L 19.7951,3.4721 L 19.7807,3.37502
 L 19.7568,3.27983 L 19.7238,3.18743 L 19.6818,3.09872 L 19.6314,3.01454 L 19.5729,2.93572 L 19.507,2.86301
 L 19.4343,2.7971 L 19.3555,2.73865 L 19.2713,2.68819 L 19.1826,2.64624 L 19.0902,2.61317 L 18.995,2.58933
 L 18.8979,2.57493 L 18.7999,2.57011 L 18.7019,2.57493 L 18.6048,2.58933 L 18.5096,2.61317 L 18.4172,2.64624
 L 18.3285,2.68819 L 18.2443,2.73865 L 18.1655,2.7971 L 18.0928,2.86301 L 18.0269,2.93572 L 17.9684,3.01454
 L 17.918,3.09872 L 17.876,3.18743 L 17.843,3.27983 L 17.8191,3.37502 L 17.8047,3.4721 L 17.7999,3.57011
 L 17.8047,3.66813 L 17.8191,3.76521 L 17.843,3.8604 L 17.876,3.9528 L 17.918,4.04151 L 17.9684,4.12569
 L 18.0269,4.20451 L 18.0928,4.27722 L 18.1655,4.34313 L 18.2443,4.40158 L 18.3285,4.45204 L 18.4172,4.49399
 L 18.5096,4.52706 L 18.6048,4.5509 L 18.7019,4.5653 L 18.7999,4.57011 z
M 18.8979,7.1053 L 18.995,7.0909 L 19.0902,7.06706 L 19.1826,7.03399 L 19.2713,6.99204 L 19.3555,6.94158
 L 19.4343,6.88313 L 19.507,6.81722 L 19.5729,6.74451 L 19.6314,6.66569 L 19.6818,6.58151 L 19.7238,6.4928
 L 19.7568,6.4004 L 19.7807,6.30521 L 19.7951,6.20813 L 19.7999,6.11011 L 19.7951,6.0121 L 19.7807,5.91502
 L 19.7568,5.81983 L 19.7238,5.72743 L 19.6818,5.63872 L 19.6314,5.55454 L 19.5729,5.47572 L 19.507,5.40301
 L 19.4343,5.3371 L 19.3555,5.27865 L 19.2713,5.22819 L 19.1826,5.18624 L 19.0902,5.15317 L 18.995,5.12933
 L 18.8979,5.11493 L 18.7999,5.11011 L 18.7019,5.11493 L 18.6048,5.12933 L 18.5096,5.15317 L 18.4172,5.18624
 L 18.3285,5.22819 L 18.2443,5.27865 L 18.1655,5.3371 L 18.0928,5.40301 L 18.0269,5.47572 L 17.9684,5.55454
 L 17.918,5.63872 L 17.876,5.72743 L 17.843,5.81983 L 17.8191,5.91502 L 17.8047,6.0121 L 17.7999,6.11011
 L 17.8047,6.20813 L 17.8191,6.30521 L 17.843,6.4004 L 17.876,6.4928 L 17.918,6.58151 L 17.9684,6.66569
 L 18.0269,6.74451 L 18.0928,6.81722 L 18.1655,6.88313 L 18.2443,6.94158 L 18.3285,6.99204 L 18.4172,7.03399
 L 18.5096,7.06706 L 18.6048,7.0909 L 18.7019,7.1053 L 18.7999,7.11011 z
M 18.8979,9.6453 L 18.995,9.6309 L 19.0902,9.60706 L 19.1826,9.57399 L 19.2713,9.53204 L 19.3555,9.48158
 L 19.4343,9.42313 L 19.507,9.35722 L 19.5729,9.28451 L 19.6314,9.20569 L 19.6818,9.12151 L 19.7238,9.0328
 L 19.7568,8.9404 L 19.7807,8.84521 L 19.7951,8.74813 L 19.7999,8.65011 L 19.7951,8.5521 L 19.7807,8.45502
 L 19.7568,8.35983 L 19.7238,8.26743 L 19.6818,8.17872 L 19.6314,8.09454 L 19.5729,8.01572 L 19.507,7.94301
 L 19.4343,7.8771 L 19.3555,7.81865 L 19.2713,7.76819 L 19.1826,7.72624 L 19.0902,7.69317 L 18.995,7.66933
 L 18.8979,7.65493 L 18.7999,7.65011 L 18.7019,7.65493 L 18.6048,7.66933 L 18.5096,7.69317 L 18.4172,7.72624
 L 18.3285,7.76819 L 18.2443,7.81865 L 18.1655,7.8771 L 18.0928,7.94301 L 18.0269,8.01572 L 17.9684,8.09454
 L 17.918,8.17872 L 17.876,8.26743 L 17.843,8.35983 L 17.8191,8.45502 L 17.8047,8.5521 L 17.7999,8.65011
 L 17.8047,8.74813 L 17.8191,8.84521 L 17.843,8.9404 L 17.876,9.0328 L 17.918,9.12151 L 17.9684,9.20569
 L 18.0269,9.28451 L 18.0928,9.35722 L 18.1655,9.42313 L 18.2443,9.48158 L 18.3285,9.53204 L 18.4172,9.57399
 L 18.5096,9.60706 L 18.6048,9.6309 L 18.7019,9.6453 L 18.7999,9.65011 z
M 18.8979,12.1853 L 18.995,12.1709 L 19.0902,12.1471 L 19.1826,12.114 L 19.2713,12.072 L 19.3555,12.0216
 L 19.4343,11.9631 L 19.507,11.8972 L 19.5729,11.8245 L 19.6314,11.7457 L 19.6818,11.6615 L 19.7238,11.5728
 L 19.7568,11.4804 L 19.7807,11.3852 L 19.7951,11.2881 L 19.7999,11.1901 L 19.7951,11.0921 L 19.7807,10.995
 L 19.7568,10.8998 L 19.7238,10.8074 L 19.6818,10.7187 L 19.6314,10.6345 L 19.5729,10.5557 L 19.507,10.483
 L 19.4343,10.4171 L 19.3555,10.3586 L 19.2713,10.3082 L 19.1826,10.2662 L 19.0902,10.2332 L 18.995,10.2093
 L 18.8979,10.1949 L 18.7999,10.1901 L 18.7019,10.1949 L 18.6048,10.2093 L 18.5096,10.2332 L 18.4172,10.2662
 L 18.3285,10.3082 L 18.2443,10.3586 L 18.1655,10.4171 L 18.0928,10.483 L 18.0269,10.5557 L 17.9684,10.6345
 L 17.918,10.7187 L 17.876,10.8074 L 17.843,10.8998 L 17.8191,10.995 L 17.8047,11.0921 L 17.7999,11.1901
 L 17.8047,11.2881 L 17.8191,11.3852 L 17.843,11.4804 L 17.876,11.5728 L 17.918,11.6615 L 17.9684,11.7457
 L 18.0269,11.8245 L 18.0928,11.8972 L 18.1655,11.9631 L 18.2443,12.0216 L 18.3285,12.072 L 18.4172,12.114
 L 18.5096,12.1471 L 18.6048,12.1709 L 18.7019,12.1853 L 18.7999,12.1901 z
M 18.8979,14.7253 L 18.995,14.7109 L 19.0902,14.6871 L 19.1826,14.654 L 19.2713,14.612 L 19.3555,14.5616
 L 19.4343,14.5031 L 19.507,14.4372 L 19.5729,14.3645 L 19.6314,14.2857 L 19.6818,14.2015 L 19.7238,14.1128
 L 19.7568,14.0204 L 19.7807,13.9252 L 19.7951,13.8281 L 19.7999,13.7301 L 19.7951,13.6321 L 19.7807,13.535
 L 19.7568,13.4398 L 19.7238,13.3474 L 19.6818,13.2587 L 19.6314,13.1745 L 19.5729,13.0957 L 19.507,13.023
 L 19.4343,12.9571 L 19.3555,12.8986 L 19.2713,12.8482 L 19.1826,12.8062 L 19.0902,12.7732 L 18.995,12.7493
 L 18.8979,12.7349 L 18.7999,12.7301 L 18.7019,12.7349 L 18.6048,12.7493 L 18.5096,12.7732 L 18.4172,12.8062
 L 18.3285,12.8482 L 18.2443,12.8986 L 18.1655,12.9571 L 18.0928,13.023 L 18.0269,13.0957 L 17.9684,13.1745
 L 17.918,13.2587 L 17.876,13.3474 L 17.843,13.4398 L 17.8191,13.535 L 17.8047,13.6321 L 17.7999,13.7301
 L 17.8047,13.8281 L 17.8191,13.9252 L 17.843,14.0204 L 17.876,14.1128 L 17.918,14.2015 L 17.9684,14.2857
 L 18.0269,14.3645 L 18.0928,14.4372 L 18.1655,14.5031 L 18.2443,14.5616 L 18.3285,14.612 L 18.4172,14.654
 L 18.5096,14.6871 L 18.6048,14.7109 L 18.7019,14.7253 L 18.7999,14.7301 z
M 11.2779,17.2653 L 11.375,17.2509 L 11.4702,17.2271 L 11.5626,17.194 L 11.6513,17.152 L 11.7355,17.1016
 L 11.8143,17.0431 L 11.887,16.9772 L 11.9529,16.9045 L 12.0114,16.8257 L 12.0618,16.7415 L 12.1038,16.6528
 L 12.1368,16.5604 L 12.1607,16.4652 L 12.1751,16.3681 L 12.1799,16.2701 L 12.1751,16.1721 L 12.1607,16.075
 L 12.1368,15.9798 L 12.1038,15.8874 L 12.0618,15.7987 L 12.0114,15.7145 L 11.9529,15.6357 L 11.887,15.563
 L 11.8143,15.4971 L 11.7355,15.4386 L 11.6513,15.3882 L 11.5626,15.3462 L 11.4702,15.3132 L 11.375,15.2893
 L 11.2779,15.2749 L 11.1799,15.2701 L 11.0819,15.2749 L 10.9848,15.2893 L 10.8896,15.3132 L 10.7972,15.3462
 L 10.7085,15.3882 L 10.6243,15.4386 L 10.5455,15.4971 L 10.4728,15.563 L 10.4069,15.6357 L 10.3484,15.7145
 L 10.298,15.7987 L 10.256,15.8874 L 10.223,15.9798 L 10.1991,16.075 L 10.1847,16.1721 L 10.1799,16.2701
 L 10.1847,16.3681 L 10.1991,16.4652 L 10.223,16.5604 L 10.256,16.6528 L 10.298,16.7415 L 10.3484,16.8257
 L 10.4069,16.9045 L 10.4728,16.9772 L 10.5455,17.0431 L 10.6243,17.1016 L 10.7085,17.152 L 10.7972,17.194
 L 10.8896,17.2271 L 10.9848,17.2509 L 11.0819,17.2653 L 11.1799,17.2701 z
M 8.73791,17.2653 L 8.83499,17.2509 L 8.93018,17.2271 L 9.02258,17.194 L 9.11129,17.152 L 9.19547,17.1016
 L 9.27429,17.0431 L 9.347,16.9772 L 9.41291,16.9045 L 9.47137,16.8257 L 9.52182,16.7415 L 9.56378,16.6528
 L 9.59684,16.5604 L 9.62068,16.4652 L 9.63508,16.3681 L 9.6399,16.2701 L 9.63508,16.1721 L 9.62068,16.075
 L 9.59684,15.9798 L 9.56378,15.8874 L 9.52182,15.7987 L 9.47137,15.7145 L 9.41291,15.6357 L 9.347,15.563
 L 9.27429,15.4971 L 9.19547,15.4386 L 9.11129,15.3882 L 9.02258,15.3462 L 8.93018,15.3132 L 8.83499,15.2893
 L 8.73791,15.2749 L 8.6399,15.2701 L 8.54188,15.2749 L 8.44481,15.2893 L 8.34961,15.3132 L 8.25721,15.3462
 L 8.1685,15.3882 L 8.08433,15.4386 L 8.0055,15.4971 L 7.93279,15.563 L 7.86689,15.6357 L 7.80843,15.7145
 L 7.75797,15.7987 L 7.71602,15.8874 L 7.68296,15.9798 L 7.65911,16.075 L 7.64471,16.1721 L 7.6399,16.2701
 L 7.64471,16.3681 L 7.65911,16.4652 L 7.68296,16.5604 L 7.71602,16.6528 L 7.75797,16.7415 L 7.80843,16.8257
 L 7.86689,16.9045 L 7.93279,16.9772 L 8.0055,17.0431 L 8.08433,17.1016 L 8.1685,17.152 L 8.25721,17.194
 L 8.34961,17.2271 L 8.44481,17.2509 L 8.54188,17.2653 L 8.6399,17.2701 z
M 6.19791,17.2653 L 6.29499,17.2509 L 6.39018,17.2271 L 6.48258,17.194 L 6.57129,17.152 L 6.65547,17.1016
 L 6.73429,17.0431 L 6.807,16.9772 L 6.87291,16.9045 L 6.93137,16.8257 L 6.98182,16.7415 L 7.02378,16.6528
 L 7.05684,16.5604 L 7.08068,16.4652 L 7.09508,16.3681 L 7.0999,16.2701 L 7.09508,16.1721 L 7.08068,16.075
 L 7.05684,15.9798 L 7.02378,15.8874 L 6.98182,15.7987 L 6.93137,15.7145 L 6.87291,15.6357 L 6.807,15.563
 L 6.73429,15.4971 L 6.65547,15.4386 L 6.57129,15.3882 L 6.48258,15.3462 L 6.39018,15.3132 L 6.29499,15.2893
 L 6.19791,15.2749 L 6.0999,15.2701 L 6.00188,15.2749 L 5.90481,15.2893 L 5.80961,15.3132 L 5.71721,15.3462
 L 5.6285,15.3882 L 5.54433,15.4386 L 5.4655,15.4971 L 5.39279,15.563 L 5.32689,15.6357 L 5.26843,15.7145
 L 5.21797,15.7987 L 5.17602,15.8874 L 5.14296,15.9798 L 5.11911,16.075 L 5.10471,16.1721 L 5.0999,16.2701
 L 5.10471,16.3681 L 5.11911,16.4652 L 5.14296,16.5604 L 5.17602,16.6528 L 5.21797,16.7415 L 5.26843,16.8257
 L 5.32689,16.9045 L 5.39279,16.9772 L 5.4655,17.0431 L 5.54433,17.1016 L 5.6285,17.152 L 5.71721,17.194
 L 5.80961,17.2271 L 5.90481,17.2509 L 6.00188,17.2653 L 6.0999,17.2701 z
M 18.8979,17.2653 L 18.995,17.2509 L 19.0902,17.2271 L 19.1826,17.194 L 19.2713,17.152 L 19.3555,17.1016
 L 19.4343,17.0431 L 19.507,16.9772 L 19.5729,16.9045 L 19.6314,16.8257 L 19.6818,16.7415 L 19.7238,16.6528
 L 19.7568,16.5604 L 19.7807,16.4652 L 19.7951,16.3681 L 19.7999,16.2701 L 19.7951,16.1721 L 19.7807,16.075
 L 19.7568,15.9798 L 19.7238,15.8874 L 19.6818,15.7987 L 19.6314,15.7145 L 19.5729,15.6357 L 19.507,15.563
 L 19.4343,15.4971 L 19.3555,15.4386 L 19.2713,15.3882 L 19.1826,15.3462 L 19.0902,15.3132 L 18.995,15.2893
 L 18.8979,15.2749 L 18.7999,15.2701 L 18.7019,15.2749 L 18.6048,15.2893 L 18.5096,15.3132 L 18.4172,15.3462
 L 18.3285,15.3882 L 18.2443,15.4386 L 18.1655,15.4971 L 18.0928,15.563 L 18.0269,15.6357 L 17.9684,15.7145
 L 17.918,15.7987 L 17.876,15.8874 L 17.843,15.9798 L 17.8191,16.075 L 17.8047,16.1721 L 17.7999,16.2701
 L 17.8047,16.3681 L 17.8191,16.4652 L 17.843,16.5604 L 17.876,16.6528 L 17.918,16.7415 L 17.9684,16.8257
 L 18.0269,16.9045 L 18.0928,16.9772 L 18.1655,17.0431 L 18.2443,17.1016 L 18.3285,17.152 L 18.4172,17.194
 L 18.5096,17.2271 L 18.6048,17.2509 L 18.7019,17.2653 L 18.7999,17.2701 z
M 13.8179,17.2653 L 13.915,17.2509 L 14.0102,17.2271 L 14.1026,17.194 L 14.1913,17.152 L 14.2755,17.1016
 L 14.3543,17.0431 L 14.427,16.9772 L 14.4929,16.9045 L 14.5514,16.8257 L 14.6018,16.7415 L 14.6438,16.6528
 L 14.6768,16.5604 L 14.7007,16.4652 L 14.7151,16.3681 L 14.7199,16.2701 L 14.7151,16.1721 L 14.7007,16.075
 L 14.6768,15.9798 L 14.6438,15.8874 L 14.6018,15.7987 L 14.5514,15.7145 L 14.4929,15.6357 L 14.427,15.563
 L 14.3543,15.4971 L 14.2755,15.4386 L 14.1913,15.3882 L 14.1026,15.3462 L 14.0102,15.3132 L 13.915,15.2893
 L 13.8179,15.2749 L 13.7199,15.2701 L 13.6219,15.2749 L 13.5248,15.2893 L 13.4296,15.3132 L 13.3372,15.3462
 L 13.2485,15.3882 L 13.1643,15.4386 L 13.0855,15.4971 L 13.0128,15.563 L 12.9469,15.6357 L 12.8884,15.7145
 L 12.838,15.7987 L 12.796,15.8874 L 12.763,15.9798 L 12.7391,16.075 L 12.7247,16.1721 L 12.7199,16.2701
 L 12.7247,16.3681 L 12.7391,16.4652 L 12.763,16.5604 L 12.796,16.6528 L 12.838,16.7415 L 12.8884,16.8257
 L 12.9469,16.9045 L 13.0128,16.9772 L 13.0855,17.0431 L 13.1643,17.1016 L 13.2485,17.152 L 13.3372,17.194
 L 13.4296,17.2271 L 13.5248,17.2509 L 13.6219,17.2653 L 13.7199,17.2701 z
M -19.7106,22.7469 L -19.4436,22.7073 L -19.1818,22.6417 L -18.9277,22.5508 L -18.6838,22.4354 L -18.4523,22.2967
 L -18.2355,22.1359 L -18.0356,21.9547 L -17.8543,21.7547 L -17.6936,21.5379 L -17.5548,21.3065 L -17.4394,21.0625
 L -17.3485,20.8084 L -17.2829,20.5466 L -17.2433,20.2797 L -17.2301,20.0101 L -17.2433,19.7406 L -17.2829,19.4736
 L -17.3485,19.2118 L -17.4394,18.9577 L -17.5548,18.7138 L -17.6936,18.4823 L -17.8543,18.2655 L -18.0356,18.0656
 L -18.2355,17.8843 L -18.4523,17.7236 L -18.6838,17.5848 L -18.9277,17.4694 L -19.1818,17.3785 L -19.4436,17.313
 L -19.7106,17.2734 L -19.9801,17.2601 L -20.2497,17.2734 L -20.5166,17.313 L -20.7784,17.3785 L -21.0325,17.4694
 L -21.2764,17.5848 L -21.5079,17.7236 L -21.7247,17.8843 L -21.9246,18.0656 L -22.1059,18.2655 L -22.2666,18.4823
 L -22.4054,18.7138 L -22.5208,18.9577 L -22.6117,19.2118 L -22.6773,19.4736 L -22.7169,19.7406 L -22.7301,20.0101
 L -22.7169,20.2797 L -22.6773,20.5466 L -22.6117,20.8084 L -22.5208,21.0625 L -22.4054,21.3065 L -22.2666,21.5379
 L -22.1059,21.7547 L -21.9246,21.9547 L -21.7247,22.1359 L -21.5079,22.2967 L -21.2764,22.4354 L -21.0325,22.5508
 L -20.7784,22.6417 L -20.5166,22.7073 L -20.2497,22.7469 L -19.9801,22.7601 z
M 20.2894,22.7469 L 20.5564,22.7073 L 20.8182,22.6417 L 21.0723,22.5508 L 21.3162,22.4354 L 21.5477,22.2967
 L 21.7645,22.1359 L 21.9644,21.9547 L 22.1457,21.7547 L 22.3064,21.5379 L 22.4452,21.3065 L 22.5606,21.0625
 L 22.6515,20.8084 L 22.7171,20.5466 L 22.7567,20.2797 L 22.7699,20.0101 L 22.7567,19.7406 L 22.7171,19.4736
 L 22.6515,19.2118 L 22.5606,18.9577 L 22.4452,18.7138 L 22.3064,18.4823 L 22.1457,18.2655 L 21.9644,18.0656
 L 21.7645,17.8843 L 21.5477,17.7236 L 21.3162,17.5848 L 21.0723,17.4694 L 20.8182,17.3785 L 20.5564,17.313
 L 20.2894,17.2734 L 20.0199,17.2601 L 19.7503,17.2734 L 19.4834,17.313 L 19.2216,17.3785 L 18.9675,17.4694
 L 18.7236,17.5848 L 18.4921,17.7236 L 18.2753,17.8843 L 18.0754,18.0656 L 17.8941,18.2655 L 17.7334,18.4823
 L 17.5946,18.7138 L 17.4792,18.9577 L 17.3883,19.2118 L 17.3227,19.4736 L 17.2831,19.7406 L 17.2699,20.0101
 L 17.2831,20.2797 L 17.3227,20.5466 L 17.3883,20.8084 L 17.4792,21.0625 L 17.5946,21.3065 L 17.7334,21.5379
 L 17.8941,21.7547 L 18.0754,21.9547 L 18.2753,22.1359 L 18.4921,22.2967 L 18.7236,22.4354 L 18.9675,22.5508
 L 19.2216,22.6417 L 19.4834,22.7073 L 19.7503,22.7469 L 20.0199,22.7601 z
M 6.19791,19.8053 L 6.29499,19.7909 L 6.39018,19.7671 L 6.48258,19.734 L 6.57129,19.692 L 6.65547,19.6416
 L 6.73429,19.5831 L 6.807,19.5172 L 6.87291,19.4445 L 6.93137,19.3657 L 6.98182,19.2815 L 7.02378,19.1928
 L 7.05684,19.1004 L 7.08068,19.0052 L 7.09508,18.9081 L 7.0999,18.8101 L 7.09508,18.7121 L 7.08068,18.615
 L 7.05684,18.5198 L 7.02378,18.4274 L 6.98182,18.3387 L 6.93137,18.2545 L 6.87291,18.1757 L 6.807,18.103
 L 6.73429,18.0371 L 6.65547,17.9786 L 6.57129,17.9282 L 6.48258,17.8862 L 6.39018,17.8532 L 6.29499,17.8293
 L 6.19791,17.8149 L 6.0999,17.8101 L 6.00188,17.8149 L 5.90481,17.8293 L 5.80961,17.8532 L 5.71721,17.8862
 L 5.6285,17.9282 L 5.54433,17.9786 L 5.4655,18.0371 L 5.39279,18.103 L 5.32689,18.1757 L 5.26843,18.2545
 L 5.21797,18.3387 L 5.17602,18.4274 L 5.14296,18.5198 L 5.11911,18.615 L 5.10471,18.7121 L 5.0999,18.8101
 L 5.10471,18.9081 L 5.11911,19.0052 L 5.14296,19.1004 L 5.17602,19.1928 L 5.21797,19.2815 L 5.26843,19.3657
 L 5.32689,19.4445 L 5.39279,19.5172 L 5.4655,19.5831 L 5.54433,19.6416 L 5.6285,19.692 L 5.71721,19.734
 L 5.80961,19.7671 L 5.90481,19.7909 L 6.00188,19.8053 L 6.0999,19.8101 z
M 8.73791,19.8053 L 8.83499,19.7909 L 8.93018,19.7671 L 9.02258,19.734 L 9.11129,19.692 L 9.19547,19.6416
 L 9.27429,19.5831 L 9.347,19.5172 L 9.41291,19.4445 L 9.47137,19.3657 L 9.52182,19.2815 L 9.56378,19.1928
 L 9.59684,19.1004 L 9.62068,19.0052 L 9.63508,18.9081 L 9.6399,18.8101 L 9.63508,18.7121 L 9.62068,18.615
 L 9.59684,18.5198 L 9.56378,18.4274 L 9.52182,18.3387 L 9.47137,18.2545 L 9.41291,18.1757 L 9.347,18.103
 L 9.27429,18.0371 L 9.19547,17.9786 L 9.11129,17.9282 L 9.02258,17.8862 L 8.93018,17.8532 L 8.83499,17.8293
 L 8.73791,17.8149 L 8.6399,17.8101 L 8.54188,17.8149 L 8.44481,17.8293 L 8.34961,17.8532 L 8.25721,17.8862
 L 8.1685,17.9282 L 8.08433,17.9786 L 8.0055,18.0371 L 7.93279,18.103 L 7.86689,18.1757 L 7.80843,18.2545
 L 7.75797,18.3387 L 7.71602,18.4274 L 7.68296,18.5198 L 7.65911,18.615 L 7.64471,18.7121 L 7.6399,18.8101
 L 7.64471,18.9081 L 7.65911,19.0052 L 7.68296,19.1004 L 7.71602,19.1928 L 7.75797,19.2815 L 7.80843,19.3657
 L 7.86689,19.4445 L 7.93279,19.5172 L 8.0055,19.5831 L 8.08433,19.6416 L 8.1685,19.692 L 8.25721,19.734
 L 8.34961,19.7671 L 8.44481,19.7909 L 8.54188,19.8053 L 8.6399,19.8101 z
M 11.2779,19.8053 L 11.375,19.7909 L 11.4702,19.7671 L 11.5626,19.734 L 11.6513,19.692 L 11.7355,19.6416
 L 11.8143,19.5831 L 11.887,19.5172 L 11.9529,19.4445 L 12.0114,19.3657 L 12.0618,19.2815 L 12.1038,19.1928
 L 12.1368,19.1004 L 12.1607,19.0052 L 12.1751,18.9081 L 12.1799,18.8101 L 12.1751,18.7121 L 12.1607,18.615
 L 12.1368,18.5198 L 12.1038,18.4274 L 12.0618,18.3387 L 12.0114,18.2545 L 11.9529,18.1757 L 11.887,18.103
 L 11.8143,18.0371 L 11.7355,17.9786 L 11.6513,17.9282 L 11.5626,17.8862 L 11.4702,17.8532 L 11.375,17.8293
 L 11.2779,17.8149 L 11.1799,17.8101 L 11.0819,17.8149 L 10.9848,17.8293 L 10.8896,17.8532 L 10.7972,17.8862
 L 10.7085,17.9282 L 10.6243,17.9786 L 10.5455,18.0371 L 10.4728,18.103 L 10.4069,18.1757 L 10.3484,18.2545
 L 10.298,18.3387 L 10.256,18.4274 L 10.223,18.5198 L 10.1991,18.615 L 10.1847,18.7121 L 10.1799,18.8101
 L 10.1847,18.9081 L 10.1991,19.0052 L 10.223,19.1004 L 10.256,19.1928 L 10.298,19.2815 L 10.3484,19.3657
 L 10.4069,19.4445 L 10.4728,19.5172 L 10.5455,19.5831 L 10.6243,19.6416 L 10.7085,19.692 L 10.7972,19.734
 L 10.8896,19.7671 L 10.9848,19.7909 L 11.0819,19.8053 L 11.1799,19.8101 z
M 13.8179,19.8053 L 13.915,19.7909 L 14.0102,19.7671 L 14.1026,19.734 L 14.1913,19.692 L 14.2755,19.6416
 L 14.3543,19.5831 L 14.427,19.5172 L 14.4929,19.4445 L 14.5514,19.3657 L 14.6018,19.2815 L 14.6438,19.1928
 L 14.6768,19.1004 L 14.7007,19.0052 L 14.7151,18.9081 L 14.7199,18.8101 L 14.7151,18.7121 L 14.7007,18.615
 L 14.6768,18.5198 L 14.6438,18.4274 L 14.6018,18.3387 L 14.5514,18.2545 L 14.4929,18.1757 L 14.427,18.103
 L 14.3543,18.0371 L 14.2755,17.9786 L 14.1913,17.9282 L 14.1026,17.8862 L 14.0102,17.8532 L 13.915,17.8293
 L 13.8179,17.8149 L 13.7199,17.8101 L 13.6219,17.8149 L 13.5248,17.8293 L 13.4296,17.8532 L 13.3372,17.8862
 L 13.2485,17.9282 L 13.1643,17.9786 L 13.0855,18.0371 L 13.0128,18.103 L 12.9469,18.1757 L 12.8884,18.2545
 L 12.838,18.3387 L 12.796,18.4274 L 12.763,18.5198 L 12.7391,18.615 L 12.7247,18.7121 L 12.7199,18.8101
 L 12.7247,18.9081 L 12.7391,19.0052 L 12.763,19.1004 L 12.796,19.1928 L 12.838,19.2815 L 12.8884,19.3657
 L 12.9469,19.4445 L 13.0128,19.5172 L 13.0855,19.5831 L 13.1643,19.6416 L 13.2485,19.692 L 13.3372,19.734
 L 13.4296,19.7671 L 13.5248,19.7909 L 13.6219,19.8053 L 13.7199,19.8101 z
" stroke="black" fill="lightgray" stroke-width="0.5"/>
</svg>
