<?xml version="1.0" standalone="no"?>
<!DOCTYPE svg PUBLIC "-//W3C//DTD SVG 1.1//EN" "http://www.w3.org/Graphics/SVG/1.1/DTD/svg11.dtd">
<svg width="180mm" height="160mm" viewBox="-90 -80 180 160" xmlns="http://www.w3.org/2000/svg" version="1.1">
<title>OpenSCAD Model</title>
<path d="
M 87.2941,79.9856 L 87.5853,79.9424 L 87.8709,79.8708 L 88.1481,79.7716 L 88.4142,79.6458 L 88.6667,79.4944
 L 88.9032,79.319 L 89.1213,79.1213 L 89.319,78.9032 L 89.4944,78.6667 L 89.6458,78.4142 L 89.7716,78.1481
 L 89.8708,77.8709 L 89.9424,77.5853 L 89.9856,77.2941 L 90,77 L 90,-77 L 89.9856,-77.2941
 L 89.9424,-77.5853 L 89.8708,-77.8709 L 89.7716,-78.1481 L 89.6458,-78.4142 L 89.4944,-78.6667 L 89.319,-78.9032
 L 89.1213,-79.1213 L 88.9032,-79.319 L 88.6667,-79.4944 L 88.4142,-79.6458 L 88.1481,-79.7716 L 87.8709,-79.8708
 L 87.5853,-79.9424 L 87.2941,-79.9856 L 87,-80 L -87,-80 L -87.2941,-79.9856 L -87.5853,-79.9424
 L -87.8709,-79.8708 L -88.1481,-79.7716 L -88.4142,-79.6458 L -88.6667,-79.4944 L -88.9032,-79.319 L -89.1213,-79.1213
 L -89.319,-78.9032 L -89.4944,-78.6667 L -89.6458,-78.4142 L -89.7716,-78.1481 L -89.8708,-77.8709 L -89.9424,-77.5853
 L -89.9856,-77.2941 L -90,-77 L -90,77 L -89.9856,77.2941 L -89.9424,77.5853 L -89.8708,77.8709
 L -89.7716,78.1481 L -89.6458,78.4142 L -89.4944,78.6667 L -89.319,78.9032 L -89.1213,79.1213 L -88.9032,79.319
 L -88.6667,79.4944 L -88.4142,79.6458 L -88.1481,79.7716 L -87.8709,79.8708 L -87.5853,79.9424 L -87.2941,79.9856
 L -87,80 L 87,80 z
M -83.6568,-45.9077 L -83.8121,-45.9307 L -83.9645,-45.9689 L -84.1123,-46.0218 L -84.2542,-46.0889 L -84.3889,-46.1696
 L -84.515,-46.2632 L -84.6314,-46.3686 L -84.7368,-46.485 L -84.8304,-46.6111 L -84.9111,-46.7458 L -84.9782,-46.8877
 L -85.0311,-47.0355 L -85.0693,-47.1879 L -85.0923,-47.3432 L -85.1,-47.5 L -85.0923,-47.6568 L -85.0693,-47.8121
 L -85.0311,-47.9645 L -84.9782,-48.1123 L -84.9111,-48.2542 L -84.8304,-48.3889 L -84.7368,-48.515 L -84.6314,-48.6314
 L -84.515,-48.7368 L -84.3889,-48.8304 L -84.2542,-48.9111 L -84.1123,-48.9782 L -83.9645,-49.0311 L -83.8121,-49.0693
 L -83.6568,-49.0923 L -83.5,-49.1 L -83.3432,-49.0923 L -83.1879,-49.0693 L -83.0355,-49.0311 L -82.8877,-48.9782
 L -82.7458,-48.9111 L -82.6111,-48.8304 L -82.485,-48.7368 L -82.3686,-48.6314 L -82.2632,-48.515 L -82.1696,-48.3889
 L -82.0889,-48.2542 L -82.0218,-48.1123 L -81.9689,-47.9645 L -81.9307,-47.8121 L -81.9077,-47.6568 L -81.9,-47.5
 L -81.9077,-47.3432 L -81.9307,-47.1879 L -81.9689,-47.0355 L -82.0218,-46.8877 L -82.0889,-46.7458 L -82.1696,-46.6111
 L -82.2632,-46.485 L -82.3686,-46.3686 L -82.485,-46.2632 L -82.6111,-46.1696 L -82.7458,-46.0889 L -82.8877,-46.0218
 L -83.0355,-45.9689 L -83.1879,-45.9307 L -83.3432,-45.9077 L -83.5,-45.9 z
M 83.3432,-45.9077 L 83.1879,-45.9307 L 83.0355,-45.9689 L 82.8877,-46.0218 L 82.7458,-46.0889 L 82.6111,-46.1696
 L 82.485,-46.2632 L 82.3686,-46.3686 L 82.2632,-46.485 L 82.1696,-46.6111 L 82.0889,-46.7458 L 82.0218,-46.8877
 L 81.9689,-47.0355 L 81.9307,-47.1879 L 81.9077,-47.3432 L 81.9,-47.5 L 81.9077,-47.6568 L 81.9307,-47.8121
 L 81.9689,-47.9645 L 82.0218,-48.1123 L 82.0889,-48.2542 L 82.1696,-48.3889 L 82.2632,-48.515 L 82.3686,-48.6314
 L 82.485,-48.7368 L 82.6111,-48.8304 L 82.7458,-48.9111 L 82.8877,-48.9782 L 83.0355,-49.0311 L 83.1879,-49.0693
 L 83.3432,-49.0923 L 83.5,-49.1 L 83.6568,-49.0923 L 83.8121,-49.0693 L 83.9645,-49.0311 L 84.1123,-48.9782
 L 84.2542,-48.9111 L 84.3889,-48.8304 L 84.515,-48.7368 L 84.6314,-48.6314 L 84.7368,-48.515 L 84.8304,-48.3889
 L 84.9111,-48.2542 L 84.9782,-48.1123 L 85.0311,-47.9645 L 85.0693,-47.8121 L 85.0923,-47.6568 L 85.1,-47.5
 L 85.0923,-47.3432 L 85.0693,-47.1879 L 85.0311,-47.0355 L 84.9782,-46.8877 L 84.9111,-46.7458 L 84.8304,-46.6111
 L 84.7368,-46.485 L 84.6314,-46.3686 L 84.515,-46.2632 L 84.3889,-46.1696 L 84.2542,-46.0889 L 84.1123,-46.0218
 L 83.9645,-45.9689 L 83.8121,-45.9307 L 83.6568,-45.9077 L 83.5,-45.9 z
M 83.3432,-30.9077 L 83.1879,-30.9307 L 83.0355,-30.9689 L 82.8877,-31.0218 L 82.7458,-31.0889 L 82.6111,-31.1696
 L 82.485,-31.2632 L 82.3686,-31.3686 L 82.2632,-31.485 L 82.1696,-31.6111 L 82.0889,-31.7458 L 82.0218,-31.8877
 L 81.9689,-32.0355 L 81.9307,-32.1879 L 81.9077,-32.3432 L 81.9,-32.5 L 81.9077,-32.6568 L 81.9307,-32.8121
 L 81.9689,-32.9645 L 82.0218,-33.1123 L 82.0889,-33.2542 L 82.1696,-33.3889 L 82.2632,-33.515 L 82.3686,-33.6314
 L 82.485,-33.7368 L 82.6111,-33.8304 L 82.7458,-33.9111 L 82.8877,-33.9782 L 83.0355,-34.0311 L 83.1879,-34.0693
 L 83.3432,-34.0923 L 83.5,-34.1 L 83.6568,-34.0923 L 83.8121,-34.0693 L 83.9645,-34.0311 L 84.1123,-33.9782
 L 84.2542,-33.9111 L 84.3889,-33.8304 L 84.515,-33.7368 L 84.6314,-33.6314 L 84.7368,-33.515 L 84.8304,-33.3889
 L 84.9111,-33.2542 L 84.9782,-33.1123 L 85.0311,-32.9645 L 85.0693,-32.8121 L 85.0923,-32.6568 L 85.1,-32.5
 L 85.0923,-32.3432 L 85.0693,-32.1879 L 85.0311,-32.0355 L 84.9782,-31.8877 L 84.9111,-31.7458 L 84.8304,-31.6111
 L 84.7368,-31.485 L 84.6314,-31.3686 L 84.515,-31.2632 L 84.3889,-31.1696 L 84.2542,-31.0889 L 84.1123,-31.0218
 L 83.9645,-30.9689 L 83.8121,-30.9307 L 83.6568,-30.9077 L 83.5,-30.9 z
M -83.6568,-30.9077 L -83.8121,-30.9307 L -83.9645,-30.9689 L -84.1123,-31.0218 L -84.2542,-31.0889 L -84.3889,-31.1696
 L -84.515,-31.2632 L -84.6314,-31.3686 L -84.7368,-31.485 L -84.8304,-31.6111 L -84.9111,-31.7458 L -84.9782,-31.8877
 L -85.0311,-32.0355 L -85.0693,-32.1879 L -85.0923,-32.3432 L -85.1,-32.5 L -85.0923,-32.6568 L -85.0693,-32.8121
 L -85.0311,-32.9645 L -84.9782,-33.1123 L -84.9111,-33.2542 L -84.8304,-33.3889 L -84.7368,-33.515 L -84.6314,-33.6314
 L -84.515,-33.7368 L -84.3889,-33.8304 L -84.2542,-33.9111 L -84.1123,-33.9782 L -83.9645,-34.0311 L -83.8121,-34.0693
 L -83.6568,-34.0923 L -83.5,-34.1 L -83.3432,-34.0923 L -83.1879,-34.0693 L -83.0355,-34.0311 L -82.8877,-33.9782
 L -82.7458,-33.9111 L -82.6111,-33.8304 L -82.485,-33.7368 L -82.3686,-33.6314 L -82.2632,-33.515 L -82.1696,-33.3889
 L -82.0889,-33.2542 L -82.0218,-33.1123 L -81.9689,-32.9645 L -81.9307,-32.8121 L -81.9077,-32.6568 L -81.9,-32.5
 L -81.9077,-32.3432 L -81.9307,-32.1879 L -81.9689,-32.0355 L -82.0218,-31.8877 L -82.0889,-31.7458 L -82.1696,-31.6111
 L -82.2632,-31.485 L -82.3686,-31.3686 L -82.485,-31.2632 L -82.6111,-31.1696 L -82.7458,-31.0889 L -82.8877,-31.0218
 L -83.0355,-30.9689 L -83.1879,-30.9307 L -83.3432,-30.9077 L -83.5,-30.9 z
M 16.368,-19.4973 L 16.2175,-19.5197 L 16.07,-19.5566 L 15.9267,-19.6079 L 15.7892,-19.6729 L 15.6588,-19.7511
 L 15.5366,-19.8417 L 15.4239,-19.9439 L 15.3217,-20.0566 L 15.2311,-20.1788 L 15.1529,-20.3092 L 15.0879,-20.4467
 L 15.0366,-20.5899 L 14.9997,-20.7375 L 14.9774,-20.888 L 14.9699,-21.0399 L 14.9774,-21.1918 L 14.9997,-21.3423
 L 15.0366,-21.4898 L 15.0879,-21.633 L 15.1529,-21.7705 L 15.2311,-21.901 L 15.3217,-22.0232 L 15.4239,-22.1359
 L 15.5366,-22.2381 L 15.6588,-22.3287 L 15.7892,-22.4069 L 15.9267,-22.4719 L 16.07,-22.5231 L 16.2175,-22.5601
 L 16.368,-22.5824 L 16.5199,-22.5899 L 16.6718,-22.5824 L 16.8223,-22.5601 L 16.9698,-22.5231 L 17.1131,-22.4719
 L 17.2506,-22.4069 L 17.381,-22.3287 L 17.5032,-22.2381 L 17.6159,-22.1359 L 17.7181,-22.0232 L 17.8087,-21.901
 L 17.8869,-21.7705 L 17.9519,-21.633 L 18.0032,-21.4898 L 18.0401,-21.3423 L 18.0624,-21.1918 L 18.0699,-21.0399
 L 18.0624,-20.888 L 18.0401,-20.7375 L 18.0032,-20.5899 L 17.9519,-20.4467 L 17.8869,-20.3092 L 17.8087,-20.1788
 L 17.7181,-20.0566 L 17.6159,-19.9439 L 17.5032,-19.8417 L 17.381,-19.7511 L 17.2506,-19.6729 L 17.1131,-19.6079
 L 16.9698,-19.5566 L 16.8223,-19.5197 L 16.6718,-19.4973 L 16.5199,-19.4899 z
M -17.132,-15.9973 L -17.2825,-16.0197 L -17.43,-16.0566 L -17.5733,-16.1079 L -17.7108,-16.1729 L -17.8412,-16.2511
 L -17.9634,-16.3417 L -18.0761,-16.4439 L -18.1783,-16.5566 L -18.2689,-16.6788 L -18.3471,-16.8092 L -18.4121,-16.9467
 L -18.4634,-17.0899 L -18.5003,-17.2375 L -18.5226,-17.388 L -18.5301,-17.5399 L -18.5226,-17.6918 L -18.5003,-17.8423
 L -18.4634,-17.9898 L -18.4121,-18.133 L -18.3471,-18.2705 L -18.2689,-18.401 L -18.1783,-18.5232 L -18.0761,-18.6359
 L -17.9634,-18.7381 L -17.8412,-18.8287 L -17.7108,-18.9069 L -17.5733,-18.9719 L -17.43,-19.0231 L -17.2825,-19.0601
 L -17.132,-19.0824 L -16.9801,-19.0899 L -16.8282,-19.0824 L -16.6777,-19.0601 L -16.5302,-19.0231 L -16.3869,-18.9719
 L -16.2494,-18.9069 L -16.119,-18.8287 L -15.9968,-18.7381 L -15.8841,-18.6359 L -15.7819,-18.5232 L -15.6913,-18.401
 L -15.6131,-18.2705 L -15.5481,-18.133 L -15.4968,-17.9898 L -15.4599,-17.8423 L -15.4376,-17.6918 L -15.4301,-17.5399
 L -15.4376,-17.388 L -15.4599,-17.2375 L -15.4968,-17.0899 L -15.5481,-16.9467 L -15.6131,-16.8092 L -15.6913,-16.6788
 L -15.7819,-16.5566 L -15.8841,-16.4439 L -15.9968,-16.3417 L -16.119,-16.2511 L -16.2494,-16.1729 L -16.3869,-16.1079
 L -16.5302,-16.0566 L -16.6777,-16.0197 L -16.8282,-15.9973 L -16.9801,-15.9899 z
M -6.63203,-14.0973 L -6.78249,-14.1197 L -6.93005,-14.1566 L -7.07326,-14.2079 L -7.21077,-14.2729 L -7.34124,-14.3511
 L -7.46341,-14.4417 L -7.57612,-14.5439 L -7.67827,-14.6566 L -7.76888,-14.7788 L -7.84708,-14.9092 L -7.91212,-15.0467
 L -7.96336,-15.1899 L -8.00032,-15.3375 L -8.02264,-15.488 L -8.0301,-15.6399 L -8.02264,-15.7918 L -8.00032,-15.9423
 L -7.96336,-16.0898 L -7.91212,-16.233 L -7.84708,-16.3705 L -7.76888,-16.501 L -7.67827,-16.6232 L -7.57612,-16.7359
 L -7.46341,-16.8381 L -7.34124,-16.9287 L -7.21077,-17.0069 L -7.07326,-17.0719 L -6.93005,-17.1231 L -6.78249,-17.1601
 L -6.63203,-17.1824 L -6.4801,-17.1899 L -6.32818,-17.1824 L -6.17771,-17.1601 L -6.03016,-17.1231 L -5.88695,-17.0719
 L -5.74944,-17.0069 L -5.61897,-16.9287 L -5.49679,-16.8381 L -5.38409,-16.7359 L -5.28194,-16.6232 L -5.19133,-16.501
 L -5.11313,-16.3705 L -5.04809,-16.233 L -4.99685,-16.0898 L -4.95989,-15.9423 L -4.93757,-15.7918 L -4.9301,-15.6399
 L -4.93757,-15.488 L -4.95989,-15.3375 L -4.99685,-15.1899 L -5.04809,-15.0467 L -5.11313,-14.9092 L -5.19133,-14.7788
 L -5.28194,-14.6566 L -5.38409,-14.5439 L -5.49679,-14.4417 L -5.61897,-14.3511 L -5.74944,-14.2729 L -5.88695,-14.2079
 L -6.03016,-14.1566 L -6.17771,-14.1197 L -6.32818,-14.0973 L -6.4801,-14.0899 z
M 5.36797,-7.49735 L 5.21751,-7.51967 L 5.06995,-7.55663 L 4.92674,-7.60787 L 4.78923,-7.67291 L 4.65876,-7.75111
 L 4.53659,-7.84172 L 4.42388,-7.94387 L 4.32173,-8.05658 L 4.23112,-8.17875 L 4.15292,-8.30922 L 4.08788,-8.44673
 L 4.03664,-8.58994 L 3.99968,-8.7375 L 3.97736,-8.88796 L 3.9699,-9.03989 L 3.97736,-9.19181 L 3.99968,-9.34227
 L 4.03664,-9.48983 L 4.08788,-9.63304 L 4.15292,-9.77055 L 4.23112,-9.90102 L 4.32173,-10.0232 L 4.42388,-10.1359
 L 4.53659,-10.2381 L 4.65876,-10.3287 L 4.78923,-10.4069 L 4.92674,-10.4719 L 5.06995,-10.5231 L 5.21751,-10.5601
 L 5.36797,-10.5824 L 5.5199,-10.5899 L 5.67182,-10.5824 L 5.82229,-10.5601 L 5.96984,-10.5231 L 6.11305,-10.4719
 L 6.25056,-10.4069 L 6.38103,-10.3287 L 6.50321,-10.2381 L 6.61591,-10.1359 L 6.71806,-10.0232 L 6.80867,-9.90102
 L 6.88687,-9.77055 L 6.95191,-9.63304 L 7.00315,-9.48983 L 7.04011,-9.34227 L 7.06243,-9.19181 L 7.0699,-9.03989
 L 7.06243,-8.88796 L 7.04011,-8.7375 L 7.00315,-8.58994 L 6.95191,-8.44673 L 6.88687,-8.30922 L 6.80867,-8.17875
 L 6.71806,-8.05658 L 6.61591,-7.94387 L 6.50321,-7.84172 L 6.38103,-7.75111 L 6.25056,-7.67291 L 6.11305,-7.60787
 L 5.96984,-7.55663 L 5.82229,-7.51967 L 5.67182,-7.49735 L 5.5199,-7.48989 z
M 83.3432,-5.9077 L 83.1879,-5.93074 L 83.0355,-5.9689 L 82.8877,-6.02179 L 82.7458,-6.08893 L 82.6111,-6.16965
 L 82.485,-6.26318 L 82.3686,-6.36863 L 82.2632,-6.48497 L 82.1696,-6.61109 L 82.0889,-6.74577 L 82.0218,-6.88771
 L 81.9689,-7.03554 L 81.9307,-7.18786 L 81.9077,-7.34317 L 81.9,-7.5 L 81.9077,-7.65683 L 81.9307,-7.81214
 L 81.9689,-7.96446 L 82.0218,-8.11229 L 82.0889,-8.25423 L 82.1696,-8.38891 L 82.2632,-8.51503 L 82.3686,-8.63137
 L 82.485,-8.73682 L 82.6111,-8.83035 L 82.7458,-8.91107 L 82.8877,-8.97821 L 83.0355,-9.0311 L 83.1879,-9.06926
 L 83.3432,-9.0923 L 83.5,-9.1 L 83.6568,-9.0923 L 83.8121,-9.06926 L 83.9645,-9.0311 L 84.1123,-8.97821
 L 84.2542,-8.91107 L 84.3889,-8.83035 L 84.515,-8.73682 L 84.6314,-8.63137 L 84.7368,-8.51503 L 84.8304,-8.38891
 L 84.9111,-8.25423 L 84.9782,-8.11229 L 85.0311,-7.96446 L 85.0693,-7.81214 L 85.0923,-7.65683 L 85.1,-7.5
 L 85.0923,-7.34317 L 85.0693,-7.18786 L 85.0311,-7.03554 L 84.9782,-6.88771 L 84.9111,-6.74577 L 84.8304,-6.61109
 L 84.7368,-6.48497 L 84.6314,-6.36863 L 84.515,-6.26318 L 84.3889,-6.16965 L 84.2542,-6.08893 L 84.1123,-6.02179
 L 83.9645,-5.9689 L 83.8121,-5.93074 L 83.6568,-5.9077 L 83.5,-5.9 z
M -83.6568,-5.9077 L -83.8121,-5.93074 L -83.9645,-5.9689 L -84.1123,-6.02179 L -84.2542,-6.08893 L -84.3889,-6.16965
 L -84.515,-6.26318 L -84.6314,-6.36863 L -84.7368,-6.48497 L -84.8304,-6.61109 L -84.9111,-6.74577 L -84.9782,-6.88771
 L -85.0311,-7.03554 L -85.0693,-7.18786 L -85.0923,-7.34317 L -85.1,-7.5 L -85.0923,-7.65683 L -85.0693,-7.81214
 L -85.0311,-7.96446 L -84.9782,-8.11229 L -84.9111,-8.25423 L -84.8304,-8.38891 L -84.7368,-8.51503 L -84.6314,-8.63137
 L -84.515,-8.73682 L -84.3889,-8.83035 L -84.2542,-8.91107 L -84.1123,-8.97821 L -83.9645,-9.0311 L -83.8121,-9.06926
 L -83.6568,-9.0923 L -83.5,-9.1 L -83.3432,-9.0923 L -83.1879,-9.06926 L -83.0355,-9.0311 L -82.8877,-8.97821
 L -82.7458,-8.91107 L -82.6111,-8.83035 L -82.485,-8.73682 L -82.3686,-8.63137 L -82.2632,-8.51503 L -82.1696,-8.38891
 L -82.0889,-8.25423 L -82.0218,-8.11229 L -81.9689,-7.96446 L -81.9307,-7.81214 L -81.9077,-7.65683 L -81.9,-7.5
 L -81.9077,-7.34317 L -81.9307,-7.18786 L -81.9689,-7.03554 L -82.0218,-6.88771 L -82.0889,-6.74577 L -82.1696,-6.61109
 L -82.2632,-6.48497 L -82.3686,-6.36863 L -82.485,-6.26318 L -82.6111,-6.16965 L -82.7458,-6.08893 L -82.8877,-6.02179
 L -83.0355,-5.9689 L -83.1879,-5.93074 L -83.3432,-5.9077 L -83.5,-5.9 z
M 21.368,-4.99735 L 21.2175,-5.01967 L 21.07,-5.05663 L 20.9267,-5.10787 L 20.7892,-5.17291 L 20.6588,-5.25111
 L 20.5366,-5.34172 L 20.4239,-5.44387 L 20.3217,-5.55658 L 20.2311,-5.67875 L 20.1529,-5.80922 L 20.0879,-5.94673
 L 20.0366,-6.08994 L 19.9997,-6.2375 L 19.9774,-6.38796 L 19.9699,-6.53989 L 19.9774,-6.69181 L 19.9997,-6.84227
 L 20.0366,-6.98983 L 20.0879,-7.13304 L 20.1529,-7.27055 L 20.2311,-7.40102 L 20.3217,-7.52319 L 20.4239,-7.6359
 L 20.5366,-7.73805 L 20.6588,-7.82866 L 20.7892,-7.90686 L 20.9267,-7.9719 L 21.07,-8.02314 L 21.2175,-8.0601
 L 21.368,-8.08242 L 21.5199,-8.08989 L 21.6718,-8.08242 L 21.8223,-8.0601 L 21.9698,-8.02314 L 22.1131,-7.9719
 L 22.2506,-7.90686 L 22.381,-7.82866 L 22.5032,-7.73805 L 22.6159,-7.6359 L 22.7181,-7.52319 L 22.8087,-7.40102
 L 22.8869,-7.27055 L 22.9519,-7.13304 L 23.0032,-6.98983 L 23.0401,-6.84227 L 23.0624,-6.69181 L 23.0699,-6.53989
 L 23.0624,-6.38796 L 23.0401,-6.2375 L 23.0032,-6.08994 L 22.9519,-5.94673 L 22.8869,-5.80922 L 22.8087,-5.67875
 L 22.7181,-5.55658 L 22.6159,-5.44387 L 22.5032,-5.34172 L 22.381,-5.25111 L 22.2506,-5.17291 L 22.1131,-5.10787
 L 21.9698,-5.05663 L 21.8223,-5.01967 L 21.6718,-4.99735 L 21.5199,-4.98989 z
M -6.13203,-2.99735 L -6.28249,-3.01967 L -6.43005,-3.05663 L -6.57326,-3.10787 L -6.71077,-3.17291 L -6.84124,-3.25111
 L -6.96341,-3.34172 L -7.07612,-3.44387 L -7.17827,-3.55658 L -7.26888,-3.67875 L -7.34708,-3.80922 L -7.41212,-3.94673
 L -7.46336,-4.08994 L -7.50032,-4.2375 L -7.52264,-4.38796 L -7.5301,-4.53989 L -7.52264,-4.69181 L -7.50032,-4.84227
 L -7.46336,-4.98983 L -7.41212,-5.13304 L -7.34708,-5.27055 L -7.26888,-5.40102 L -7.17827,-5.52319 L -7.07612,-5.6359
 L -6.96341,-5.73805 L -6.84124,-5.82866 L -6.71077,-5.90686 L -6.57326,-5.9719 L -6.43005,-6.02314 L -6.28249,-6.0601
 L -6.13203,-6.08242 L -5.9801,-6.08989 L -5.82818,-6.08242 L -5.67771,-6.0601 L -5.53016,-6.02314 L -5.38695,-5.9719
 L -5.24944,-5.90686 L -5.11897,-5.82866 L -4.99679,-5.73805 L -4.88409,-5.6359 L -4.78194,-5.52319 L -4.69133,-5.40102
 L -4.61313,-5.27055 L -4.54809,-5.13304 L -4.49685,-4.98983 L -4.45989,-4.84227 L -4.43757,-4.69181 L -4.4301,-4.53989
 L -4.43757,-4.38796 L -4.45989,-4.2375 L -4.49685,-4.08994 L -4.54809,-3.94673 L -4.61313,-3.80922 L -4.69133,-3.67875
 L -4.78194,-3.55658 L -4.88409,-3.44387 L -4.99679,-3.34172 L -5.11897,-3.25111 L -5.24944,-3.17291 L -5.38695,-3.10787
 L -5.53016,-3.05663 L -5.67771,-3.01967 L -5.82818,-2.99735 L -5.9801,-2.98989 z
M 3.76797,3.30265 L 3.61751,3.28033 L 3.46995,3.24337 L 3.32674,3.19213 L 3.18923,3.12709 L 3.05876,3.04889
 L 2.93659,2.95828 L 2.82388,2.85613 L 2.72173,2.74342 L 2.63112,2.62125 L 2.55292,2.49078 L 2.48788,2.35327
 L 2.43664,2.21006 L 2.39968,2.0625 L 2.37736,1.91204 L 2.3699,1.76011 L 2.37736,1.60819 L 2.39968,1.45773
 L 2.43664,1.31017 L 2.48788,1.16696 L 2.55292,1.02945 L 2.63112,0.898981 L 2.72173,0.776805 L 2.82388,0.664099
 L 2.93659,0.561949 L 3.05876,0.471337 L 3.18923,0.393137 L 3.32674,0.328102 L 3.46995,0.276857 L 3.61751,0.239898
 L 3.76797,0.217579 L 3.9199,0.210115 L 4.07182,0.217579 L 4.22229,0.239898 L 4.36984,0.276857 L 4.51305,0.328102
 L 4.65056,0.393137 L 4.78103,0.471337 L 4.90321,0.561949 L 5.01591,0.664099 L 5.11806,0.776805 L 5.20867,0.898981
 L 5.28687,1.02945 L 5.35191,1.16696 L 5.40315,1.31017 L 5.44011,1.45773 L 5.46243,1.60819 L 5.4699,1.76011
 L 5.46243,1.91204 L 5.44011,2.0625 L 5.40315,2.21006 L 5.35191,2.35327 L 5.28687,2.49078 L 5.20867,2.62125
 L 5.11806,2.74342 L 5.01591,2.85613 L 4.90321,2.95828 L 4.78103,3.04889 L 4.65056,3.12709 L 4.51305,3.19213
 L 4.36984,3.24337 L 4.22229,3.28033 L 4.07182,3.30265 L 3.9199,3.31011 z
M 14.868,5.00265 L 14.7175,4.98033 L 14.57,4.94337 L 14.4267,4.89213 L 14.2892,4.82709 L 14.1588,4.74889
 L 14.0366,4.65828 L 13.9239,4.55613 L 13.8217,4.44342 L 13.7311,4.32125 L 13.6529,4.19078 L 13.5879,4.05327
 L 13.5366,3.91006 L 13.4997,3.7625 L 13.4774,3.61204 L 13.4699,3.46011 L 13.4774,3.30819 L 13.4997,3.15773
 L 13.5366,3.01017 L 13.5879,2.86696 L 13.6529,2.72945 L 13.7311,2.59898 L 13.8217,2.47681 L 13.9239,2.3641
 L 14.0366,2.26195 L 14.1588,2.17134 L 14.2892,2.09314 L 14.4267,2.0281 L 14.57,1.97686 L 14.7175,1.9399
 L 14.868,1.91758 L 15.0199,1.91011 L 15.1718,1.91758 L 15.3223,1.9399 L 15.4698,1.97686 L 15.6131,2.0281
 L 15.7506,2.09314 L 15.881,2.17134 L 16.0032,2.26195 L 16.1159,2.3641 L 16.2181,2.47681 L 16.3087,2.59898
 L 16.3869,2.72945 L 16.4519,2.86696 L 16.5032,3.01017 L 16.5401,3.15773 L 16.5624,3.30819 L 16.5699,3.46011
 L 16.5624,3.61204 L 16.5401,3.7625 L 16.5032,3.91006 L 16.4519,4.05327 L 16.3869,4.19078 L 16.3087,4.32125
 L 16.2181,4.44342 L 16.1159,4.55613 L 16.0032,4.65828 L 15.881,4.74889 L 15.7506,4.82709 L 15.6131,4.89213
 L 15.4698,4.94337 L 15.3223,4.98033 L 15.1718,5.00265 L 15.0199,5.01011 z
M -83.6568,9.0923 L -83.8121,9.06926 L -83.9645,9.0311 L -84.1123,8.97821 L -84.2542,8.91107 L -84.3889,8.83035
 L -84.515,8.73682 L -84.6314,8.63137 L -84.7368,8.51503 L -84.8304,8.38891 L -84.9111,8.25423 L -84.9782,8.11229
 L -85.0311,7.96446 L -85.0693,7.81214 L -85.0923,7.65683 L -85.1,7.5 L -85.0923,7.34317 L -85.0693,7.18786
 L -85.0311,7.03554 L -84.9782,6.88771 L -84.9111,6.74577 L -84.8304,6.61109 L -84.7368,6.48497 L -84.6314,6.36863
 L -84.515,6.26318 L -84.3889,6.16965 L -84.2542,6.08893 L -84.1123,6.02179 L -83.9645,5.9689 L -83.8121,5.93074
 L -83.6568,5.9077 L -83.5,5.9 L -83.3432,5.9077 L -83.1879,5.93074 L -83.0355,5.9689 L -82.8877,6.02179
 L -82.7458,6.08893 L -82.6111,6.16965 L -82.485,6.26318 L -82.3686,6.36863 L -82.2632,6.48497 L -82.1696,6.61109
 L -82.0889,6.74577 L -82.0218,6.88771 L -81.9689,7.03554 L -81.9307,7.18786 L -81.9077,7.34317 L -81.9,7.5
 L -81.9077,7.65683 L -81.9307,7.81214 L -81.9689,7.96446 L -82.0218,8.11229 L -82.0889,8.25423 L -82.1696,8.38891
 L -82.2632,8.51503 L -82.3686,8.63137 L -82.485,8.73682 L -82.6111,8.83035 L -82.7458,8.91107 L -82.8877,8.97821
 L -83.0355,9.0311 L -83.1879,9.06926 L -83.3432,9.0923 L -83.5,9.1 z
M 83.3432,9.0923 L 83.1879,9.06926 L 83.0355,9.0311 L 82.8877,8.97821 L 82.7458,8.91107 L 82.6111,8.83035
 L 82.485,8.73682 L 82.3686,8.63137 L 82.2632,8.51503 L 82.1696,8.38891 L 82.0889,8.25423 L 82.0218,8.11229
 L 81.9689,7.96446 L 81.9307,7.81214 L 81.9077,7.65683 L 81.9,7.5 L 81.9077,7.34317 L 81.9307,7.18786
 L 81.9689,7.03554 L 82.0218,6.88771 L 82.0889,6.74577 L 82.1696,6.61109 L 82.2632,6.48497 L 82.3686,6.36863
 L 82.485,6.26318 L 82.6111,6.16965 L 82.7458,6.08893 L 82.8877,6.02179 L 83.0355,5.9689 L 83.1879,5.93074
 L 83.3432,5.9077 L 83.5,5.9 L 83.6568,5.9077 L 83.8121,5.93074 L 83.9645,5.9689 L 84.1123,6.02179
 L 84.2542,6.08893 L 84.3889,6.16965 L 84.515,6.26318 L 84.6314,6.36863 L 84.7368,6.48497 L 84.8304,6.61109
 L 84.9111,6.74577 L 84.9782,6.88771 L 85.0311,7.03554 L 85.0693,7.18786 L 85.0923,7.34317 L 85.1,7.5
 L 85.0923,7.65683 L 85.0693,7.81214 L 85.0311,7.96446 L 84.9782,8.11229 L 84.9111,8.25423 L 84.8304,8.38891
 L 84.7368,8.51503 L 84.6314,8.63137 L 84.515,8.73682 L 84.3889,8.83035 L 84.2542,8.91107 L 84.1123,8.97821
 L 83.9645,9.0311 L 83.8121,9.06926 L 83.6568,9.0923 L 83.5,9.1 z
M -13.232,13.5027 L -13.3825,13.4803 L -13.53,13.4434 L -13.6733,13.3921 L -13.8108,13.3271 L -13.9412,13.2489
 L -14.0634,13.1583 L -14.1761,13.0561 L -14.2783,12.9434 L -14.3689,12.8212 L -14.4471,12.6908 L -14.5121,12.5533
 L -14.5634,12.4101 L -14.6003,12.2625 L -14.6226,12.112 L -14.6301,11.9601 L -14.6226,11.8082 L -14.6003,11.6577
 L -14.5634,11.5102 L -14.5121,11.367 L -14.4471,11.2295 L -14.3689,11.099 L -14.2783,10.9768 L -14.1761,10.8641
 L -14.0634,10.7619 L -13.9412,10.6713 L -13.8108,10.5931 L -13.6733,10.5281 L -13.53,10.4769 L -13.3825,10.4399
 L -13.232,10.4176 L -13.0801,10.4101 L -12.9282,10.4176 L -12.7777,10.4399 L -12.6302,10.4769 L -12.4869,10.5281
 L -12.3494,10.5931 L -12.219,10.6713 L -12.0968,10.7619 L -11.9841,10.8641 L -11.8819,10.9768 L -11.7913,11.099
 L -11.7131,11.2295 L -11.6481,11.367 L -11.5968,11.5102 L -11.5599,11.6577 L -11.5376,11.8082 L -11.5301,11.9601
 L -11.5376,12.112 L -11.5599,12.2625 L -11.5968,12.4101 L -11.6481,12.5533 L -11.7131,12.6908 L -11.7913,12.8212
 L -11.8819,12.9434 L -11.9841,13.0561 L -12.0968,13.1583 L -12.219,13.2489 L -12.3494,13.3271 L -12.4869,13.3921
 L -12.6302,13.4434 L -12.7777,13.4803 L -12.9282,13.5027 L -13.0801,13.5101 z
M 1.96797,15.9027 L 1.81751,15.8803 L 1.66995,15.8434 L 1.52674,15.7921 L 1.38923,15.7271 L 1.25876,15.6489
 L 1.13659,15.5583 L 1.02388,15.4561 L 0.921729,15.3434 L 0.831118,15.2212 L 0.752918,15.0908 L 0.687882,14.9533
 L 0.636638,14.8101 L 0.599678,14.6625 L 0.577359,14.512 L 0.569895,14.3601 L 0.577359,14.2082 L 0.599678,14.0577
 L 0.636638,13.9102 L 0.687882,13.767 L 0.752918,13.6295 L 0.831118,13.499 L 0.921729,13.3768 L 1.02388,13.2641
 L 1.13659,13.1619 L 1.25876,13.0713 L 1.38923,12.9931 L 1.52674,12.9281 L 1.66995,12.8769 L 1.81751,12.8399
 L 1.96797,12.8176 L 2.1199,12.8101 L 2.27182,12.8176 L 2.42229,12.8399 L 2.56984,12.8769 L 2.71305,12.9281
 L 2.85056,12.9931 L 2.98103,13.0713 L 3.10321,13.1619 L 3.21591,13.2641 L 3.31806,13.3768 L 3.40867,13.499
 L 3.48687,13.6295 L 3.55191,13.767 L 3.60315,13.9102 L 3.64011,14.0577 L 3.66243,14.2082 L 3.6699,14.3601
 L 3.66243,14.512 L 3.64011,14.6625 L 3.60315,14.8101 L 3.55191,14.9533 L 3.48687,15.0908 L 3.40867,15.2212
 L 3.31806,15.3434 L 3.21591,15.4561 L 3.10321,15.5583 L 2.98103,15.6489 L 2.85056,15.7271 L 2.71305,15.7921
 L 2.56984,15.8434 L 2.42229,15.8803 L 2.27182,15.9027 L 2.1199,15.9101 z
M -17.932,16.6027 L -18.0825,16.5803 L -18.23,16.5434 L -18.3733,16.4921 L -18.5108,16.4271 L -18.6412,16.3489
 L -18.7634,16.2583 L -18.8761,16.1561 L -18.9783,16.0434 L -19.0689,15.9212 L -19.1471,15.7908 L -19.2121,15.6533
 L -19.2634,15.5101 L -19.3003,15.3625 L -19.3226,15.212 L -19.3301,15.0601 L -19.3226,14.9082 L -19.3003,14.7577
 L -19.2634,14.6102 L -19.2121,14.467 L -19.1471,14.3295 L -19.0689,14.199 L -18.9783,14.0768 L -18.8761,13.9641
 L -18.7634,13.8619 L -18.6412,13.7713 L -18.5108,13.6931 L -18.3733,13.6281 L -18.23,13.5769 L -18.0825,13.5399
 L -17.932,13.5176 L -17.7801,13.5101 L -17.6282,13.5176 L -17.4777,13.5399 L -17.3302,13.5769 L -17.1869,13.6281
 L -17.0494,13.6931 L -16.919,13.7713 L -16.7968,13.8619 L -16.6841,13.9641 L -16.5819,14.0768 L -16.4913,14.199
 L -16.4131,14.3295 L -16.3481,14.467 L -16.2968,14.6102 L -16.2599,14.7577 L -16.2376,14.9082 L -16.2301,15.0601
 L -16.2376,15.212 L -16.2599,15.3625 L -16.2968,15.5101 L -16.3481,15.6533 L -16.4131,15.7908 L -16.4913,15.9212
 L -16.5819,16.0434 L -16.6841,16.1561 L -16.7968,16.2583 L -16.919,16.3489 L -17.0494,16.4271 L -17.1869,16.4921
 L -17.3302,16.5434 L -17.4777,16.5803 L -17.6282,16.6027 L -17.7801,16.6101 z
M 16.368,23.0027 L 16.2175,22.9803 L 16.07,22.9434 L 15.9267,22.8921 L 15.7892,22.8271 L 15.6588,22.7489
 L 15.5366,22.6583 L 15.4239,22.5561 L 15.3217,22.4434 L 15.2311,22.3212 L 15.1529,22.1908 L 15.0879,22.0533
 L 15.0366,21.9101 L 14.9997,21.7625 L 14.9774,21.612 L 14.9699,21.4601 L 14.9774,21.3082 L 14.9997,21.1577
 L 15.0366,21.0102 L 15.0879,20.867 L 15.1529,20.7295 L 15.2311,20.599 L 15.3217,20.4768 L 15.4239,20.3641
 L 15.5366,20.2619 L 15.6588,20.1713 L 15.7892,20.0931 L 15.9267,20.0281 L 16.07,19.9769 L 16.2175,19.9399
 L 16.368,19.9176 L 16.5199,19.9101 L 16.6718,19.9176 L 16.8223,19.9399 L 16.9698,19.9769 L 17.1131,20.0281
 L 17.2506,20.0931 L 17.381,20.1713 L 17.5032,20.2619 L 17.6159,20.3641 L 17.7181,20.4768 L 17.8087,20.599
 L 17.8869,20.7295 L 17.9519,20.867 L 18.0032,21.0102 L 18.0401,21.1577 L 18.0624,21.3082 L 18.0699,21.4601
 L 18.0624,21.612 L 18.0401,21.7625 L 18.0032,21.9101 L 17.9519,22.0533 L 17.8869,22.1908 L 17.8087,22.3212
 L 17.7181,22.4434 L 17.6159,22.5561 L 17.5032,22.6583 L 17.381,22.7489 L 17.2506,22.8271 L 17.1131,22.8921
 L 16.9698,22.9434 L 16.8223,22.9803 L 16.6718,23.0027 L 16.5199,23.0101 z
M -83.6568,34.0923 L -83.8121,34.0693 L -83.9645,34.0311 L -84.1123,33.9782 L -84.2542,33.9111 L -84.3889,33.8304
 L -84.515,33.7368 L -84.6314,33.6314 L -84.7368,33.515 L -84.8304,33.3889 L -84.9111,33.2542 L -84.9782,33.1123
 L -85.0311,32.9645 L -85.0693,32.8121 L -85.0923,32.6568 L -85.1,32.5 L -85.0923,32.3432 L -85.0693,32.1879
 L -85.0311,32.0355 L -84.9782,31.8877 L -84.9111,31.7458 L -84.8304,31.6111 L -84.7368,31.485 L -84.6314,31.3686
 L -84.515,31.2632 L -84.3889,31.1696 L -84.2542,31.0889 L -84.1123,31.0218 L -83.9645,30.9689 L -83.8121,30.9307
 L -83.6568,30.9077 L -83.5,30.9 L -83.3432,30.9077 L -83.1879,30.9307 L -83.0355,30.9689 L -82.8877,31.0218
 L -82.7458,31.0889 L -82.6111,31.1696 L -82.485,31.2632 L -82.3686,31.3686 L -82.2632,31.485 L -82.1696,31.6111
 L -82.0889,31.7458 L -82.0218,31.8877 L -81.9689,32.0355 L -81.9307,32.1879 L -81.9077,32.3432 L -81.9,32.5
 L -81.9077,32.6568 L -81.9307,32.8121 L -81.9689,32.9645 L -82.0218,33.1123 L -82.0889,33.2542 L -82.1696,33.3889
 L -82.2632,33.515 L -82.3686,33.6314 L -82.485,33.7368 L -82.6111,33.8304 L -82.7458,33.9111 L -82.8877,33.9782
 L -83.0355,34.0311 L -83.1879,34.0693 L -83.3432,34.0923 L -83.5,34.1 z
M 83.3432,34.0923 L 83.1879,34.0693 L 83.0355,34.0311 L 82.8877,33.9782 L 82.7458,33.9111 L 82.6111,33.8304
 L 82.485,33.7368 L 82.3686,33.6314 L 82.2632,33.515 L 82.1696,33.3889 L 82.0889,33.2542 L 82.0218,33.1123
 L 81.9689,32.9645 L 81.9307,32.8121 L 81.9077,32.6568 L 81.9,32.5 L 81.9077,32.3432 L 81.9307,32.1879
 L 81.9689,32.0355 L 82.0218,31.8877 L 82.0889,31.7458 L 82.1696,31.6111 L 82.2632,31.485 L 82.3686,31.3686
 L 82.485,31.2632 L 82.6111,31.1696 L 82.7458,31.0889 L 82.8877,31.0218 L 83.0355,30.9689 L 83.1879,30.9307
 L 83.3432,30.9077 L 83.5,30.9 L 83.6568,30.9077 L 83.8121,30.9307 L 83.9645,30.9689 L 84.1123,31.0218
 L 84.2542,31.0889 L 84.3889,31.1696 L 84.515,31.2632 L 84.6314,31.3686 L 84.7368,31.485 L 84.8304,31.6111
 L 84.9111,31.7458 L 84.9782,31.8877 L 85.0311,32.0355 L 85.0693,32.1879 L 85.0923,32.3432 L 85.1,32.5
 L 85.0923,32.6568 L 85.0693,32.8121 L 85.0311,32.9645 L 84.9782,33.1123 L 84.9111,33.2542 L 84.8304,33.3889
 L 84.7368,33.515 L 84.6314,33.6314 L 84.515,33.7368 L 84.3889,33.8304 L 84.2542,33.9111 L 84.1123,33.9782
 L 83.9645,34.0311 L 83.8121,34.0693 L 83.6568,34.0923 L 83.5,34.1 z
M 83.3432,49.0923 L 83.1879,49.0693 L 83.0355,49.0311 L 82.8877,48.9782 L 82.7458,48.9111 L 82.6111,48.8304
 L 82.485,48.7368 L 82.3686,48.6314 L 82.2632,48.515 L 82.1696,48.3889 L 82.0889,48.2542 L 82.0218,48.1123
 L 81.9689,47.9645 L 81.9307,47.8121 L 81.9077,47.6568 L 81.9,47.5 L 81.9077,47.3432 L 81.9307,47.1879
 L 81.9689,47.0355 L 82.0218,46.8877 L 82.0889,46.7458 L 82.1696,46.6111 L 82.2632,46.485 L 82.3686,46.3686
 L 82.485,46.2632 L 82.6111,46.1696 L 82.7458,46.0889 L 82.8877,46.0218 L 83.0355,45.9689 L 83.1879,45.9307
 L 83.3432,45.9077 L 83.5,45.9 L 83.6568,45.9077 L 83.8121,45.9307 L 83.9645,45.9689 L 84.1123,46.0218
 L 84.2542,46.0889 L 84.3889,46.1696 L 84.515,46.2632 L 84.6314,46.3686 L 84.7368,46.485 L 84.8304,46.6111
 L 84.9111,46.7458 L 84.9782,46.8877 L 85.0311,47.0355 L 85.0693,47.1879 L 85.0923,47.3432 L 85.1,47.5
 L 85.0923,47.6568 L 85.0693,47.8121 L 85.0311,47.9645 L 84.9782,48.1123 L 84.9111,48.2542 L 84.8304,48.3889
 L 84.7368,48.515 L 84.6314,48.6314 L 84.515,48.7368 L 84.3889,48.8304 L 84.2542,48.9111 L 84.1123,48.9782
 L 83.9645,49.0311 L 83.8121,49.0693 L 83.6568,49.0923 L 83.5,49.1 z
M -83.6568,49.0923 L -83.8121,49.0693 L -83.9645,49.0311 L -84.1123,48.9782 L -84.2542,48.9111 L -84.3889,48.8304
 L -84.515,48.7368 L -84.6314,48.6314 L -84.7368,48.515 L -84.8304,48.3889 L -84.9111,48.2542 L -84.9782,48.1123
 L -85.0311,47.9645 L -85.0693,47.8121 L -85.0923,47.6568 L -85.1,47.5 L -85.0923,47.3432 L -85.0693,47.1879
 L -85.0311,47.0355 L -84.9782,46.8877 L -84.9111,46.7458 L -84.8304,46.6111 L -84.7368,46.485 L -84.6314,46.3686
 L -84.515,46.2632 L -84.3889,46.1696 L -84.2542,46.0889 L -84.1123,46.0218 L -83.9645,45.9689 L -83.8121,45.9307
 L -83.6568,45.9077 L -83.5,45.9 L -83.3432,45.9077 L -83.1879,45.9307 L -83.0355,45.9689 L -82.8877,46.0218
 L -82.7458,46.0889 L -82.6111,46.1696 L -82.485,46.2632 L -82.3686,46.3686 L -82.2632,46.485 L -82.1696,46.6111
 L -82.0889,46.7458 L -82.0218,46.8877 L -81.9689,47.0355 L -81.9307,47.1879 L -81.9077,47.3432 L -81.9,47.5
 L -81.9077,47.6568 L -81.9307,47.8121 L -81.9689,47.9645 L -82.0218,48.1123 L -82.0889,48.2542 L -82.1696,48.3889
 L -82.2632,48.515 L -82.3686,48.6314 L -82.485,48.7368 L -82.6111,48.8304 L -82.7458,48.9111 L -82.8877,48.9782
 L -83.0355,49.0311 L -83.1879,49.0693 L -83.3432,49.0923 L -83.5,49.1 z
" stroke="black" fill="lightgray" stroke-width="0.5"/>
</svg>
