<?xml version="1.0" standalone="no"?>
<!DOCTYPE svg PUBLIC "-//W3C//DTD SVG 1.1//EN" "http://www.w3.org/Graphics/SVG/1.1/DTD/svg11.dtd">
<svg width="48mm" height="48mm" viewBox="-24 -24 48 48" xmlns="http://www.w3.org/2000/svg" version="1.1">
<title>OpenSCAD Model</title>
<path d="
M 15.0199,16.7601 L 23.2699,16.7601 L 23.2699,-15.4321 L 23.2199,-15.4296 L 22.4544,-15.4672 L 21.6962,-15.5797
 L 20.9527,-15.7659 L 20.231,-16.0242 L 19.5382,-16.3519 L 18.8808,-16.7459 L 18.2651,-17.2025 L 17.6972,-17.7172
 L 17.1825,-18.2851 L 16.7259,-18.9007 L 16.3319,-19.5582 L 16.0042,-20.251 L 15.746,-20.9727 L 15.5597,-21.7162
 L 15.4473,-22.4743 L 15.4096,-23.2399 L -14.5245,-23.2399 L -14.5661,-22.3915 L -14.6908,-21.5513 L -14.8972,-20.7273
 L -15.1833,-19.9275 L -15.5465,-19.1596 L -15.9832,-18.4311 L -16.4892,-17.7488 L -17.0596,-17.1194 L -17.689,-16.549
 L -18.3713,-16.043 L -19.0999,-15.6063 L -19.8677,-15.2431 L -20.6675,-14.957 L -21.4915,-14.7506 L -22.3317,-14.6259
 L -23.1801,-14.5843 L -23.2301,-14.5867 L -23.2301,12.4425 L -23.1801,12.44 L -22.1294,12.4917 L -21.0887,12.646
 L -20.0682,12.9016 L -19.0777,13.2561 L -18.1267,13.7059 L -17.2243,14.2467 L -16.3794,14.8734 L -15.5999,15.5799
 L -14.8934,16.3594 L -14.2667,17.2044 L -13.7258,18.1067 L -13.276,19.0577 L -12.9216,20.0482 L -12.666,21.0687
 L -12.5116,22.1094 L -12.46,23.1601 L -12.46,23.1601 L -12.4649,23.2601 L 15.0199,23.2601 z
" stroke="black" fill="lightgray" stroke-width="0.5"/>
</svg>
