<?xml version="1.0" standalone="no"?>
<!DOCTYPE svg PUBLIC "-//W3C//DTD SVG 1.1//EN" "http://www.w3.org/Graphics/SVG/1.1/DTD/svg11.dtd">
<svg width="180mm" height="180mm" viewBox="-90 -90 180 180" xmlns="http://www.w3.org/2000/svg" version="1.1">
<title>OpenSCAD Model</title>
<path d="
M 87,89.9836 L 87.3136,89.9836 L 87.9271,89.8532 L 88.5,89.5981 L 89.0074,89.2294 L 89.4271,88.7634
 L 89.7406,88.2202 L 89.9344,87.6237 L 90,87 L 90,-87 L 89.9344,-87.6237 L 89.7406,-88.2202
 L 89.4271,-88.7634 L 89.0074,-89.2294 L 88.5,-89.5981 L 87.9271,-89.8532 L 87.3136,-89.9836 L 87,-89.9836
 L 87,-90 L -87,-90 L -87,-89.9836 L -87.3136,-89.9836 L -87.9271,-89.8532 L -88.5,-89.5981
 L -89.0074,-89.2294 L -89.4271,-88.7634 L -89.7406,-88.2202 L -89.9344,-87.6237 L -90,-87 L -90,87
 L -89.9344,87.6237 L -89.7406,88.2202 L -89.4271,88.7634 L -89.0074,89.2294 L -88.5,89.5981 L -87.9271,89.8532
 L -87.3136,89.9836 L -87,89.9836 L -87,90 L 87,90 z
M 74.7387,-81.0137 L 74.2275,-81.1224 L 73.75,-81.3349 L 73.3272,-81.6421 L 72.9775,-82.0305 L 72.7161,-82.4832
 L 72.5546,-82.9802 L 72.5,-83.5 L 72.5546,-84.0198 L 72.7161,-84.5168 L 72.9775,-84.9695 L 73.3272,-85.3579
 L 73.75,-85.6651 L 74.2275,-85.8776 L 74.7387,-85.9863 L 75.2613,-85.9863 L 75.7725,-85.8776 L 76.25,-85.6651
 L 76.6728,-85.3579 L 77.0225,-84.9695 L 77.2839,-84.5168 L 77.4454,-84.0198 L 77.5,-83.5 L 77.4454,-82.9802
 L 77.2839,-82.4832 L 77.0225,-82.0305 L 76.6728,-81.6421 L 76.25,-81.3349 L 75.7725,-81.1224 L 75.2613,-81.0137
 z
M -75.2613,-81.0137 L -75.7725,-81.1224 L -76.25,-81.3349 L -76.6728,-81.6421 L -77.0225,-82.0305 L -77.2839,-82.4832
 L -77.4454,-82.9802 L -77.5,-83.5 L -77.4454,-84.0198 L -77.2839,-84.5168 L -77.0225,-84.9695 L -76.6728,-85.3579
 L -76.25,-85.6651 L -75.7725,-85.8776 L -75.2613,-85.9863 L -74.7387,-85.9863 L -74.2275,-85.8776 L -73.75,-85.6651
 L -73.3272,-85.3579 L -72.9775,-84.9695 L -72.7161,-84.5168 L -72.5546,-84.0198 L -72.5,-83.5 L -72.5546,-82.9802
 L -72.7161,-82.4832 L -72.9775,-82.0305 L -73.3272,-81.6421 L -73.75,-81.3349 L -74.2275,-81.1224 L -74.7387,-81.0137
 z
M 83.2387,-72.5137 L 82.7275,-72.6224 L 82.25,-72.8349 L 81.8272,-73.1421 L 81.4775,-73.5305 L 81.2161,-73.9832
 L 81.0546,-74.4802 L 81,-75 L 81.0546,-75.5198 L 81.2161,-76.0168 L 81.4775,-76.4695 L 81.8272,-76.8579
 L 82.25,-77.1651 L 82.7275,-77.3776 L 83.2387,-77.4863 L 83.7613,-77.4863 L 84.2725,-77.3776 L 84.75,-77.1651
 L 85.1728,-76.8579 L 85.5225,-76.4695 L 85.7839,-76.0168 L 85.9454,-75.5198 L 86,-75 L 85.9454,-74.4802
 L 85.7839,-73.9832 L 85.5225,-73.5305 L 85.1728,-73.1421 L 84.75,-72.8349 L 84.2725,-72.6224 L 83.7613,-72.5137
 z
M -83.7613,-72.5137 L -84.2725,-72.6224 L -84.75,-72.8349 L -85.1728,-73.1421 L -85.5225,-73.5305 L -85.7839,-73.9832
 L -85.9454,-74.4802 L -86,-75 L -85.9454,-75.5198 L -85.7839,-76.0168 L -85.5225,-76.4695 L -85.1728,-76.8579
 L -84.75,-77.1651 L -84.2725,-77.3776 L -83.7613,-77.4863 L -83.2387,-77.4863 L -82.7275,-77.3776 L -82.25,-77.1651
 L -81.8272,-76.8579 L -81.4775,-76.4695 L -81.2161,-76.0168 L -81.0546,-75.5198 L -81,-75 L -81.0546,-74.4802
 L -81.2161,-73.9832 L -81.4775,-73.5305 L -81.8272,-73.1421 L -82.25,-72.8349 L -82.7275,-72.6224 L -83.2387,-72.5137
 z
M -31.0961,32.4311 L -31.4029,32.3659 L -31.6893,32.2384 L -31.943,32.0541 L -31.9917,32 L -32,32
 L -32,31.9908 L -32.1529,31.821 L -32.3097,31.5494 L -32.4066,31.2512 L -32.4393,30.9393 L -32.4066,30.6275
 L -32.3097,30.3292 L -32.1529,30.0577 L -32,29.8879 L -32,-29.8879 L -32.1529,-30.0577 L -32.3097,-30.3292
 L -32.4066,-30.6275 L -32.4393,-30.9393 L -32.4066,-31.2512 L -32.3097,-31.5494 L -32.1529,-31.821 L -32,-31.9908
 L -32,-32 L -31.9917,-32 L -31.943,-32.0541 L -31.6893,-32.2384 L -31.4029,-32.3659 L -31.0961,-32.4311
 L -30.7825,-32.4311 L -30.4758,-32.3659 L -30.1893,-32.2384 L -29.9356,-32.0541 L -29.887,-32 L 29.887,-32
 L 29.9356,-32.0541 L 30.1893,-32.2384 L 30.4758,-32.3659 L 30.7825,-32.4311 L 31.0961,-32.4311 L 31.4029,-32.3659
 L 31.6893,-32.2384 L 31.943,-32.0541 L 31.9917,-32 L 32,-32 L 32,-31.9908 L 32.1529,-31.821
 L 32.3097,-31.5494 L 32.4066,-31.2512 L 32.4393,-30.9393 L 32.4066,-30.6275 L 32.3097,-30.3292 L 32.1529,-30.0577
 L 32,-29.8879 L 32,29.8879 L 32.1529,30.0577 L 32.3097,30.3292 L 32.4066,30.6275 L 32.4393,30.9393
 L 32.4066,31.2512 L 32.3097,31.5494 L 32.1529,31.821 L 32,31.9908 L 32,32 L 31.9917,32
 L 31.943,32.0541 L 31.6893,32.2384 L 31.4029,32.3659 L 31.0961,32.4311 L 30.7825,32.4311 L 30.4758,32.3659
 L 30.1893,32.2384 L 29.9356,32.0541 L 29.887,32 L -29.887,32 L -29.9356,32.0541 L -30.1893,32.2384
 L -30.4758,32.3659 L -30.7825,32.4311 z
M -38.9476,-23.5204 L -39.334,-23.6025 L -39.695,-23.7632 L -40.0147,-23.9955 L -40.279,-24.2891 L -40.4766,-24.6313
 L -40.5987,-25.007 L -40.64,-25.4 L -40.5987,-25.793 L -40.4766,-26.1687 L -40.279,-26.5109 L -40.0147,-26.8045
 L -39.695,-27.0368 L -39.334,-27.1975 L -38.9476,-27.2796 L -38.5524,-27.2796 L -38.166,-27.1975 L -37.805,-27.0368
 L -37.4853,-26.8045 L -37.221,-26.5109 L -37.0234,-26.1687 L -36.9013,-25.793 L -36.86,-25.4 L -36.9013,-25.007
 L -37.0234,-24.6313 L -37.221,-24.2891 L -37.4853,-23.9955 L -37.805,-23.7632 L -38.166,-23.6025 L -38.5524,-23.5204
 z
M 38.5524,-23.5204 L 38.166,-23.6025 L 37.805,-23.7632 L 37.4853,-23.9955 L 37.221,-24.2891 L 37.0234,-24.6313
 L 36.9013,-25.007 L 36.86,-25.4 L 36.9013,-25.793 L 37.0234,-26.1687 L 37.221,-26.5109 L 37.4853,-26.8045
 L 37.805,-27.0368 L 38.166,-27.1975 L 38.5524,-27.2796 L 38.9476,-27.2796 L 39.334,-27.1975 L 39.695,-27.0368
 L 40.0147,-26.8045 L 40.279,-26.5109 L 40.4766,-26.1687 L 40.5987,-25.793 L 40.64,-25.4 L 40.5987,-25.007
 L 40.4766,-24.6313 L 40.279,-24.2891 L 40.0147,-23.9955 L 39.695,-23.7632 L 39.334,-23.6025 L 38.9476,-23.5204
 z
M 38.5524,1.87965 L 38.166,1.7975 L 37.805,1.63679 L 37.4853,1.40454 L 37.221,1.11091 L 37.0234,0.768732
 L 36.9013,0.392953 L 36.86,-0 L 36.9013,-0.392953 L 37.0234,-0.768732 L 37.221,-1.11091 L 37.4853,-1.40454
 L 37.805,-1.63679 L 38.166,-1.7975 L 38.5524,-1.87965 L 38.9476,-1.87965 L 39.334,-1.7975 L 39.695,-1.63679
 L 40.0147,-1.40454 L 40.279,-1.11091 L 40.4766,-0.768732 L 40.5987,-0.392953 L 40.64,-0 L 40.5987,0.392953
 L 40.4766,0.768732 L 40.279,1.11091 L 40.0147,1.40454 L 39.695,1.63679 L 39.334,1.7975 L 38.9476,1.87965
 z
M -38.9476,1.87965 L -39.334,1.7975 L -39.695,1.63679 L -40.0147,1.40454 L -40.279,1.11091 L -40.4766,0.768732
 L -40.5987,0.392953 L -40.64,-0 L -40.5987,-0.392953 L -40.4766,-0.768732 L -40.279,-1.11091 L -40.0147,-1.40454
 L -39.695,-1.63679 L -39.334,-1.7975 L -38.9476,-1.87965 L -38.5524,-1.87965 L -38.166,-1.7975 L -37.805,-1.63679
 L -37.4853,-1.40454 L -37.221,-1.11091 L -37.0234,-0.768732 L -36.9013,-0.392953 L -36.86,-0 L -36.9013,0.392953
 L -37.0234,0.768732 L -37.221,1.11091 L -37.4853,1.40454 L -37.805,1.63679 L -38.166,1.7975 L -38.5524,1.87965
 z
M 38.5524,27.2796 L 38.166,27.1975 L 37.805,27.0368 L 37.4853,26.8045 L 37.221,26.5109 L 37.0234,26.1687
 L 36.9013,25.793 L 36.86,25.4 L 36.9013,25.007 L 37.0234,24.6313 L 37.221,24.2891 L 37.4853,23.9955
 L 37.805,23.7632 L 38.166,23.6025 L 38.5524,23.5204 L 38.9476,23.5204 L 39.334,23.6025 L 39.695,23.7632
 L 40.0147,23.9955 L 40.279,24.2891 L 40.4766,24.6313 L 40.5987,25.007 L 40.64,25.4 L 40.5987,25.793
 L 40.4766,26.1687 L 40.279,26.5109 L 40.0147,26.8045 L 39.695,27.0368 L 39.334,27.1975 L 38.9476,27.2796
 z
M -38.9476,27.2796 L -39.334,27.1975 L -39.695,27.0368 L -40.0147,26.8045 L -40.279,26.5109 L -40.4766,26.1687
 L -40.5987,25.793 L -40.64,25.4 L -40.5987,25.007 L -40.4766,24.6313 L -40.279,24.2891 L -40.0147,23.9955
 L -39.695,23.7632 L -39.334,23.6025 L -38.9476,23.5204 L -38.5524,23.5204 L -38.166,23.6025 L -37.805,23.7632
 L -37.4853,23.9955 L -37.221,24.2891 L -37.0234,24.6313 L -36.9013,25.007 L -36.86,25.4 L -36.9013,25.793
 L -37.0234,26.1687 L -37.221,26.5109 L -37.4853,26.8045 L -37.805,27.0368 L -38.166,27.1975 L -38.5524,27.2796
 z
M 83.2387,77.4863 L 82.7275,77.3776 L 82.25,77.1651 L 81.8272,76.8579 L 81.4775,76.4695 L 81.2161,76.0168
 L 81.0546,75.5198 L 81,75 L 81.0546,74.4802 L 81.2161,73.9832 L 81.4775,73.5305 L 81.8272,73.1421
 L 82.25,72.8349 L 82.7275,72.6224 L 83.2387,72.5137 L 83.7613,72.5137 L 84.2725,72.6224 L 84.75,72.8349
 L 85.1728,73.1421 L 85.5225,73.5305 L 85.7839,73.9832 L 85.9454,74.4802 L 86,75 L 85.9454,75.5198
 L 85.7839,76.0168 L 85.5225,76.4695 L 85.1728,76.8579 L 84.75,77.1651 L 84.2725,77.3776 L 83.7613,77.4863
 z
M -83.7613,77.4863 L -84.2725,77.3776 L -84.75,77.1651 L -85.1728,76.8579 L -85.5225,76.4695 L -85.7839,76.0168
 L -85.9454,75.5198 L -86,75 L -85.9454,74.4802 L -85.7839,73.9832 L -85.5225,73.5305 L -85.1728,73.1421
 L -84.75,72.8349 L -84.2725,72.6224 L -83.7613,72.5137 L -83.2387,72.5137 L -82.7275,72.6224 L -82.25,72.8349
 L -81.8272,73.1421 L -81.4775,73.5305 L -81.2161,73.9832 L -81.0546,74.4802 L -81,75 L -81.0546,75.5198
 L -81.2161,76.0168 L -81.4775,76.4695 L -81.8272,76.8579 L -82.25,77.1651 L -82.7275,77.3776 L -83.2387,77.4863
 z
M 74.7387,85.9863 L 74.2275,85.8776 L 73.75,85.6651 L 73.3272,85.3579 L 72.9775,84.9695 L 72.7161,84.5168
 L 72.5546,84.0198 L 72.5,83.5 L 72.5546,82.9802 L 72.7161,82.4832 L 72.9775,82.0305 L 73.3272,81.6421
 L 73.75,81.3349 L 74.2275,81.1224 L 74.7387,81.0137 L 75.2613,81.0137 L 75.7725,81.1224 L 76.25,81.3349
 L 76.6728,81.6421 L 77.0225,82.0305 L 77.2839,82.4832 L 77.4454,82.9802 L 77.5,83.5 L 77.4454,84.0198
 L 77.2839,84.5168 L 77.0225,84.9695 L 76.6728,85.3579 L 76.25,85.6651 L 75.7725,85.8776 L 75.2613,85.9863
 z
M -75.2613,85.9863 L -75.7725,85.8776 L -76.25,85.6651 L -76.6728,85.3579 L -77.0225,84.9695 L -77.2839,84.5168
 L -77.4454,84.0198 L -77.5,83.5 L -77.4454,82.9802 L -77.2839,82.4832 L -77.0225,82.0305 L -76.6728,81.6421
 L -76.25,81.3349 L -75.7725,81.1224 L -75.2613,81.0137 L -74.7387,81.0137 L -74.2275,81.1224 L -73.75,81.3349
 L -73.3272,81.6421 L -72.9775,82.0305 L -72.7161,82.4832 L -72.5546,82.9802 L -72.5,83.5 L -72.5546,84.0198
 L -72.7161,84.5168 L -72.9775,84.9695 L -73.3272,85.3579 L -73.75,85.6651 L -74.2275,85.8776 L -74.7387,85.9863
 z
" stroke="black" fill="lightgray" stroke-width="0.5"/>
</svg>
